<svg xmlns="http://www.w3.org/2000/svg" width="70" height="70" fill="none" viewBox="0 0 70 70">
  <path fill="#FB2E86" d="M46.075 67.414V8.345a2.586 2.586 0 0 0-2.586-2.586H7.376A2.586 2.586 0 0 0 4.79 8.345v59.07A2.586 2.586 0 0 0 7.376 70h36.113a2.586 2.586 0 0 0 2.586-2.586Z"/>
  <path fill="#FB2E86" d="M51.967 5.76h-8.654a2.586 2.586 0 0 1 2.585 2.585v59.07A2.586 2.586 0 0 1 43.312 70h8.655a2.586 2.586 0 0 0 2.586-2.586V8.345a2.586 2.586 0 0 0-2.586-2.586Z"/>
  <path fill="#F5F5F5" d="M9.017 64.85V10.91c0-.51.413-.924.924-.924h39.461c.51 0 .924.413.924.924v53.94c0 .51-.413.924-.924.924H9.941a.924.924 0 0 1-.924-.925Z"/>
  <path fill="#EAEAEA" d="M49.402 9.986h-8.654c.51 0 .924.413.924.924v53.94c0 .51-.414.924-.924.924h8.654c.51 0 .924-.414.924-.925V10.91a.924.924 0 0 0-.924-.923Z"/>
  <path fill="#C2D0DA" d="M35.164 3.218V1.857A1.857 1.857 0 0 0 33.308 0h-7.273a1.857 1.857 0 0 0-1.857 1.857v1.361c0 .42-.34.76-.76.76h-3.026A1.823 1.823 0 0 0 18.568 5.8v4.185h22.206V5.8a1.823 1.823 0 0 0-1.823-1.824h-3.027a.76.76 0 0 1-.76-.759Z"/>
  <path fill="#FB2E86" d="M14.393 24.991v-8.14c0-.902.73-1.633 1.633-1.633h8.14c.901 0 1.633.731 1.633 1.633v8.14c0 .902-.732 1.633-1.633 1.633h-8.14a1.633 1.633 0 0 1-1.633-1.633Zm0 16.959v-8.14c0-.902.73-1.633 1.633-1.633h8.14c.901 0 1.633.73 1.633 1.633v8.14c0 .901-.732 1.633-1.633 1.633h-8.14a1.633 1.633 0 0 1-1.633-1.633Zm0 16.958v-8.14c0-.902.73-1.633 1.633-1.633h8.14c.901 0 1.633.731 1.633 1.633v8.14c0 .902-.732 1.633-1.633 1.633h-8.14a1.633 1.633 0 0 1-1.633-1.633Z"/>
  <path fill="#F6F9F9" d="M19.407 23.836h-.003a1.473 1.473 0 0 1-1.184-.604l-1.233-1.694a1.056 1.056 0 1 1 1.708-1.244l.715.983 2.09-2.841a1.056 1.056 0 1 1 1.702 1.252l-2.613 3.55a1.473 1.473 0 0 1-1.182.598Zm0 17.328h-.004a1.473 1.473 0 0 1-1.183-.605l-1.233-1.693a1.056 1.056 0 1 1 1.708-1.244l.715.982 2.09-2.84a1.056 1.056 0 1 1 1.702 1.252l-2.613 3.55a1.472 1.472 0 0 1-1.182.598Zm0 16.589h-.004a1.473 1.473 0 0 1-1.183-.603l-1.233-1.694a1.056 1.056 0 1 1 1.708-1.244l.715.982 2.09-2.84a1.056 1.056 0 0 1 1.702 1.252l-2.613 3.55a1.474 1.474 0 0 1-1.182.597Z"/>
  <path fill="#DDEAFB" d="M44.118 19.77H31.059a1.056 1.056 0 1 1 0-2.112h13.059a1.056 1.056 0 1 1 0 2.112Zm-6.531 4.414h-6.529a1.056 1.056 0 0 1 0-2.112h6.53a1.056 1.056 0 1 1 0 2.113Zm2.233 12.545h-8.762a1.056 1.056 0 0 1 0-2.113h8.762a1.056 1.056 0 1 1 0 2.113Zm-2.233 4.414h-6.529a1.056 1.056 0 0 1 0-2.112h6.53a1.056 1.056 0 1 1 0 2.112Z"/>
  <path fill="#FC8086" d="m61.1 27.579-1.038-1.367-3.88-2.457-1.492-.235-19.871 31.4a8.18 8.18 0 0 0-1.042 2.46 6.401 6.401 0 0 1 5.673 3.592 8.176 8.176 0 0 0 1.778-1.993L61.1 27.58Z"/>
  <path fill="#8C9BA6" d="m63.905 17.91-1.677-1.063a2.8 2.8 0 0 0-3.865.869l-1.538 2.43.49.988 4.667 2.955 1.253.116 1.539-2.432a2.801 2.801 0 0 0-.869-3.864Z"/>
  <path fill="#C9E2E7" d="m54.692 23.51 2.137-3.373 6.41 4.059-2.136 3.374-6.41-4.06Z"/>
  <path fill="#7C8B96" d="m39.45 60.972-5.657 4.56c-.798.643-1.958-.091-1.718-1.088l1.703-7.064a6.4 6.4 0 0 1 5.673 3.592Z"/>
  <path fill="#FB636F" d="m37.967 59.014 20.83-32.894-1.785-1.13-20.83 32.894a6.401 6.401 0 0 1 1.785 1.13Z"/>
</svg>
