<svg xmlns="http://www.w3.org/2000/svg" width="94" height="94" fill="none" viewBox="0 0 94 94">
  <g clip-path="url(#a)">
    <path fill="#395093" d="M94 47c0-.571-.01-1.14-.03-1.706C93.072 20.127 72.386 0 47 0S.928 20.127.03 45.294C.01 45.86 0 46.43 0 47c0 25.957 24.143 45.294 47 45.294 23.271 0 47-19.337 47-45.294Z"/>
    <path fill="#3D559D" d="M47 90.589C21.614 90.589.932 70.46.034 45.294.014 45.861 0 46.43 0 47c0 25.957 21.043 47 47 47s47-21.043 47-47a47.8 47.8 0 0 0-.034-1.706C93.068 70.461 72.386 90.59 47 90.59Z"/>
    <path fill="#fff" d="M86.182 45.294C85.29 24.426 68.088 7.781 47 7.781c-21.089 0-38.29 16.645-39.182 37.513-.025.566 0 38.43 39.182 38.43 39.183 0 39.207-37.864 39.182-38.43Z"/>
    <path fill="#D5E0F2" d="M47 82.808c-21.088 0-38.286-16.645-39.18-37.514A40.229 40.229 0 0 0 7.781 47c0 21.66 17.56 39.219 39.22 39.219S86.218 68.66 86.218 47c0-.572-.015-1.14-.039-1.706C85.287 66.163 68.088 82.808 47 82.808Z"/>
    <path fill="#405B6C" d="M61.245 33.24a2.843 2.843 0 0 0-4.02.027l-6.67 6.763.67 3.22 3.116 1.038 6.932-7.028a2.843 2.843 0 0 0-.028-4.02Zm-18.269 7.05L27.847 26.807a2.842 2.842 0 1 0-3.782 4.244L39.49 44.8l3.215-1.072.27-3.438Z"/>
    <path fill="#86DCFF" d="M67.129 65.33c-.323 0-.648-.11-.914-.334L48.209 49.872a1.421 1.421 0 0 1 1.829-2.176L68.043 62.82a1.421 1.421 0 0 1-.915 2.51Z"/>
    <path fill="#2D4456" d="m39.491 44.8 2.655 2.365 3.41-1.158-.186-3.584-2.394-2.134a7.84 7.84 0 0 0-3.485 4.51Zm11.064-4.77-2.257 2.289v4.491h3.555l2.488-2.522a7.85 7.85 0 0 0-3.786-4.258Z"/>
    <path fill="#395093" d="M51.55 45.294a4.86 4.86 0 0 0-9.1 0c-.2.53-.014 4.858 4.55 4.858 4.563 0 4.749-4.327 4.55-4.858Z"/>
    <path fill="#3D559D" d="M47 48.447a4.859 4.859 0 0 1-4.55-3.153 4.858 4.858 0 1 0 9.098 0A4.859 4.859 0 0 1 47 48.447Z"/>
    <path fill="#405B6C" d="M48.423 17.18v-4.412a1.424 1.424 0 1 0-2.848 0v4.412a1.424 1.424 0 1 0 2.848 0Zm-2.848 59.64v4.412a1.424 1.424 0 1 0 2.848 0V76.82a1.424 1.424 0 0 0-2.848 0Zm35.657-28.396a1.424 1.424 0 1 0 0-2.848H76.82a1.424 1.424 0 0 0 0 2.848h4.41Zm-68.464-2.848a1.424 1.424 0 1 0 0 2.848h4.411a1.424 1.424 0 1 0 0-2.848h-4.411Z"/>
  </g>
  <defs>
    <clipPath id="a">
      <path fill="#fff" d="M0 0h94v94H0z"/>
    </clipPath>
  </defs>
</svg>
