<svg xmlns="http://www.w3.org/2000/svg" width="625" height="258" fill="none" viewBox="0 0 625 258">
  <path fill="#F6F7FA" stroke="#F6F7FA" d="M304.541 76.847c-8-4-18.333-23.666-22.5-33-5.462-11-2-15.5-1.5-19 .4-2.8 5.167-7.833 7.5-10 2.667-3 11.5-9.8 25.5-13 17.5-4 36 7 45.5 15.5 7.6 6.8 7.5 16.5 6.5 20.5-1.833 5.167-7.9 18.8-17.5 32-12 16.5-33.5 12-43.5 7Z"/>
  <path fill="#8D92A7" d="M9.398 179.04H5.806V189H3.942v-9.96h-3.6v-1.56h9.056v1.56Zm2.862 2.768a4.236 4.236 0 0 1 1.104-.792c.4-.203.867-.304 1.4-.304.448 0 .84.075 1.176.224.342.149.627.36.856.632.235.272.41.6.528.984.117.379.176.797.176 1.256V189h-1.712v-5.192c0-.549-.128-.976-.384-1.28-.25-.304-.634-.456-1.152-.456-.384 0-.741.088-1.072.264a3.695 3.695 0 0 0-.92.72V189h-1.72v-11.84h1.72v4.648Zm11.609 3.624c-.613.021-1.13.072-1.552.152-.421.075-.763.173-1.024.296-.261.117-.45.259-.568.424a.95.95 0 0 0-.168.544c0 .192.03.357.088.496.064.133.15.245.256.336.112.085.24.149.384.192.15.037.312.056.488.056.448 0 .832-.083 1.152-.248.325-.171.64-.416.944-.736v-1.512Zm-4.56-3.456c.923-.859 2.021-1.288 3.296-1.288.47 0 .885.077 1.248.232.368.149.675.363.92.64.25.277.44.608.568.992.133.379.2.8.2 1.264V189h-.768a.786.786 0 0 1-.376-.072c-.085-.053-.157-.157-.216-.312l-.168-.664a8.104 8.104 0 0 1-.616.504 3.947 3.947 0 0 1-.632.368 2.889 2.889 0 0 1-.696.224 3.87 3.87 0 0 1-.816.08c-.33 0-.64-.045-.928-.136a2.076 2.076 0 0 1-.736-.408 2.038 2.038 0 0 1-.496-.688 2.41 2.41 0 0 1-.176-.96c0-.315.083-.621.248-.92.17-.299.448-.565.832-.8.39-.24.899-.437 1.528-.592.635-.155 1.416-.243 2.344-.264v-.544c0-.587-.125-1.024-.376-1.312-.25-.288-.619-.432-1.104-.432-.33 0-.608.043-.832.128-.224.08-.419.168-.584.264a8.673 8.673 0 0 0-.44.272.757.757 0 0 1-.408.12.521.521 0 0 1-.304-.088.835.835 0 0 1-.2-.232l-.312-.56Zm9.855-.056c.176-.181.357-.344.544-.488.192-.149.395-.277.608-.384a3.23 3.23 0 0 1 .68-.248 3.28 3.28 0 0 1 .784-.088c.448 0 .84.075 1.176.224.341.149.627.36.856.632.235.272.41.6.528.984.117.379.176.797.176 1.256V189h-1.712v-5.192c0-.549-.128-.976-.384-1.28-.25-.304-.635-.456-1.152-.456-.384 0-.742.088-1.072.264a3.695 3.695 0 0 0-.92.72V189h-1.72v-8.16h1.04c.235 0 .384.109.448.328l.12.752Zm9.08-4.76v6.864h.369a.738.738 0 0 0 .288-.048.642.642 0 0 0 .232-.2l2.288-2.616a.844.844 0 0 1 .264-.24.756.756 0 0 1 .368-.08h1.56l-2.752 3.104c-.16.208-.336.373-.528.496.106.075.2.16.28.256.08.091.157.195.232.312L43.78 189h-1.536a.918.918 0 0 1-.36-.064.65.65 0 0 1-.256-.256l-2.36-3.2c-.08-.123-.16-.2-.24-.232a.895.895 0 0 0-.36-.056h-.424V189h-1.72v-11.84h1.72Zm17.458 3.68-4.496 10.48a.812.812 0 0 1-.216.288c-.08.069-.205.104-.376.104h-1.272l1.504-3.264-3.328-7.608h1.496c.144 0 .253.035.328.104.08.064.139.141.176.232l1.944 4.632c.048.133.09.267.128.4.043.128.083.261.12.4.043-.139.085-.275.128-.408a5.93 5.93 0 0 1 .144-.4l1.864-4.624a.54.54 0 0 1 .184-.24.502.502 0 0 1 .296-.096h1.376Zm4.413-.128c.603 0 1.147.099 1.632.296.49.197.907.477 1.248.84.347.363.613.803.8 1.32.187.517.28 1.099.28 1.744s-.093 1.227-.28 1.744c-.187.517-.453.96-.8 1.328a3.454 3.454 0 0 1-1.248.84 4.305 4.305 0 0 1-1.632.296 4.388 4.388 0 0 1-1.648-.296 3.545 3.545 0 0 1-1.248-.84 3.782 3.782 0 0 1-.8-1.328 5.112 5.112 0 0 1-.28-1.744c0-.645.093-1.227.28-1.744.187-.517.453-.957.8-1.32a3.545 3.545 0 0 1 1.248-.84 4.388 4.388 0 0 1 1.648-.296Zm0 7.064c.736 0 1.283-.245 1.64-.736.363-.496.544-1.203.544-2.12s-.181-1.624-.544-2.12c-.357-.501-.904-.752-1.64-.752-.747 0-1.301.251-1.664.752-.363.496-.544 1.203-.544 2.12s.181 1.624.544 2.12c.363.491.917.736 1.664.736Zm12.493-6.936V189h-1.04c-.23 0-.376-.109-.44-.328l-.128-.76a4.787 4.787 0 0 1-.544.496 3.193 3.193 0 0 1-1.288.632c-.24.059-.499.088-.776.088-.448 0-.843-.075-1.184-.224a2.385 2.385 0 0 1-.864-.632 2.759 2.759 0 0 1-.52-.976 4.31 4.31 0 0 1-.176-1.264v-5.192h1.72v5.192c0 .549.125.976.376 1.28.256.304.642.456 1.16.456.378 0 .73-.085 1.056-.256.33-.176.64-.416.928-.72v-5.952h1.72Zm6.625 8.16v-6.792l-.8-.112a.75.75 0 0 1-.328-.144c-.08-.069-.12-.168-.12-.296v-.704h1.248v-.688c0-.464.066-.88.2-1.248.138-.368.333-.68.584-.936a2.52 2.52 0 0 1 .928-.584c.363-.139.77-.208 1.224-.208a3.278 3.278 0 0 1 1.024.16l-.032.864c-.01.144-.083.229-.216.256a2.43 2.43 0 0 1-.488.04c-.24 0-.456.029-.648.088a1.146 1.146 0 0 0-.496.28 1.345 1.345 0 0 0-.312.528 2.74 2.74 0 0 0-.104.816v.632h2.232v1.24h-2.176V189h-1.72Zm8.413-8.288c.603 0 1.147.099 1.632.296.491.197.907.477 1.248.84.347.363.614.803.8 1.32.187.517.28 1.099.28 1.744s-.093 1.227-.28 1.744c-.186.517-.453.96-.8 1.328a3.452 3.452 0 0 1-1.248.84 4.304 4.304 0 0 1-1.632.296 4.389 4.389 0 0 1-1.648-.296 3.547 3.547 0 0 1-1.248-.84 3.783 3.783 0 0 1-.8-1.328 5.112 5.112 0 0 1-.28-1.744c0-.645.094-1.227.28-1.744.187-.517.454-.957.8-1.32a3.547 3.547 0 0 1 1.248-.84 4.389 4.389 0 0 1 1.648-.296Zm0 7.064c.736 0 1.283-.245 1.64-.736.363-.496.544-1.203.544-2.12s-.181-1.624-.544-2.12c-.357-.501-.904-.752-1.64-.752-.746 0-1.301.251-1.664.752-.362.496-.544 1.203-.544 2.12s.182 1.624.544 2.12c.363.491.918.736 1.664.736Zm7.237-5.424c.256-.517.565-.923.928-1.216.363-.299.797-.448 1.304-.448.176 0 .341.021.496.064.155.037.293.096.416.176l-.12 1.296c-.021.091-.056.155-.104.192a.287.287 0 0 1-.176.048c-.08 0-.195-.013-.344-.04a2.247 2.247 0 0 0-.472-.048c-.24 0-.453.035-.64.104a1.597 1.597 0 0 0-.496.304 2.095 2.095 0 0 0-.384.488 4.725 4.725 0 0 0-.312.656V189h-1.72v-8.16h1c.181 0 .307.035.376.104.07.064.117.179.144.344l.104 1.064Zm14.757-1.512-4.496 10.48a.82.82 0 0 1-.216.288c-.08.069-.206.104-.376.104h-1.272l1.504-3.264-3.328-7.608h1.496c.144 0 .253.035.328.104.08.064.138.141.176.232l1.944 4.632c.048.133.09.267.128.4.042.128.082.261.12.4.042-.139.085-.275.128-.408.042-.133.09-.267.144-.4l1.864-4.624a.533.533 0 0 1 .184-.24.5.5 0 0 1 .296-.096h1.376Zm4.413-.128a4.31 4.31 0 0 1 1.632.296c.49.197.906.477 1.248.84.346.363.613.803.8 1.32a5.13 5.13 0 0 1 .28 1.744 5.13 5.13 0 0 1-.28 1.744c-.187.517-.454.96-.8 1.328a3.464 3.464 0 0 1-1.248.84 4.31 4.31 0 0 1-1.632.296 4.386 4.386 0 0 1-1.648-.296 3.534 3.534 0 0 1-1.248-.84 3.769 3.769 0 0 1-.8-1.328c-.187-.517-.28-1.099-.28-1.744s.093-1.227.28-1.744a3.69 3.69 0 0 1 .8-1.32 3.534 3.534 0 0 1 1.248-.84 4.386 4.386 0 0 1 1.648-.296Zm0 7.064c.736 0 1.282-.245 1.64-.736.362-.496.544-1.203.544-2.12s-.182-1.624-.544-2.12c-.358-.501-.904-.752-1.64-.752-.747 0-1.302.251-1.664.752-.363.496-.544 1.203-.544 2.12s.181 1.624.544 2.12c.362.491.917.736 1.664.736Zm12.492-6.936V189h-1.04c-.229 0-.376-.109-.44-.328l-.128-.76c-.17.181-.352.347-.544.496a3.361 3.361 0 0 1-.6.384 3.24 3.24 0 0 1-1.464.336c-.448 0-.842-.075-1.184-.224a2.39 2.39 0 0 1-.864-.632 2.775 2.775 0 0 1-.52-.976 4.32 4.32 0 0 1-.176-1.264v-5.192h1.72v5.192c0 .549.126.976.376 1.28.256.304.643.456 1.16.456.379 0 .731-.085 1.056-.256.331-.176.64-.416.928-.72v-5.952h1.72Zm3.713 1.512c.256-.517.565-.923.928-1.216.363-.299.797-.448 1.304-.448.176 0 .341.021.496.064.155.037.293.096.416.176l-.12 1.296c-.021.091-.056.155-.104.192a.287.287 0 0 1-.176.048c-.08 0-.195-.013-.344-.04a2.248 2.248 0 0 0-.472-.048c-.24 0-.453.035-.64.104a1.596 1.596 0 0 0-.496.304 2.095 2.095 0 0 0-.384.488 4.725 4.725 0 0 0-.312.656V189h-1.72v-8.16h1c.181 0 .307.035.376.104.069.064.117.179.144.344l.104 1.064Zm11.451-1.64a4.31 4.31 0 0 1 1.632.296c.49.197.906.477 1.248.84.346.363.613.803.8 1.32a5.13 5.13 0 0 1 .28 1.744 5.13 5.13 0 0 1-.28 1.744c-.187.517-.454.96-.8 1.328a3.464 3.464 0 0 1-1.248.84 4.31 4.31 0 0 1-1.632.296 4.386 4.386 0 0 1-1.648-.296 3.534 3.534 0 0 1-1.248-.84 3.769 3.769 0 0 1-.8-1.328c-.187-.517-.28-1.099-.28-1.744s.093-1.227.28-1.744a3.69 3.69 0 0 1 .8-1.32 3.534 3.534 0 0 1 1.248-.84 4.386 4.386 0 0 1 1.648-.296Zm0 7.064c.736 0 1.282-.245 1.64-.736.362-.496.544-1.203.544-2.12s-.182-1.624-.544-2.12c-.358-.501-.904-.752-1.64-.752-.747 0-1.302.251-1.664.752-.363.496-.544 1.203-.544 2.12s.181 1.624.544 2.12c.362.491.917.736 1.664.736Zm7.236-5.424c.256-.517.566-.923.928-1.216.363-.299.798-.448 1.304-.448.176 0 .342.021.496.064.155.037.294.096.416.176l-.12 1.296c-.021.091-.056.155-.104.192a.285.285 0 0 1-.176.048c-.08 0-.194-.013-.344-.04a2.241 2.241 0 0 0-.472-.048c-.24 0-.453.035-.64.104a1.607 1.607 0 0 0-.496.304 2.095 2.095 0 0 0-.384.488 4.725 4.725 0 0 0-.312.656V189h-1.72v-8.16h1c.182 0 .307.035.376.104.07.064.118.179.144.344l.104 1.064Zm9.225.496c-.24-.309-.504-.525-.792-.648a2.358 2.358 0 0 0-.936-.184c-.672 0-1.197.248-1.576.744-.379.491-.568 1.219-.568 2.184 0 .501.043.931.128 1.288.085.352.208.64.368.864.16.224.355.387.584.488.229.101.488.152.776.152.437 0 .813-.093 1.128-.28.32-.192.616-.461.888-.808v-3.8Zm1.72-5.688V189h-1.04c-.229 0-.376-.109-.44-.328l-.152-.888a4.28 4.28 0 0 1-1.168.968c-.432.245-.936.368-1.512.368-.459 0-.875-.091-1.248-.272a2.734 2.734 0 0 1-.96-.808c-.267-.352-.475-.787-.624-1.304-.144-.523-.216-1.12-.216-1.792 0-.608.08-1.171.24-1.688.165-.517.4-.965.704-1.344a3.197 3.197 0 0 1 1.104-.896 3.221 3.221 0 0 1 1.464-.328c.48 0 .888.077 1.224.232.336.149.637.36.904.632v-4.392h1.72Zm7.455 6.84c0-.288-.042-.555-.128-.8-.08-.251-.2-.467-.36-.648a1.585 1.585 0 0 0-.6-.432 1.945 1.945 0 0 0-.816-.16c-.624 0-1.114.179-1.472.536-.357.357-.584.859-.68 1.504h4.056Zm-4.104 1.056c.022.464.094.867.216 1.208.123.336.286.616.488.84.208.224.454.392.736.504.288.107.608.16.96.16.336 0 .627-.037.872-.112a4.6 4.6 0 0 0 .64-.256c.182-.096.336-.181.464-.256a.679.679 0 0 1 .352-.12c.139 0 .246.053.32.16l.488.632c-.202.24-.432.443-.688.608a4.204 4.204 0 0 1-.816.408 4.64 4.64 0 0 1-.888.216 5.69 5.69 0 0 1-.888.072 4.35 4.35 0 0 1-1.576-.28 3.594 3.594 0 0 1-1.256-.84 3.943 3.943 0 0 1-.832-1.368c-.197-.544-.296-1.171-.296-1.88 0-.565.088-1.093.264-1.584.182-.491.438-.917.768-1.28a3.613 3.613 0 0 1 1.216-.856 3.966 3.966 0 0 1 1.624-.32c.502 0 .966.083 1.392.248.427.16.795.397 1.104.712.31.315.55.701.72 1.16.176.453.264.971.264 1.552 0 .267-.029.445-.088.536-.058.091-.165.136-.32.136h-5.24Zm8.876-2.704c.256-.517.566-.923.928-1.216.363-.299.798-.448 1.304-.448.176 0 .342.021.496.064.155.037.294.096.416.176l-.12 1.296c-.021.091-.056.155-.104.192a.285.285 0 0 1-.176.048c-.08 0-.194-.013-.344-.04a2.241 2.241 0 0 0-.472-.048c-.24 0-.453.035-.64.104a1.607 1.607 0 0 0-.496.304 2.095 2.095 0 0 0-.384.488 4.725 4.725 0 0 0-.312.656V189h-1.72v-8.16h1c.182 0 .307.035.376.104.07.064.118.179.144.344l.104 1.064Zm6.259-4.872v4.576c0 .48-.022.952-.064 1.416a42.57 42.57 0 0 1-.168 1.488h-1.16a31.037 31.037 0 0 1-.176-1.488 17.347 17.347 0 0 1-.056-1.416v-4.576h1.624Zm-1.952 10.528a1.092 1.092 0 0 1 .32-.792c.101-.101.218-.181.352-.24.133-.059.28-.088.44-.088.154 0 .298.029.432.088a1.124 1.124 0 0 1 .68 1.032 1.09 1.09 0 0 1-.328.792.95.95 0 0 1-.352.232 1.06 1.06 0 0 1-.432.088c-.16 0-.307-.029-.44-.088a1.028 1.028 0 0 1-.352-.232 1.123 1.123 0 0 1-.24-.352 1.16 1.16 0 0 1-.08-.44Zm12.702-3.52V189h-1.864v-4.512l-4.208-7.008h1.64c.165 0 .296.04.392.12.096.08.176.181.24.304l2.36 4.128c.106.208.202.405.288.592.09.187.17.371.24.552a4.15 4.15 0 0 1 .216-.552c.085-.187.181-.384.288-.592l2.344-4.128a.886.886 0 0 1 .232-.288.564.564 0 0 1 .392-.136h1.648l-4.208 7.008Zm6.958-3.776a4.31 4.31 0 0 1 1.632.296c.49.197.906.477 1.248.84.346.363.613.803.8 1.32a5.13 5.13 0 0 1 .28 1.744 5.13 5.13 0 0 1-.28 1.744c-.187.517-.454.96-.8 1.328a3.464 3.464 0 0 1-1.248.84 4.31 4.31 0 0 1-1.632.296 4.386 4.386 0 0 1-1.648-.296 3.534 3.534 0 0 1-1.248-.84 3.769 3.769 0 0 1-.8-1.328c-.187-.517-.28-1.099-.28-1.744s.093-1.227.28-1.744a3.69 3.69 0 0 1 .8-1.32 3.534 3.534 0 0 1 1.248-.84 4.386 4.386 0 0 1 1.648-.296Zm0 7.064c.736 0 1.282-.245 1.64-.736.362-.496.544-1.203.544-2.12s-.182-1.624-.544-2.12c-.358-.501-.904-.752-1.64-.752-.747 0-1.302.251-1.664.752-.363.496-.544 1.203-.544 2.12s.181 1.624.544 2.12c.362.491.917.736 1.664.736Zm12.492-6.936V189h-1.04c-.229 0-.376-.109-.44-.328l-.128-.76c-.17.181-.352.347-.544.496a3.361 3.361 0 0 1-.6.384 3.24 3.24 0 0 1-1.464.336c-.448 0-.842-.075-1.184-.224a2.39 2.39 0 0 1-.864-.632 2.775 2.775 0 0 1-.52-.976 4.32 4.32 0 0 1-.176-1.264v-5.192h1.72v5.192c0 .549.126.976.376 1.28.256.304.643.456 1.16.456.379 0 .731-.085 1.056-.256.331-.176.64-.416.928-.72v-5.952h1.72Zm3.713 1.512c.256-.517.566-.923.928-1.216.363-.299.798-.448 1.304-.448.176 0 .342.021.496.064.155.037.294.096.416.176l-.12 1.296c-.021.091-.056.155-.104.192a.285.285 0 0 1-.176.048c-.08 0-.194-.013-.344-.04a2.241 2.241 0 0 0-.472-.048c-.24 0-.453.035-.64.104a1.607 1.607 0 0 0-.496.304 2.095 2.095 0 0 0-.384.488 4.725 4.725 0 0 0-.312.656V189h-1.72v-8.16h1c.182 0 .307.035.376.104.07.064.118.179.144.344l.104 1.064Zm11.451-1.64c.603 0 1.147.099 1.632.296.491.197.907.477 1.248.84.347.363.613.803.8 1.32.187.517.28 1.099.28 1.744s-.093 1.227-.28 1.744c-.187.517-.453.96-.8 1.328a3.447 3.447 0 0 1-1.248.84 4.302 4.302 0 0 1-1.632.296 4.39 4.39 0 0 1-1.648-.296 3.552 3.552 0 0 1-1.248-.84 3.783 3.783 0 0 1-.8-1.328c-.187-.517-.28-1.099-.28-1.744s.093-1.227.28-1.744c.187-.517.453-.957.8-1.32a3.552 3.552 0 0 1 1.248-.84 4.39 4.39 0 0 1 1.648-.296Zm0 7.064c.736 0 1.283-.245 1.64-.736.363-.496.544-1.203.544-2.12s-.181-1.624-.544-2.12c-.357-.501-.904-.752-1.64-.752-.747 0-1.301.251-1.664.752-.363.496-.544 1.203-.544 2.12s.181 1.624.544 2.12c.363.491.917.736 1.664.736Zm7.237-5.424c.256-.517.565-.923.928-1.216.362-.299.797-.448 1.304-.448.176 0 .341.021.496.064.154.037.293.096.416.176l-.12 1.296c-.022.091-.056.155-.104.192a.29.29 0 0 1-.176.048c-.08 0-.195-.013-.344-.04a2.255 2.255 0 0 0-.472-.048c-.24 0-.454.035-.64.104a1.584 1.584 0 0 0-.496.304 2.095 2.095 0 0 0-.384.488 4.725 4.725 0 0 0-.312.656V189h-1.72v-8.16h1c.181 0 .306.035.376.104.069.064.117.179.144.344l.104 1.064Zm9.224.496c-.24-.309-.504-.525-.792-.648a2.358 2.358 0 0 0-.936-.184c-.672 0-1.197.248-1.576.744-.378.491-.568 1.219-.568 2.184 0 .501.043.931.128 1.288.086.352.208.64.368.864.16.224.355.387.584.488.23.101.488.152.776.152.438 0 .814-.093 1.128-.28.32-.192.616-.461.888-.808v-3.8Zm1.72-5.688V189h-1.04c-.229 0-.376-.109-.44-.328l-.152-.888c-.341.4-.73.723-1.168.968-.432.245-.936.368-1.512.368-.458 0-.874-.091-1.248-.272a2.734 2.734 0 0 1-.96-.808c-.266-.352-.474-.787-.624-1.304-.144-.523-.216-1.12-.216-1.792 0-.608.08-1.171.24-1.688.166-.517.4-.965.704-1.344a3.197 3.197 0 0 1 1.104-.896 3.227 3.227 0 0 1 1.464-.328c.48 0 .888.077 1.224.232.336.149.638.36.904.632v-4.392h1.72Zm7.456 6.84c0-.288-.043-.555-.128-.8-.08-.251-.2-.467-.36-.648a1.585 1.585 0 0 0-.6-.432 1.951 1.951 0 0 0-.816-.16c-.624 0-1.115.179-1.472.536-.358.357-.584.859-.68 1.504h4.056Zm-4.104 1.056c.021.464.093.867.216 1.208.122.336.285.616.488.84.208.224.453.392.736.504.288.107.608.16.96.16.336 0 .626-.037.872-.112.245-.08.458-.165.64-.256.181-.096.336-.181.464-.256a.676.676 0 0 1 .352-.12c.138 0 .245.053.32.16l.488.632c-.203.24-.432.443-.688.608a4.204 4.204 0 0 1-.816.408 4.64 4.64 0 0 1-.888.216 5.69 5.69 0 0 1-.888.072 4.342 4.342 0 0 1-1.576-.28 3.585 3.585 0 0 1-1.256-.84 3.928 3.928 0 0 1-.832-1.368c-.198-.544-.296-1.171-.296-1.88 0-.565.088-1.093.264-1.584.181-.491.437-.917.768-1.28a3.603 3.603 0 0 1 1.216-.856 3.962 3.962 0 0 1 1.624-.32c.501 0 .965.083 1.392.248.426.16.794.397 1.104.712.309.315.549.701.72 1.16.176.453.264.971.264 1.552 0 .267-.03.445-.088.536-.059.091-.166.136-.32.136h-5.24Zm8.876-2.704c.256-.517.565-.923.928-1.216.362-.299.797-.448 1.304-.448.176 0 .341.021.496.064.154.037.293.096.416.176l-.12 1.296c-.022.091-.056.155-.104.192a.29.29 0 0 1-.176.048c-.08 0-.195-.013-.344-.04a2.255 2.255 0 0 0-.472-.048c-.24 0-.454.035-.64.104a1.584 1.584 0 0 0-.496.304 2.095 2.095 0 0 0-.384.488 4.725 4.725 0 0 0-.312.656V189h-1.72v-8.16h1c.181 0 .306.035.376.104.069.064.117.179.144.344l.104 1.064Zm9.714-1.512V189h-1.72v-8.16h1.72Zm.288-2.464c0 .155-.032.301-.096.44a1.133 1.133 0 0 1-.248.368 1.315 1.315 0 0 1-.376.248 1.13 1.13 0 0 1-.448.088c-.154 0-.301-.029-.44-.088a1.294 1.294 0 0 1-.352-.248 1.36 1.36 0 0 1-.248-.368 1.151 1.151 0 0 1 0-.888 1.234 1.234 0 0 1 .6-.608 1.04 1.04 0 0 1 .44-.096c.16 0 .31.032.448.096.144.059.27.141.376.248.107.101.19.221.248.36.064.139.096.288.096.448Zm6.746 3.944a.43.43 0 0 1-.144.16.385.385 0 0 1-.2.048.669.669 0 0 1-.296-.08 7.47 7.47 0 0 0-.376-.192 2.987 2.987 0 0 0-.512-.184 2.329 2.329 0 0 0-.68-.088c-.214 0-.408.027-.584.08-.171.048-.318.12-.44.216a.94.94 0 0 0-.272.328.853.853 0 0 0-.096.4.68.68 0 0 0 .176.48c.117.128.272.24.464.336.192.091.41.173.656.248.245.075.496.155.752.24.256.085.506.184.752.296.245.112.464.251.656.416.192.16.346.357.464.592.117.229.176.509.176.84 0 .384-.07.739-.208 1.064a2.405 2.405 0 0 1-.608.848c-.267.24-.6.427-1 .56-.395.133-.848.2-1.36.2a4.21 4.21 0 0 1-.824-.08 4.881 4.881 0 0 1-.752-.2 4.473 4.473 0 0 1-.664-.32 3.59 3.59 0 0 1-.544-.4l.4-.656a.49.49 0 0 1 .448-.256c.112 0 .221.037.328.112.112.069.24.147.384.232.149.085.328.165.536.24.208.069.466.104.776.104.256 0 .477-.029.664-.088.186-.064.341-.149.464-.256a1.04 1.04 0 0 0 .272-.36 1.13 1.13 0 0 0 .088-.44.748.748 0 0 0-.176-.512 1.498 1.498 0 0 0-.472-.344 4.17 4.17 0 0 0-.664-.256 32.019 32.019 0 0 1-.752-.24 8.116 8.116 0 0 1-.76-.296 2.733 2.733 0 0 1-.664-.424 2.042 2.042 0 0 1-.464-.632c-.118-.251-.176-.555-.176-.912 0-.325.064-.635.192-.928.133-.293.325-.552.576-.776a2.8 2.8 0 0 1 .936-.528c.373-.133.802-.2 1.288-.2.549 0 1.048.088 1.496.264.448.176.824.416 1.128.72l-.384.624Zm7.816 4.632c.24.309.502.528.784.656.288.123.6.184.936.184.678 0 1.206-.245 1.584-.736.379-.491.568-1.251.568-2.28 0-.939-.165-1.624-.496-2.056-.325-.432-.792-.648-1.4-.648-.421 0-.789.096-1.104.288-.309.187-.6.456-.872.808v3.784Zm0-5.032a4.123 4.123 0 0 1 1.128-.88c.416-.219.891-.328 1.424-.328.475 0 .902.093 1.28.28.384.181.71.445.976.792.267.347.472.768.616 1.264.144.491.216 1.045.216 1.664a6.18 6.18 0 0 1-.248 1.808 4.154 4.154 0 0 1-.696 1.392 3.197 3.197 0 0 1-1.104.896 3.293 3.293 0 0 1-1.448.312 2.96 2.96 0 0 1-.712-.08 2.386 2.386 0 0 1-.592-.216 2.753 2.753 0 0 1-.504-.344 3.942 3.942 0 0 1-.432-.456l-.072.632c-.026.123-.074.211-.144.264a.463.463 0 0 1-.288.08h-1.12v-11.84h1.72v4.76Zm12.664 2.08c0-.288-.043-.555-.128-.8-.08-.251-.2-.467-.36-.648a1.585 1.585 0 0 0-.6-.432 1.951 1.951 0 0 0-.816-.16c-.624 0-1.115.179-1.472.536-.358.357-.584.859-.68 1.504h4.056Zm-4.104 1.056c.021.464.093.867.216 1.208.122.336.285.616.488.84.208.224.453.392.736.504.288.107.608.16.96.16.336 0 .626-.037.872-.112.245-.08.458-.165.64-.256.181-.096.336-.181.464-.256a.676.676 0 0 1 .352-.12c.138 0 .245.053.32.16l.488.632c-.203.24-.432.443-.688.608a4.204 4.204 0 0 1-.816.408 4.64 4.64 0 0 1-.888.216 5.69 5.69 0 0 1-.888.072 4.342 4.342 0 0 1-1.576-.28 3.585 3.585 0 0 1-1.256-.84 3.928 3.928 0 0 1-.832-1.368c-.198-.544-.296-1.171-.296-1.88 0-.565.088-1.093.264-1.584.181-.491.437-.917.768-1.28a3.603 3.603 0 0 1 1.216-.856 3.962 3.962 0 0 1 1.624-.32c.501 0 .965.083 1.392.248.426.16.794.397 1.104.712.309.315.549.701.72 1.16.176.453.264.971.264 1.552 0 .267-.03.445-.088.536-.059.091-.166.136-.32.136h-5.24Zm9.044-4.216V189h-1.72v-8.16h1.72Zm.288-2.464c0 .155-.032.301-.096.44a1.165 1.165 0 0 1-.248.368 1.329 1.329 0 0 1-.376.248 1.133 1.133 0 0 1-.448.088c-.155 0-.302-.029-.44-.088a1.264 1.264 0 0 1-.352-.248 1.338 1.338 0 0 1-.248-.368 1.112 1.112 0 0 1-.088-.44c0-.16.029-.309.088-.448.064-.139.146-.259.248-.36.101-.107.218-.189.352-.248.138-.064.285-.096.44-.096.16 0 .309.032.448.096.144.059.269.141.376.248.106.101.189.221.248.36.064.139.096.288.096.448Zm3.481 3.544c.176-.181.357-.344.544-.488.192-.149.394-.277.608-.384.213-.107.44-.189.68-.248.24-.059.501-.088.784-.088.448 0 .84.075 1.176.224.341.149.626.36.856.632.234.272.41.6.528.984.117.379.176.797.176 1.256V189h-1.712v-5.192c0-.549-.128-.976-.384-1.28-.251-.304-.635-.456-1.152-.456-.384 0-.742.088-1.072.264a3.682 3.682 0 0 0-.92.72V189h-1.72v-8.16h1.04c.234 0 .384.109.448.328l.12.752Zm10.272 2.928c.534 0 .934-.136 1.2-.408.267-.272.4-.627.4-1.064 0-.448-.133-.803-.4-1.064-.266-.261-.666-.392-1.2-.392-.528 0-.928.131-1.2.392-.266.261-.4.616-.4 1.064 0 .213.035.411.104.592.07.181.171.339.304.472.134.128.299.229.496.304.203.069.435.104.696.104Zm2.392 4.552a.583.583 0 0 0-.16-.432.955.955 0 0 0-.416-.256 2.715 2.715 0 0 0-.616-.136 8 8 0 0 0-.752-.064c-.261-.016-.53-.029-.808-.04a9.39 9.39 0 0 1-.792-.08 2.17 2.17 0 0 0-.632.48.967.967 0 0 0-.24.648c0 .16.04.309.12.448.086.139.214.259.384.36.176.101.398.181.664.24.272.059.598.088.976.088.758 0 1.326-.117 1.704-.352.379-.235.568-.536.568-.904Zm1.728-8.264v.64c0 .213-.128.344-.384.392l-.816.136c.139.309.208.653.208 1.032 0 .4-.08.763-.24 1.088-.154.325-.37.603-.648.832a2.95 2.95 0 0 1-.992.528 4.07 4.07 0 0 1-1.248.184 5.25 5.25 0 0 1-.504-.024 6.542 6.542 0 0 1-.472-.08 1.15 1.15 0 0 0-.344.288.524.524 0 0 0-.112.312.42.42 0 0 0 .232.392c.155.085.358.147.608.184.256.037.547.061.872.072.326.011.656.029.992.056.336.027.667.072.992.136.326.059.614.16.864.304.256.139.462.328.616.568.155.24.232.552.232.936a2.2 2.2 0 0 1-.264 1.032 2.756 2.756 0 0 1-.768.896c-.33.261-.736.469-1.216.624-.48.16-1.026.24-1.64.24a6.417 6.417 0 0 1-1.592-.176 3.708 3.708 0 0 1-1.128-.48 2.071 2.071 0 0 1-.672-.688 1.667 1.667 0 0 1-.216-.816c0-.384.12-.712.36-.984.246-.272.576-.485.992-.64a1.432 1.432 0 0 1-.544-.44c-.133-.187-.2-.432-.2-.736 0-.24.088-.491.264-.752.176-.261.44-.483.792-.664a2.619 2.619 0 0 1-.96-.888c-.234-.373-.352-.808-.352-1.304 0-.405.078-.771.232-1.096.16-.325.382-.603.664-.832a3.05 3.05 0 0 1 1-.528 4.21 4.21 0 0 1 1.272-.184c.704 0 1.318.147 1.84.44h2.28Zm7.063 5.816c.24.309.502.528.784.656.288.123.606.184.952.184.672 0 1.195-.245 1.568-.736.379-.491.568-1.221.568-2.192 0-.501-.042-.928-.128-1.28-.085-.357-.208-.648-.368-.872a1.412 1.412 0 0 0-.584-.488 1.905 1.905 0 0 0-.776-.152c-.437 0-.816.096-1.136.288a3.193 3.193 0 0 0-.88.808v3.784Zm-.088-4.928c.342-.4.728-.723 1.16-.968.438-.245.944-.368 1.52-.368.459 0 .875.093 1.248.28.374.181.694.448.96.8.267.352.472.789.616 1.312.15.517.224 1.112.224 1.784 0 .603-.082 1.165-.248 1.688-.16.517-.392.968-.696 1.352a3.327 3.327 0 0 1-1.104.896c-.432.213-.92.32-1.464.32-.48 0-.888-.077-1.224-.232a3.194 3.194 0 0 1-.904-.64v3.464h-1.72V180.84h1.04c.235 0 .384.109.448.328l.144.856Zm9.024.328c.256-.517.565-.923.928-1.216.362-.299.797-.448 1.304-.448.176 0 .341.021.496.064.154.037.293.096.416.176l-.12 1.296c-.022.091-.056.155-.104.192a.29.29 0 0 1-.176.048c-.08 0-.195-.013-.344-.04a2.255 2.255 0 0 0-.472-.048c-.24 0-.454.035-.64.104a1.584 1.584 0 0 0-.496.304 2.095 2.095 0 0 0-.384.488 4.725 4.725 0 0 0-.312.656V189h-1.72v-8.16h1c.181 0 .306.035.376.104.069.064.117.179.144.344l.104 1.064Zm7.529-1.64a4.31 4.31 0 0 1 1.632.296c.49.197.906.477 1.248.84.346.363.613.803.8 1.32a5.13 5.13 0 0 1 .28 1.744 5.13 5.13 0 0 1-.28 1.744c-.187.517-.454.96-.8 1.328a3.464 3.464 0 0 1-1.248.84 4.31 4.31 0 0 1-1.632.296 4.386 4.386 0 0 1-1.648-.296 3.534 3.534 0 0 1-1.248-.84 3.769 3.769 0 0 1-.8-1.328c-.187-.517-.28-1.099-.28-1.744s.093-1.227.28-1.744a3.69 3.69 0 0 1 .8-1.32 3.534 3.534 0 0 1 1.248-.84 4.386 4.386 0 0 1 1.648-.296Zm0 7.064c.736 0 1.282-.245 1.64-.736.362-.496.544-1.203.544-2.12s-.182-1.624-.544-2.12c-.358-.501-.904-.752-1.64-.752-.747 0-1.302.251-1.664.752-.363.496-.544 1.203-.544 2.12s.181 1.624.544 2.12c.362.491.917.736 1.664.736Zm11.38-5.336a.878.878 0 0 1-.152.16.335.335 0 0 1-.208.056.547.547 0 0 1-.288-.096 4.467 4.467 0 0 0-.352-.208 2.461 2.461 0 0 0-.488-.216 2.306 2.306 0 0 0-.72-.096 2.29 2.29 0 0 0-.984.2 1.927 1.927 0 0 0-.704.576 2.594 2.594 0 0 0-.424.904c-.09.352-.136.749-.136 1.192 0 .459.051.867.152 1.224.102.357.246.659.432.904.192.245.422.432.688.56.272.128.576.192.912.192.331 0 .6-.04.808-.12.208-.08.382-.168.52-.264.139-.096.256-.184.352-.264a.51.51 0 0 1 .32-.12c.139 0 .246.053.32.16l.488.632a3.18 3.18 0 0 1-.656.608c-.24.165-.493.301-.76.408a4.005 4.005 0 0 1-.832.216 5.29 5.29 0 0 1-.872.072c-.506 0-.981-.093-1.424-.28a3.45 3.45 0 0 1-1.152-.824 4.088 4.088 0 0 1-.776-1.32c-.186-.523-.28-1.117-.28-1.784 0-.603.086-1.16.256-1.672.171-.517.419-.963.744-1.336a3.406 3.406 0 0 1 1.224-.872c.486-.213 1.046-.32 1.68-.32.592 0 1.112.096 1.56.288a3.77 3.77 0 0 1 1.208.816l-.456.624Zm7.131 1.56c0-.288-.042-.555-.128-.8-.08-.251-.2-.467-.36-.648a1.585 1.585 0 0 0-.6-.432 1.945 1.945 0 0 0-.816-.16c-.624 0-1.114.179-1.472.536-.357.357-.584.859-.68 1.504h4.056Zm-4.104 1.056c.022.464.094.867.216 1.208.123.336.286.616.488.84.208.224.454.392.736.504.288.107.608.16.96.16.336 0 .627-.037.872-.112a4.6 4.6 0 0 0 .64-.256c.182-.096.336-.181.464-.256a.679.679 0 0 1 .352-.12c.139 0 .246.053.32.16l.488.632c-.202.24-.432.443-.688.608a4.204 4.204 0 0 1-.816.408 4.64 4.64 0 0 1-.888.216 5.69 5.69 0 0 1-.888.072 4.35 4.35 0 0 1-1.576-.28 3.594 3.594 0 0 1-1.256-.84 3.943 3.943 0 0 1-.832-1.368c-.197-.544-.296-1.171-.296-1.88 0-.565.088-1.093.264-1.584.182-.491.438-.917.768-1.28a3.613 3.613 0 0 1 1.216-.856 3.966 3.966 0 0 1 1.624-.32c.502 0 .966.083 1.392.248.427.16.795.397 1.104.712.31.315.55.701.72 1.16.176.453.264.971.264 1.552 0 .267-.029.445-.088.536-.058.091-.165.136-.32.136h-5.24Zm12.124-2.736a.414.414 0 0 1-.144.16.382.382 0 0 1-.2.048.676.676 0 0 1-.296-.08 7.062 7.062 0 0 0-.376-.192 2.956 2.956 0 0 0-.512-.184 2.324 2.324 0 0 0-.68-.088c-.213 0-.408.027-.584.08-.17.048-.317.12-.44.216a.952.952 0 0 0-.272.328.853.853 0 0 0-.096.4c0 .192.059.352.176.48.118.128.272.24.464.336.192.091.411.173.656.248.246.075.496.155.752.24.256.085.507.184.752.296.246.112.464.251.656.416.192.16.347.357.464.592.118.229.176.509.176.84 0 .384-.069.739-.208 1.064a2.38 2.38 0 0 1-.608.848c-.266.24-.6.427-1 .56a4.25 4.25 0 0 1-1.36.2c-.282 0-.557-.027-.824-.08a4.912 4.912 0 0 1-.752-.2 4.522 4.522 0 0 1-.664-.32 3.642 3.642 0 0 1-.544-.4l.4-.656a.495.495 0 0 1 .448-.256c.112 0 .222.037.328.112.112.069.24.147.384.232.15.085.328.165.536.24.208.069.467.104.776.104.256 0 .478-.029.664-.088.187-.064.342-.149.464-.256.123-.107.214-.227.272-.36.059-.139.088-.285.088-.44a.743.743 0 0 0-.176-.512 1.475 1.475 0 0 0-.472-.344 4.133 4.133 0 0 0-.664-.256 33.593 33.593 0 0 1-.752-.24 8.225 8.225 0 0 1-.76-.296 2.772 2.772 0 0 1-.664-.424 2.058 2.058 0 0 1-.464-.632c-.117-.251-.176-.555-.176-.912 0-.325.064-.635.192-.928.134-.293.326-.552.576-.776a2.8 2.8 0 0 1 .936-.528c.374-.133.803-.2 1.288-.2.55 0 1.048.088 1.496.264.448.176.824.416 1.128.72l-.384.624Zm6.985 0a.43.43 0 0 1-.144.16.385.385 0 0 1-.2.048.669.669 0 0 1-.296-.08 7.47 7.47 0 0 0-.376-.192 2.987 2.987 0 0 0-.512-.184 2.329 2.329 0 0 0-.68-.088c-.214 0-.408.027-.584.08-.171.048-.318.12-.44.216a.94.94 0 0 0-.272.328.853.853 0 0 0-.096.4.68.68 0 0 0 .176.48c.117.128.272.24.464.336.192.091.41.173.656.248.245.075.496.155.752.24.256.085.506.184.752.296.245.112.464.251.656.416.192.16.346.357.464.592.117.229.176.509.176.84 0 .384-.07.739-.208 1.064a2.405 2.405 0 0 1-.608.848c-.267.24-.6.427-1 .56-.395.133-.848.2-1.36.2a4.21 4.21 0 0 1-.824-.08 4.881 4.881 0 0 1-.752-.2 4.473 4.473 0 0 1-.664-.32 3.59 3.59 0 0 1-.544-.4l.4-.656a.49.49 0 0 1 .448-.256c.112 0 .221.037.328.112.112.069.24.147.384.232.149.085.328.165.536.24.208.069.466.104.776.104.256 0 .477-.029.664-.088.186-.064.341-.149.464-.256a1.04 1.04 0 0 0 .272-.36 1.13 1.13 0 0 0 .088-.44.748.748 0 0 0-.176-.512 1.498 1.498 0 0 0-.472-.344 4.17 4.17 0 0 0-.664-.256 32.019 32.019 0 0 1-.752-.24 8.116 8.116 0 0 1-.76-.296 2.733 2.733 0 0 1-.664-.424 2.042 2.042 0 0 1-.464-.632c-.118-.251-.176-.555-.176-.912 0-.325.064-.635.192-.928.133-.293.325-.552.576-.776a2.8 2.8 0 0 1 .936-.528c.373-.133.802-.2 1.288-.2.549 0 1.048.088 1.496.264.448.176.824.416 1.128.72l-.384.624Zm7.464 1.68c0-.288-.043-.555-.128-.8-.08-.251-.2-.467-.36-.648a1.585 1.585 0 0 0-.6-.432 1.951 1.951 0 0 0-.816-.16c-.624 0-1.115.179-1.472.536-.357.357-.584.859-.68 1.504h4.056Zm-4.104 1.056c.021.464.093.867.216 1.208.123.336.285.616.488.84.208.224.453.392.736.504.288.107.608.16.96.16.336 0 .627-.037.872-.112a4.65 4.65 0 0 0 .64-.256c.181-.096.336-.181.464-.256a.676.676 0 0 1 .352-.12c.139 0 .245.053.32.16l.488.632c-.203.24-.432.443-.688.608a4.204 4.204 0 0 1-.816.408 4.64 4.64 0 0 1-.888.216 5.69 5.69 0 0 1-.888.072 4.346 4.346 0 0 1-1.576-.28 3.585 3.585 0 0 1-1.256-.84 3.943 3.943 0 0 1-.832-1.368c-.197-.544-.296-1.171-.296-1.88 0-.565.088-1.093.264-1.584.181-.491.437-.917.768-1.28a3.603 3.603 0 0 1 1.216-.856 3.962 3.962 0 0 1 1.624-.32c.501 0 .965.083 1.392.248.427.16.795.397 1.104.712.309.315.549.701.72 1.16.176.453.264.971.264 1.552 0 .267-.029.445-.088.536-.059.091-.165.136-.32.136h-5.24Zm12.46-2.208c-.24-.309-.504-.525-.792-.648a2.358 2.358 0 0 0-.936-.184c-.672 0-1.197.248-1.576.744-.379.491-.568 1.219-.568 2.184 0 .501.043.931.128 1.288.085.352.208.64.368.864.16.224.355.387.584.488.229.101.488.152.776.152.437 0 .813-.093 1.128-.28.32-.192.616-.461.888-.808v-3.8Zm1.72-5.688V189h-1.04c-.229 0-.376-.109-.44-.328l-.152-.888a4.28 4.28 0 0 1-1.168.968c-.432.245-.936.368-1.512.368-.459 0-.875-.091-1.248-.272a2.734 2.734 0 0 1-.96-.808c-.267-.352-.475-.787-.624-1.304-.144-.523-.216-1.12-.216-1.792 0-.608.08-1.171.24-1.688.165-.517.4-.965.704-1.344a3.197 3.197 0 0 1 1.104-.896 3.221 3.221 0 0 1 1.464-.328c.48 0 .888.077 1.224.232.336.149.637.36.904.632v-4.392h1.72Zm10.448 8.272c-.614.021-1.131.072-1.552.152-.422.075-.763.173-1.024.296-.262.117-.451.259-.568.424a.95.95 0 0 0-.168.544c0 .192.029.357.088.496.064.133.149.245.256.336.112.085.24.149.384.192.149.037.312.056.488.056.448 0 .832-.083 1.152-.248.325-.171.64-.416.944-.736v-1.512Zm-4.56-3.456c.922-.859 2.021-1.288 3.296-1.288.469 0 .885.077 1.248.232.368.149.674.363.92.64.25.277.44.608.568.992.133.379.2.8.2 1.264V189h-.768c-.166 0-.291-.024-.376-.072-.086-.053-.158-.157-.216-.312l-.168-.664a8.244 8.244 0 0 1-.616.504 3.996 3.996 0 0 1-.632.368 2.909 2.909 0 0 1-.696.224 3.88 3.88 0 0 1-.816.08c-.331 0-.64-.045-.928-.136a2.072 2.072 0 0 1-.736-.408 2.029 2.029 0 0 1-.496-.688 2.398 2.398 0 0 1-.176-.96c0-.315.082-.621.248-.92.17-.299.448-.565.832-.8.389-.24.898-.437 1.528-.592.634-.155 1.416-.243 2.344-.264v-.544c0-.587-.126-1.024-.376-1.312-.251-.288-.619-.432-1.104-.432-.331 0-.608.043-.832.128-.224.08-.419.168-.584.264a8.371 8.371 0 0 0-.44.272.757.757 0 0 1-.408.12.519.519 0 0 1-.304-.088.828.828 0 0 1-.2-.232l-.312-.56Zm9.854-.056c.176-.181.358-.344.544-.488.192-.149.395-.277.608-.384.214-.107.44-.189.68-.248.24-.059.502-.088.784-.088.448 0 .84.075 1.176.224.342.149.627.36.856.632.235.272.411.6.528.984.118.379.176.797.176 1.256V189h-1.712v-5.192c0-.549-.128-.976-.384-1.28-.25-.304-.634-.456-1.152-.456-.384 0-.741.088-1.072.264a3.7 3.7 0 0 0-.92.72V189h-1.72v-8.16h1.04c.235 0 .384.109.448.328l.12.752Zm12.569.928c-.24-.309-.504-.525-.792-.648a2.358 2.358 0 0 0-.936-.184c-.672 0-1.197.248-1.576.744-.378.491-.568 1.219-.568 2.184 0 .501.043.931.128 1.288.086.352.208.64.368.864.16.224.355.387.584.488.23.101.488.152.776.152.438 0 .814-.093 1.128-.28.32-.192.616-.461.888-.808v-3.8Zm1.72-5.688V189h-1.04c-.229 0-.376-.109-.44-.328l-.152-.888c-.341.4-.73.723-1.168.968-.432.245-.936.368-1.512.368-.458 0-.874-.091-1.248-.272a2.734 2.734 0 0 1-.96-.808c-.266-.352-.474-.787-.624-1.304-.144-.523-.216-1.12-.216-1.792 0-.608.08-1.171.24-1.688.166-.517.4-.965.704-1.344a3.197 3.197 0 0 1 1.104-.896 3.227 3.227 0 0 1 1.464-.328c.48 0 .888.077 1.224.232.336.149.638.36.904.632v-4.392h1.72Zm17.224 3.68-2.616 8.16h-1.368c-.16 0-.272-.104-.336-.312l-1.624-5.08a11.592 11.592 0 0 1-.12-.432 12.864 12.864 0 0 1-.088-.424c-.059.288-.131.576-.216.864l-1.648 5.072c-.059.208-.184.312-.376.312h-1.304l-2.616-8.16h1.36c.133 0 .242.035.328.104.09.064.149.141.176.232l1.36 4.752c.053.219.098.432.136.64.042.203.08.405.112.608a54.195 54.195 0 0 1 .352-1.248l1.528-4.776a.417.417 0 0 1 .16-.232.49.49 0 0 1 .304-.096h.752c.122 0 .226.032.312.096a.411.411 0 0 1 .168.232l1.488 4.776c.064.219.122.432.176.64.058.208.112.416.16.624.037-.203.077-.408.12-.616.042-.208.093-.424.152-.648l1.384-4.752a.484.484 0 0 1 .176-.24.504.504 0 0 1 .312-.096h1.296Zm3.046 0V189h-1.72v-8.16h1.72Zm.288-2.464c0 .155-.032.301-.096.44a1.133 1.133 0 0 1-.248.368 1.315 1.315 0 0 1-.376.248 1.13 1.13 0 0 1-.448.088c-.154 0-.301-.029-.44-.088a1.294 1.294 0 0 1-.352-.248 1.36 1.36 0 0 1-.248-.368 1.151 1.151 0 0 1 0-.888 1.234 1.234 0 0 1 .6-.608 1.04 1.04 0 0 1 .44-.096c.16 0 .31.032.448.096.144.059.27.141.376.248.107.101.19.221.248.36.064.139.096.288.096.448Zm3.626-1.216V189h-1.72v-11.84h1.72Zm3.875 0V189h-1.72v-11.84h1.72Zm7.827 9.792c.24.309.501.528.784.656.288.123.6.184.936.184.677 0 1.205-.245 1.584-.736s.568-1.251.568-2.28c0-.939-.165-1.624-.496-2.056-.325-.432-.792-.648-1.4-.648-.421 0-.789.096-1.104.288-.309.187-.6.456-.872.808v3.784Zm0-5.032a4.123 4.123 0 0 1 1.128-.88c.416-.219.891-.328 1.424-.328.475 0 .901.093 1.28.28.384.181.709.445.976.792.267.347.472.768.616 1.264.144.491.216 1.045.216 1.664 0 .661-.083 1.264-.248 1.808a4.154 4.154 0 0 1-.696 1.392 3.197 3.197 0 0 1-1.104.896 3.296 3.296 0 0 1-1.448.312c-.261 0-.499-.027-.712-.08a2.371 2.371 0 0 1-.592-.216 2.753 2.753 0 0 1-.504-.344 3.942 3.942 0 0 1-.432-.456l-.072.632c-.027.123-.075.211-.144.264a.463.463 0 0 1-.288.08h-1.12v-11.84h1.72v4.76Zm12.663 2.08c0-.288-.042-.555-.128-.8-.08-.251-.2-.467-.36-.648a1.585 1.585 0 0 0-.6-.432 1.945 1.945 0 0 0-.816-.16c-.624 0-1.114.179-1.472.536-.357.357-.584.859-.68 1.504h4.056Zm-4.104 1.056c.022.464.094.867.216 1.208.123.336.286.616.488.84.208.224.454.392.736.504.288.107.608.16.96.16.336 0 .627-.037.872-.112a4.6 4.6 0 0 0 .64-.256c.182-.096.336-.181.464-.256a.679.679 0 0 1 .352-.12c.139 0 .246.053.32.16l.488.632c-.202.24-.432.443-.688.608a4.204 4.204 0 0 1-.816.408 4.64 4.64 0 0 1-.888.216 5.69 5.69 0 0 1-.888.072 4.35 4.35 0 0 1-1.576-.28 3.594 3.594 0 0 1-1.256-.84 3.943 3.943 0 0 1-.832-1.368c-.197-.544-.296-1.171-.296-1.88 0-.565.088-1.093.264-1.584.182-.491.438-.917.768-1.28a3.613 3.613 0 0 1 1.216-.856 3.966 3.966 0 0 1 1.624-.32c.502 0 .966.083 1.392.248.427.16.795.397 1.104.712.31.315.55.701.72 1.16.176.453.264.971.264 1.552 0 .267-.029.445-.088.536-.058.091-.165.136-.32.136h-5.24Zm17.005-2.616a.913.913 0 0 1-.152.16.337.337 0 0 1-.208.056.542.542 0 0 1-.288-.096 4.659 4.659 0 0 0-.352-.208 2.488 2.488 0 0 0-.488-.216 2.306 2.306 0 0 0-.72-.096c-.374 0-.702.067-.984.2a1.92 1.92 0 0 0-.704.576 2.576 2.576 0 0 0-.424.904 4.77 4.77 0 0 0-.136 1.192c0 .459.05.867.152 1.224.101.357.245.659.432.904.192.245.421.432.688.56.272.128.576.192.912.192.33 0 .6-.04.808-.12.208-.08.381-.168.52-.264.138-.096.256-.184.352-.264a.508.508 0 0 1 .32-.12c.138 0 .245.053.32.16l.488.632c-.198.24-.416.443-.656.608-.24.165-.494.301-.76.408a4.022 4.022 0 0 1-.832.216 5.298 5.298 0 0 1-.872.072c-.507 0-.982-.093-1.424-.28a3.43 3.43 0 0 1-1.152-.824 4.07 4.07 0 0 1-.776-1.32c-.187-.523-.28-1.117-.28-1.784 0-.603.085-1.16.256-1.672.17-.517.418-.963.744-1.336.33-.373.738-.664 1.224-.872.485-.213 1.045-.32 1.68-.32.592 0 1.112.096 1.56.288.453.192.856.464 1.208.816l-.456.624Zm5.306-1.728c.603 0 1.147.099 1.632.296.491.197.907.477 1.248.84.347.363.614.803.8 1.32.187.517.28 1.099.28 1.744s-.093 1.227-.28 1.744c-.186.517-.453.96-.8 1.328a3.447 3.447 0 0 1-1.248.84 4.302 4.302 0 0 1-1.632.296 4.39 4.39 0 0 1-1.648-.296 3.552 3.552 0 0 1-1.248-.84 3.798 3.798 0 0 1-.8-1.328 5.13 5.13 0 0 1-.28-1.744c0-.645.094-1.227.28-1.744.187-.517.454-.957.8-1.32a3.552 3.552 0 0 1 1.248-.84 4.39 4.39 0 0 1 1.648-.296Zm0 7.064c.736 0 1.283-.245 1.64-.736.363-.496.544-1.203.544-2.12s-.181-1.624-.544-2.12c-.357-.501-.904-.752-1.64-.752-.746 0-1.301.251-1.664.752-.362.496-.544 1.203-.544 2.12s.182 1.624.544 2.12c.363.491.918.736 1.664.736Zm5.613 1.224v-8.16h1.04c.235 0 .384.109.448.328l.112.712c.149-.171.304-.325.464-.464a2.818 2.818 0 0 1 1.104-.616c.213-.059.443-.088.688-.088.261 0 .501.037.72.112.219.075.411.181.576.32.171.139.317.307.44.504s.224.419.304.664a2.512 2.512 0 0 1 1.088-1.224 2.75 2.75 0 0 1 .728-.28c.261-.064.525-.096.792-.096.437 0 .827.069 1.168.208.347.139.637.341.872.608.24.261.421.584.544.968.123.384.184.821.184 1.312V189h-1.72v-5.192c0-.576-.125-1.008-.376-1.296-.245-.293-.611-.44-1.096-.44-.219 0-.424.037-.616.112a1.45 1.45 0 0 0-.848.872c-.08.213-.12.464-.12.752V189h-1.72v-5.192c0-.597-.12-1.035-.36-1.312-.24-.283-.592-.424-1.056-.424-.32 0-.616.083-.888.248a2.8 2.8 0 0 0-.752.664V189h-1.72Zm15.001-2.048c.24.309.502.528.784.656.288.123.606.184.952.184.672 0 1.195-.245 1.568-.736.379-.491.568-1.221.568-2.192 0-.501-.042-.928-.128-1.28-.085-.357-.208-.648-.368-.872a1.412 1.412 0 0 0-.584-.488 1.905 1.905 0 0 0-.776-.152c-.437 0-.816.096-1.136.288a3.193 3.193 0 0 0-.88.808v3.784Zm-.088-4.928c.342-.4.728-.723 1.16-.968.438-.245.944-.368 1.52-.368.459 0 .875.093 1.248.28.374.181.694.448.96.8.267.352.472.789.616 1.312.15.517.224 1.112.224 1.784 0 .603-.082 1.165-.248 1.688-.16.517-.392.968-.696 1.352a3.327 3.327 0 0 1-1.104.896c-.432.213-.92.32-1.464.32-.48 0-.888-.077-1.224-.232a3.194 3.194 0 0 1-.904-.64v3.464h-1.72V180.84h1.04c.235 0 .384.109.448.328l.144.856Zm9.152-4.864V189h-1.72v-11.84h1.72Zm7.475 6.84c0-.288-.043-.555-.128-.8-.08-.251-.2-.467-.36-.648a1.585 1.585 0 0 0-.6-.432 1.951 1.951 0 0 0-.816-.16c-.624 0-1.115.179-1.472.536-.358.357-.584.859-.68 1.504h4.056Zm-4.104 1.056c.021.464.093.867.216 1.208.122.336.285.616.488.84.208.224.453.392.736.504.288.107.608.16.96.16.336 0 .626-.037.872-.112.245-.08.458-.165.64-.256.181-.096.336-.181.464-.256a.676.676 0 0 1 .352-.12c.138 0 .245.053.32.16l.488.632c-.203.24-.432.443-.688.608a4.204 4.204 0 0 1-.816.408 4.64 4.64 0 0 1-.888.216 5.69 5.69 0 0 1-.888.072 4.342 4.342 0 0 1-1.576-.28 3.585 3.585 0 0 1-1.256-.84 3.928 3.928 0 0 1-.832-1.368c-.198-.544-.296-1.171-.296-1.88 0-.565.088-1.093.264-1.584.181-.491.437-.917.768-1.28a3.603 3.603 0 0 1 1.216-.856 3.962 3.962 0 0 1 1.624-.32c.501 0 .965.083 1.392.248.426.16.794.397 1.104.712.309.315.549.701.72 1.16.176.453.264.971.264 1.552 0 .267-.03.445-.088.536-.059.091-.166.136-.32.136h-5.24Zm9.789 4.072c-.677 0-1.2-.189-1.568-.568-.362-.384-.544-.923-.544-1.616v-4.752h-.896a.371.371 0 0 1-.248-.088c-.069-.064-.104-.157-.104-.28v-.696l1.32-.192.376-2.36a.43.43 0 0 1 .136-.216.364.364 0 0 1 .256-.088h.88v2.68h2.264v1.24h-2.264v4.632c0 .293.072.517.216.672a.748.748 0 0 0 .576.232c.134 0 .248-.016.344-.048.096-.037.179-.075.248-.112.07-.043.128-.08.176-.112a.272.272 0 0 1 .152-.056c.096 0 .174.053.232.16l.512.84a2.829 2.829 0 0 1-.944.544 3.46 3.46 0 0 1-1.12.184Zm8.518-5.128c0-.288-.043-.555-.128-.8-.08-.251-.2-.467-.36-.648a1.585 1.585 0 0 0-.6-.432 1.951 1.951 0 0 0-.816-.16c-.624 0-1.115.179-1.472.536-.358.357-.584.859-.68 1.504h4.056Zm-4.104 1.056c.021.464.093.867.216 1.208.122.336.285.616.488.84.208.224.453.392.736.504.288.107.608.16.96.16.336 0 .626-.037.872-.112.245-.08.458-.165.64-.256.181-.096.336-.181.464-.256a.676.676 0 0 1 .352-.12c.138 0 .245.053.32.16l.488.632c-.203.24-.432.443-.688.608a4.204 4.204 0 0 1-.816.408 4.64 4.64 0 0 1-.888.216 5.69 5.69 0 0 1-.888.072 4.342 4.342 0 0 1-1.576-.28 3.585 3.585 0 0 1-1.256-.84 3.928 3.928 0 0 1-.832-1.368c-.198-.544-.296-1.171-.296-1.88 0-.565.088-1.093.264-1.584.181-.491.437-.917.768-1.28a3.603 3.603 0 0 1 1.216-.856 3.962 3.962 0 0 1 1.624-.32c.501 0 .965.083 1.392.248.426.16.794.397 1.104.712.309.315.549.701.72 1.16.176.453.264.971.264 1.552 0 .267-.03.445-.088.536-.059.091-.166.136-.32.136h-5.24Zm12.46-2.208c-.24-.309-.504-.525-.792-.648a2.358 2.358 0 0 0-.936-.184c-.672 0-1.198.248-1.576.744-.379.491-.568 1.219-.568 2.184 0 .501.042.931.128 1.288.085.352.208.64.368.864.16.224.354.387.584.488.229.101.488.152.776.152.437 0 .813-.093 1.128-.28.32-.192.616-.461.888-.808v-3.8Zm1.72-5.688V189h-1.04c-.23 0-.376-.109-.44-.328l-.152-.888c-.342.4-.731.723-1.168.968-.432.245-.936.368-1.512.368-.459 0-.875-.091-1.248-.272a2.717 2.717 0 0 1-.96-.808c-.267-.352-.475-.787-.624-1.304-.144-.523-.216-1.12-.216-1.792 0-.608.08-1.171.24-1.688.165-.517.4-.965.704-1.344a3.197 3.197 0 0 1 1.104-.896 3.221 3.221 0 0 1 1.464-.328c.48 0 .888.077 1.224.232.336.149.637.36.904.632v-4.392h1.72Zm17.223 3.68-2.616 8.16h-1.368c-.16 0-.272-.104-.336-.312l-1.624-5.08a17.387 17.387 0 0 1-.12-.432 16.11 16.11 0 0 1-.088-.424c-.058.288-.13.576-.216.864l-1.648 5.072c-.058.208-.184.312-.376.312h-1.304l-2.616-8.16h1.36c.134 0 .243.035.328.104.091.064.15.141.176.232l1.36 4.752c.054.219.099.432.136.64.043.203.08.405.112.608a83.69 83.69 0 0 1 .352-1.248l1.528-4.776a.422.422 0 0 1 .16-.232.494.494 0 0 1 .304-.096h.752c.123 0 .227.032.312.096a.402.402 0 0 1 .168.232l1.488 4.776c.064.219.123.432.176.64.059.208.112.416.16.624a44.2 44.2 0 0 1 .12-.616c.043-.208.094-.424.152-.648l1.384-4.752a.49.49 0 0 1 .176-.24.508.508 0 0 1 .312-.096h1.296Zm3.047 0V189h-1.72v-8.16h1.72Zm.288-2.464c0 .155-.032.301-.096.44a1.149 1.149 0 0 1-.248.368 1.329 1.329 0 0 1-.376.248 1.133 1.133 0 0 1-.448.088c-.155 0-.301-.029-.44-.088a1.279 1.279 0 0 1-.352-.248 1.36 1.36 0 0 1-.248-.368 1.112 1.112 0 0 1-.088-.44c0-.16.029-.309.088-.448.064-.139.147-.259.248-.36.101-.107.219-.189.352-.248.139-.064.285-.096.44-.096.16 0 .309.032.448.096.144.059.269.141.376.248.107.101.189.221.248.36.064.139.096.288.096.448Zm4.489 10.752c-.677 0-1.2-.189-1.568-.568-.363-.384-.544-.923-.544-1.616v-4.752h-.896a.37.37 0 0 1-.248-.088c-.069-.064-.104-.157-.104-.28v-.696l1.32-.192.376-2.36a.43.43 0 0 1 .136-.216.362.362 0 0 1 .256-.088h.88v2.68h2.264v1.24h-2.264v4.632c0 .293.072.517.216.672a.748.748 0 0 0 .576.232c.133 0 .248-.016.344-.048.096-.037.179-.075.248-.112.069-.043.128-.08.176-.112a.27.27 0 0 1 .152-.056c.096 0 .173.053.232.16l.512.84a2.839 2.839 0 0 1-.944.544 3.465 3.465 0 0 1-1.12.184Zm4.948-7.32a4.236 4.236 0 0 1 1.104-.792c.4-.203.866-.304 1.4-.304.448 0 .84.075 1.176.224.341.149.626.36.856.632.234.272.41.6.528.984.117.379.176.797.176 1.256V189h-1.712v-5.192c0-.549-.128-.976-.384-1.28-.251-.304-.635-.456-1.152-.456-.384 0-.742.088-1.072.264a3.682 3.682 0 0 0-.92.72V189h-1.72v-11.84h1.72v4.648Zm9.041-.968V189h-1.72v-8.16h1.72Zm.288-2.464c0 .155-.032.301-.096.44a1.165 1.165 0 0 1-.248.368 1.329 1.329 0 0 1-.376.248 1.133 1.133 0 0 1-.448.088c-.155 0-.302-.029-.44-.088a1.264 1.264 0 0 1-.352-.248 1.338 1.338 0 0 1-.248-.368 1.112 1.112 0 0 1-.088-.44c0-.16.029-.309.088-.448.064-.139.146-.259.248-.36.101-.107.218-.189.352-.248.138-.064.285-.096.44-.096.16 0 .309.032.448.096.144.059.269.141.376.248.106.101.189.221.248.36.064.139.096.288.096.448Zm3.481 3.544c.176-.181.357-.344.544-.488.192-.149.394-.277.608-.384.213-.107.44-.189.68-.248.24-.059.501-.088.784-.088.448 0 .84.075 1.176.224.341.149.626.36.856.632.234.272.41.6.528.984.117.379.176.797.176 1.256V189h-1.712v-5.192c0-.549-.128-.976-.384-1.28-.251-.304-.635-.456-1.152-.456-.384 0-.742.088-1.072.264a3.682 3.682 0 0 0-.92.72V189h-1.72v-8.16h1.04c.234 0 .384.109.448.328l.12.752Zm11.241-1.272c.08-.544.229-1.021.448-1.432.224-.411.504-.752.84-1.024.336-.277.72-.485 1.152-.624a4.499 4.499 0 0 1 1.416-.216c.512 0 .976.075 1.392.224.421.144.781.347 1.08.608.304.261.536.573.696.936.165.363.248.76.248 1.192 0 .368-.046.693-.136.976a2.307 2.307 0 0 1-.376.736c-.16.213-.358.392-.592.536a3.736 3.736 0 0 1-.792.36c.714.208 1.25.541 1.608 1 .357.453.536 1.024.536 1.712 0 .555-.104 1.048-.312 1.48a3.25 3.25 0 0 1-.848 1.096 3.741 3.741 0 0 1-1.24.688c-.47.155-.968.232-1.496.232-.592 0-1.104-.069-1.536-.208a3.43 3.43 0 0 1-1.12-.608 3.507 3.507 0 0 1-.776-.96 6.575 6.575 0 0 1-.528-1.256l.744-.312a.918.918 0 0 1 .56-.072.536.536 0 0 1 .392.296c.085.171.181.355.288.552.106.192.242.371.408.536.17.16.378.296.624.408.25.107.557.16.92.16.368 0 .688-.059.96-.176.277-.123.506-.277.688-.464a1.938 1.938 0 0 0 .552-1.336c0-.288-.035-.552-.104-.792a1.255 1.255 0 0 0-.408-.624c-.198-.171-.48-.304-.848-.4-.363-.101-.84-.152-1.432-.152v-1.24c.485-.005.893-.053 1.224-.144.336-.096.602-.224.8-.384.202-.165.346-.363.432-.592.09-.229.136-.48.136-.752 0-.293-.046-.552-.136-.776a1.504 1.504 0 0 0-.384-.56 1.497 1.497 0 0 0-.576-.344 2.333 2.333 0 0 0-.744-.112 2.105 2.105 0 0 0-1.32.424 1.837 1.837 0 0 0-.432.48 1.913 1.913 0 0 0-.256.6c-.075.219-.176.365-.304.44-.123.075-.304.091-.544.048l-.904-.16Zm9.289 2.808h4.056v1.456h-4.056v-1.456Zm9.625 4.248c.347 0 .664-.056.952-.168a2.184 2.184 0 0 0 1.216-1.2c.112-.277.168-.579.168-.904 0-.352-.056-.667-.168-.944a1.862 1.862 0 0 0-.464-.712 1.96 1.96 0 0 0-.72-.44 2.535 2.535 0 0 0-.92-.16 2.45 2.45 0 0 0-.944.176 2.15 2.15 0 0 0-.712.48 2.13 2.13 0 0 0-.456.712c-.106.272-.16.56-.16.864 0 .341.048.653.144.936.096.283.238.525.424.728.187.197.416.352.688.464.278.112.595.168.952.168Zm-.632-5.984c-.085.107-.168.208-.248.304l-.224.288a3.516 3.516 0 0 1 1.752-.448c.448 0 .878.075 1.288.224.411.144.771.363 1.08.656.315.288.566.648.752 1.08.187.427.28.92.28 1.48 0 .533-.098 1.032-.296 1.496a3.646 3.646 0 0 1-.816 1.216 3.96 3.96 0 0 1-1.272.816 4.339 4.339 0 0 1-1.632.296 4.32 4.32 0 0 1-1.616-.288 3.562 3.562 0 0 1-1.232-.808 3.632 3.632 0 0 1-.776-1.264 4.71 4.71 0 0 1-.272-1.64c0-.523.112-1.069.336-1.64.224-.571.571-1.171 1.04-1.8l2.832-3.8c.086-.112.208-.208.368-.288.166-.08.35-.12.552-.12h1.52l-3.416 4.24ZM49.971 211.808a4.236 4.236 0 0 1 1.104-.792c.4-.203.867-.304 1.4-.304.448 0 .84.075 1.176.224.341.149.627.36.856.632.235.272.41.6.528.984.118.379.176.797.176 1.256V219H53.5v-5.192c0-.549-.128-.976-.384-1.28-.25-.304-.635-.456-1.152-.456-.384 0-.741.088-1.072.264a3.695 3.695 0 0 0-.92.72V219h-1.72v-11.84h1.72v4.648Zm10.777-1.096c.602 0 1.147.099 1.632.296.49.197.906.477 1.248.84.346.363.613.803.8 1.32.187.517.28 1.099.28 1.744s-.093 1.227-.28 1.744c-.187.517-.453.96-.8 1.328a3.454 3.454 0 0 1-1.248.84 4.305 4.305 0 0 1-1.632.296 4.388 4.388 0 0 1-1.648-.296 3.545 3.545 0 0 1-1.248-.84 3.782 3.782 0 0 1-.8-1.328 5.112 5.112 0 0 1-.28-1.744c0-.645.093-1.227.28-1.744.187-.517.453-.957.8-1.32a3.545 3.545 0 0 1 1.248-.84 4.388 4.388 0 0 1 1.648-.296Zm0 7.064c.736 0 1.283-.245 1.64-.736.363-.496.544-1.203.544-2.12s-.181-1.624-.544-2.12c-.357-.501-.904-.752-1.64-.752-.747 0-1.301.251-1.664.752-.363.496-.544 1.203-.544 2.12s.181 1.624.544 2.12c.362.491.917.736 1.664.736Zm12.492-6.936V219H72.2c-.229 0-.376-.109-.44-.328l-.128-.76c-.17.181-.352.347-.544.496a3.193 3.193 0 0 1-1.288.632c-.24.059-.498.088-.775.088-.449 0-.843-.075-1.184-.224a2.385 2.385 0 0 1-.864-.632 2.759 2.759 0 0 1-.52-.976 4.31 4.31 0 0 1-.176-1.264v-5.192H68v5.192c0 .549.125.976.375 1.28.256.304.643.456 1.16.456.38 0 .731-.085 1.056-.256.331-.176.64-.416.928-.72v-5.952h1.72Zm3.713 1.512c.256-.517.566-.923.928-1.216.363-.299.798-.448 1.304-.448.176 0 .342.021.496.064.155.037.294.096.416.176l-.12 1.296c-.021.091-.056.155-.104.192a.288.288 0 0 1-.176.048c-.08 0-.194-.013-.344-.04a2.249 2.249 0 0 0-.472-.048c-.24 0-.453.035-.64.104a1.595 1.595 0 0 0-.496.304 2.095 2.095 0 0 0-.384.488 4.725 4.725 0 0 0-.312.656V219h-1.72v-8.16h1c.182 0 .307.035.376.104.07.064.118.179.144.344l.104 1.064Zm9.108-.032a.424.424 0 0 1-.144.16.383.383 0 0 1-.2.048.673.673 0 0 1-.296-.08 7.301 7.301 0 0 0-.376-.192 2.974 2.974 0 0 0-.512-.184 2.327 2.327 0 0 0-.68-.088 2.02 2.02 0 0 0-.584.08c-.171.048-.318.12-.44.216a.948.948 0 0 0-.272.328.853.853 0 0 0-.096.4.68.68 0 0 0 .176.48c.117.128.272.24.464.336.192.091.41.173.656.248.245.075.496.155.752.24.256.085.506.184.752.296.245.112.464.251.656.416.192.16.346.357.464.592.117.229.176.509.176.84 0 .384-.07.739-.208 1.064a2.391 2.391 0 0 1-.608.848c-.267.24-.6.427-1 .56-.395.133-.848.2-1.36.2a4.21 4.21 0 0 1-.824-.08 4.902 4.902 0 0 1-.752-.2 4.492 4.492 0 0 1-.664-.32 3.611 3.611 0 0 1-.544-.4l.4-.656a.493.493 0 0 1 .448-.256c.112 0 .221.037.328.112.112.069.24.147.384.232.149.085.328.165.536.24.208.069.466.104.776.104.256 0 .477-.029.664-.088.186-.064.341-.149.464-.256a1.04 1.04 0 0 0 .272-.36 1.13 1.13 0 0 0 .088-.44.746.746 0 0 0-.176-.512 1.485 1.485 0 0 0-.472-.344 4.144 4.144 0 0 0-.664-.256 33.104 33.104 0 0 1-.752-.24 8.192 8.192 0 0 1-.76-.296 2.754 2.754 0 0 1-.664-.424 2.048 2.048 0 0 1-.464-.632c-.118-.251-.176-.555-.176-.912 0-.325.064-.635.192-.928.133-.293.325-.552.576-.776a2.8 2.8 0 0 1 .936-.528c.373-.133.802-.2 1.288-.2.549 0 1.048.088 1.496.264.448.176.824.416 1.128.72l-.384.624Zm1.848 5.688c0-.155.027-.299.08-.432.059-.139.136-.259.232-.36a1.112 1.112 0 0 1 .792-.328 1.13 1.13 0 0 1 .792.328 1.124 1.124 0 0 1 .328.792c0 .16-.03.307-.088.44a1.147 1.147 0 0 1-.24.352 1.02 1.02 0 0 1-.36.232 1.055 1.055 0 0 1-.432.088c-.155 0-.301-.029-.44-.088a1.038 1.038 0 0 1-.352-.232 1.224 1.224 0 0 1-.232-.352 1.174 1.174 0 0 1-.08-.44Zm12.365-3.52V219H98.41v-4.512l-4.208-7.008h1.64c.165 0 .296.04.392.12.096.08.176.181.24.304l2.36 4.128c.107.208.203.405.288.592.09.187.17.371.24.552a4.35 4.35 0 0 1 .216-.552c.085-.187.181-.384.288-.592l2.344-4.128a.9.9 0 0 1 .232-.288.564.564 0 0 1 .392-.136h1.648l-4.208 7.008Zm6.958-3.776c.603 0 1.147.099 1.632.296.491.197.907.477 1.248.84.347.363.614.803.8 1.32.187.517.28 1.099.28 1.744s-.093 1.227-.28 1.744c-.186.517-.453.96-.8 1.328a3.447 3.447 0 0 1-1.248.84 4.302 4.302 0 0 1-1.632.296 4.39 4.39 0 0 1-1.648-.296 3.552 3.552 0 0 1-1.248-.84 3.798 3.798 0 0 1-.8-1.328 5.13 5.13 0 0 1-.28-1.744c0-.645.094-1.227.28-1.744.187-.517.454-.957.8-1.32a3.552 3.552 0 0 1 1.248-.84 4.39 4.39 0 0 1 1.648-.296Zm0 7.064c.736 0 1.283-.245 1.64-.736.363-.496.544-1.203.544-2.12s-.181-1.624-.544-2.12c-.357-.501-.904-.752-1.64-.752-.746 0-1.301.251-1.664.752-.362.496-.544 1.203-.544 2.12s.182 1.624.544 2.12c.363.491.918.736 1.664.736Zm12.493-6.936V219h-1.04c-.229 0-.376-.109-.44-.328l-.128-.76a4.787 4.787 0 0 1-.544.496 3.193 3.193 0 0 1-1.288.632c-.24.059-.499.088-.776.088-.448 0-.843-.075-1.184-.224a2.39 2.39 0 0 1-.864-.632 2.759 2.759 0 0 1-.52-.976 4.32 4.32 0 0 1-.176-1.264v-5.192h1.72v5.192c0 .549.125.976.376 1.28.256.304.643.456 1.16.456.379 0 .731-.085 1.056-.256.331-.176.64-.416.928-.72v-5.952h1.72Zm17.209 0-2.616 8.16h-1.368c-.16 0-.272-.104-.336-.312l-1.624-5.08a11.592 11.592 0 0 1-.12-.432 16.11 16.11 0 0 1-.088-.424c-.059.288-.131.576-.216.864l-1.648 5.072c-.059.208-.184.312-.376.312h-1.304l-2.616-8.16h1.36c.133 0 .243.035.328.104a.432.432 0 0 1 .176.232l1.36 4.752c.053.219.099.432.136.64.043.203.08.405.112.608a83.69 83.69 0 0 1 .352-1.248l1.528-4.776a.422.422 0 0 1 .16-.232.492.492 0 0 1 .304-.096h.752c.123 0 .227.032.312.096a.411.411 0 0 1 .168.232l1.488 4.776c.064.219.123.432.176.64.059.208.112.416.16.624.037-.203.077-.408.12-.616.043-.208.093-.424.152-.648l1.384-4.752a.49.49 0 0 1 .176-.24.504.504 0 0 1 .312-.096h1.296Zm3.047 0V219h-1.72v-8.16h1.72Zm.288-2.464c0 .155-.032.301-.096.44a1.165 1.165 0 0 1-.248.368 1.329 1.329 0 0 1-.376.248 1.133 1.133 0 0 1-.448.088c-.155 0-.302-.029-.44-.088a1.264 1.264 0 0 1-.352-.248 1.338 1.338 0 0 1-.248-.368 1.112 1.112 0 0 1-.088-.44c0-.16.029-.309.088-.448.064-.139.146-.259.248-.36.101-.107.218-.189.352-.248.138-.064.285-.096.44-.096.16 0 .309.032.448.096.144.059.269.141.376.248.106.101.189.221.248.36.064.139.096.288.096.448Zm3.625-1.216V219h-1.72v-11.84h1.72Zm3.875 0V219h-1.72v-11.84h1.72Zm7.731 5.192c.256-.517.565-.923.928-1.216.363-.299.797-.448 1.304-.448.176 0 .341.021.496.064.155.037.293.096.416.176l-.12 1.296c-.021.091-.056.155-.104.192a.287.287 0 0 1-.176.048c-.08 0-.195-.013-.344-.04a2.248 2.248 0 0 0-.472-.048c-.24 0-.453.035-.64.104a1.596 1.596 0 0 0-.496.304 2.095 2.095 0 0 0-.384.488 4.725 4.725 0 0 0-.312.656V219h-1.72v-8.16h1c.181 0 .307.035.376.104.069.064.117.179.144.344l.104 1.064Zm9.353 1.648c0-.288-.043-.555-.128-.8-.08-.251-.2-.467-.36-.648a1.585 1.585 0 0 0-.6-.432 1.951 1.951 0 0 0-.816-.16c-.624 0-1.115.179-1.472.536-.357.357-.584.859-.68 1.504h4.056Zm-4.104 1.056c.021.464.093.867.216 1.208.123.336.285.616.488.84.208.224.453.392.736.504.288.107.608.16.96.16.336 0 .627-.037.872-.112a4.65 4.65 0 0 0 .64-.256c.181-.096.336-.181.464-.256a.676.676 0 0 1 .352-.12c.139 0 .245.053.32.16l.488.632c-.203.24-.432.443-.688.608a4.204 4.204 0 0 1-.816.408 4.64 4.64 0 0 1-.888.216 5.69 5.69 0 0 1-.888.072 4.346 4.346 0 0 1-1.576-.28 3.585 3.585 0 0 1-1.256-.84 3.943 3.943 0 0 1-.832-1.368c-.197-.544-.296-1.171-.296-1.88 0-.565.088-1.093.264-1.584.181-.491.437-.917.768-1.28a3.603 3.603 0 0 1 1.216-.856 3.962 3.962 0 0 1 1.624-.32c.501 0 .965.083 1.392.248.427.16.795.397 1.104.712.309.315.549.701.72 1.16.176.453.264.971.264 1.552 0 .267-.029.445-.088.536-.059.091-.165.136-.32.136h-5.24Zm13.02-2.616a.878.878 0 0 1-.152.16.335.335 0 0 1-.208.056.542.542 0 0 1-.288-.096 4.467 4.467 0 0 0-.352-.208 2.461 2.461 0 0 0-.488-.216 2.306 2.306 0 0 0-.72-.096 2.29 2.29 0 0 0-.984.2 1.927 1.927 0 0 0-.704.576 2.576 2.576 0 0 0-.424.904 4.77 4.77 0 0 0-.136 1.192c0 .459.051.867.152 1.224s.245.659.432.904c.192.245.421.432.688.56.272.128.576.192.912.192.331 0 .6-.04.808-.12.208-.08.381-.168.52-.264s.256-.184.352-.264a.508.508 0 0 1 .32-.12c.139 0 .245.053.32.16l.488.632a3.18 3.18 0 0 1-.656.608c-.24.165-.493.301-.76.408a4.022 4.022 0 0 1-.832.216 5.298 5.298 0 0 1-.872.072c-.507 0-.981-.093-1.424-.28a3.45 3.45 0 0 1-1.152-.824 4.088 4.088 0 0 1-.776-1.32c-.187-.523-.28-1.117-.28-1.784 0-.603.085-1.16.256-1.672.171-.517.419-.963.744-1.336a3.406 3.406 0 0 1 1.224-.872c.485-.213 1.045-.32 1.68-.32.592 0 1.112.096 1.56.288.453.192.856.464 1.208.816l-.456.624ZM180.9 214c0-.288-.043-.555-.128-.8-.08-.251-.2-.467-.36-.648a1.585 1.585 0 0 0-.6-.432 1.951 1.951 0 0 0-.816-.16c-.624 0-1.115.179-1.472.536-.357.357-.584.859-.68 1.504h4.056Zm-4.104 1.056c.021.464.093.867.216 1.208.123.336.285.616.488.84.208.224.453.392.736.504.288.107.608.16.96.16.336 0 .627-.037.872-.112a4.65 4.65 0 0 0 .64-.256c.181-.096.336-.181.464-.256a.676.676 0 0 1 .352-.12c.139 0 .245.053.32.16l.488.632c-.203.24-.432.443-.688.608a4.204 4.204 0 0 1-.816.408 4.64 4.64 0 0 1-.888.216 5.69 5.69 0 0 1-.888.072 4.346 4.346 0 0 1-1.576-.28 3.585 3.585 0 0 1-1.256-.84 3.943 3.943 0 0 1-.832-1.368c-.197-.544-.296-1.171-.296-1.88 0-.565.088-1.093.264-1.584.181-.491.437-.917.768-1.28a3.603 3.603 0 0 1 1.216-.856 3.962 3.962 0 0 1 1.624-.32c.501 0 .965.083 1.392.248.427.16.795.397 1.104.712.309.315.549.701.72 1.16.176.453.264.971.264 1.552 0 .267-.029.445-.088.536-.059.091-.165.136-.32.136h-5.24Zm9.044-4.216V219h-1.72v-8.16h1.72Zm.288-2.464c0 .155-.032.301-.096.44a1.149 1.149 0 0 1-.248.368 1.329 1.329 0 0 1-.376.248 1.133 1.133 0 0 1-.448.088c-.155 0-.301-.029-.44-.088a1.279 1.279 0 0 1-.352-.248 1.36 1.36 0 0 1-.248-.368 1.112 1.112 0 0 1-.088-.44c0-.16.029-.309.088-.448.064-.139.147-.259.248-.36.101-.107.219-.189.352-.248.139-.064.285-.096.44-.096.16 0 .309.032.448.096.144.059.269.141.376.248.107.101.189.221.248.36.064.139.096.288.096.448Zm9.057 2.464-3.28 8.16h-1.552l-3.28-8.16h1.416c.133 0 .243.035.328.104a.432.432 0 0 1 .176.232l1.808 4.752c.075.224.141.445.2.664.059.219.109.44.152.664.043-.224.093-.443.152-.656.064-.219.133-.443.208-.672l1.84-4.752a.49.49 0 0 1 .176-.24.504.504 0 0 1 .312-.096h1.344Zm6.293 3.16c0-.288-.043-.555-.128-.8-.08-.251-.2-.467-.36-.648a1.585 1.585 0 0 0-.6-.432 1.951 1.951 0 0 0-.816-.16c-.624 0-1.115.179-1.472.536-.357.357-.584.859-.68 1.504h4.056Zm-4.104 1.056c.021.464.093.867.216 1.208.123.336.285.616.488.84.208.224.453.392.736.504.288.107.608.16.96.16.336 0 .627-.037.872-.112a4.65 4.65 0 0 0 .64-.256c.181-.096.336-.181.464-.256a.676.676 0 0 1 .352-.12c.139 0 .245.053.32.16l.488.632c-.203.24-.432.443-.688.608a4.204 4.204 0 0 1-.816.408 4.64 4.64 0 0 1-.888.216 5.69 5.69 0 0 1-.888.072 4.346 4.346 0 0 1-1.576-.28 3.585 3.585 0 0 1-1.256-.84 3.943 3.943 0 0 1-.832-1.368c-.197-.544-.296-1.171-.296-1.88 0-.565.088-1.093.264-1.584.181-.491.437-.917.768-1.28a3.603 3.603 0 0 1 1.216-.856 3.962 3.962 0 0 1 1.624-.32c.501 0 .965.083 1.392.248.427.16.795.397 1.104.712.309.315.549.701.72 1.16.176.453.264.971.264 1.552 0 .267-.029.445-.088.536-.059.091-.165.136-.32.136h-5.24Zm15.597.376c-.614.021-1.131.072-1.552.152-.422.075-.763.173-1.024.296-.262.117-.451.259-.568.424a.95.95 0 0 0-.168.544c0 .192.029.357.088.496.064.133.149.245.256.336.112.085.24.149.384.192.149.037.312.056.488.056.448 0 .832-.083 1.152-.248.325-.171.64-.416.944-.736v-1.512Zm-4.56-3.456c.922-.859 2.021-1.288 3.296-1.288.469 0 .885.077 1.248.232.368.149.674.363.92.64.25.277.44.608.568.992.133.379.2.8.2 1.264V219h-.768c-.166 0-.291-.024-.376-.072-.086-.053-.158-.157-.216-.312l-.168-.664a8.244 8.244 0 0 1-.616.504 3.996 3.996 0 0 1-.632.368 2.909 2.909 0 0 1-.696.224 3.88 3.88 0 0 1-.816.08c-.331 0-.64-.045-.928-.136a2.072 2.072 0 0 1-.736-.408 2.029 2.029 0 0 1-.496-.688 2.398 2.398 0 0 1-.176-.96c0-.315.082-.621.248-.92.17-.299.448-.565.832-.8.389-.24.898-.437 1.528-.592.634-.155 1.416-.243 2.344-.264v-.544c0-.587-.126-1.024-.376-1.312-.251-.288-.619-.432-1.104-.432-.331 0-.608.043-.832.128-.224.08-.419.168-.584.264a8.371 8.371 0 0 0-.44.272.757.757 0 0 1-.408.12.519.519 0 0 1-.304-.088.828.828 0 0 1-.2-.232l-.312-.56Zm9.854-.056c.176-.181.358-.344.544-.488.192-.149.395-.277.608-.384.214-.107.44-.189.68-.248.24-.059.502-.088.784-.088.448 0 .84.075 1.176.224.342.149.627.36.856.632.235.272.411.6.528.984.118.379.176.797.176 1.256V219h-1.712v-5.192c0-.549-.128-.976-.384-1.28-.25-.304-.634-.456-1.152-.456-.384 0-.741.088-1.072.264a3.7 3.7 0 0 0-.92.72V219h-1.72v-8.16h1.04c.235 0 .384.109.448.328l.12.752Zm16.698 2.08c0-.288-.043-.555-.128-.8-.08-.251-.2-.467-.36-.648a1.585 1.585 0 0 0-.6-.432 1.951 1.951 0 0 0-.816-.16c-.624 0-1.115.179-1.472.536-.358.357-.584.859-.68 1.504h4.056Zm-4.104 1.056c.021.464.093.867.216 1.208.122.336.285.616.488.84.208.224.453.392.736.504.288.107.608.16.96.16.336 0 .626-.037.872-.112.245-.08.458-.165.64-.256.181-.096.336-.181.464-.256a.676.676 0 0 1 .352-.12c.138 0 .245.053.32.16l.488.632c-.203.24-.432.443-.688.608a4.204 4.204 0 0 1-.816.408 4.64 4.64 0 0 1-.888.216 5.69 5.69 0 0 1-.888.072 4.342 4.342 0 0 1-1.576-.28 3.585 3.585 0 0 1-1.256-.84 3.928 3.928 0 0 1-.832-1.368c-.198-.544-.296-1.171-.296-1.88 0-.565.088-1.093.264-1.584.181-.491.437-.917.768-1.28a3.603 3.603 0 0 1 1.216-.856 3.962 3.962 0 0 1 1.624-.32c.501 0 .965.083 1.392.248.426.16.794.397 1.104.712.309.315.549.701.72 1.16.176.453.264.971.264 1.552 0 .267-.03.445-.088.536-.059.091-.166.136-.32.136h-5.24Zm7.252 3.944v-8.16h1.04c.234 0 .384.109.448.328l.112.712c.149-.171.304-.325.464-.464a2.784 2.784 0 0 1 1.104-.616c.213-.059.442-.088.688-.088.261 0 .501.037.72.112.218.075.41.181.576.32.17.139.317.307.44.504.122.197.224.419.304.664.122-.283.277-.525.464-.728.186-.203.394-.368.624-.496a2.75 2.75 0 0 1 .728-.28c.261-.064.525-.096.792-.096.437 0 .826.069 1.168.208.346.139.637.341.872.608.24.261.421.584.544.968.122.384.184.821.184 1.312V219h-1.72v-5.192c0-.576-.126-1.008-.376-1.296-.246-.293-.611-.44-1.096-.44-.219 0-.424.037-.616.112a1.45 1.45 0 0 0-.848.872c-.08.213-.12.464-.12.752V219h-1.72v-5.192c0-.597-.12-1.035-.36-1.312-.24-.283-.592-.424-1.057-.424a1.68 1.68 0 0 0-.887.248 2.8 2.8 0 0 0-.752.664V219h-1.72Zm17.641-3.568c-.614.021-1.131.072-1.552.152-.422.075-.763.173-1.024.296-.262.117-.451.259-.568.424a.95.95 0 0 0-.168.544c0 .192.029.357.088.496.064.133.149.245.256.336.112.085.24.149.384.192.149.037.312.056.488.056.448 0 .832-.083 1.152-.248.325-.171.64-.416.944-.736v-1.512Zm-4.56-3.456c.922-.859 2.021-1.288 3.296-1.288.469 0 .885.077 1.248.232.368.149.674.363.92.64.25.277.44.608.568.992.133.379.2.8.2 1.264V219h-.768c-.166 0-.291-.024-.376-.072-.086-.053-.158-.157-.216-.312l-.168-.664a8.244 8.244 0 0 1-.616.504 3.996 3.996 0 0 1-.632.368 2.909 2.909 0 0 1-.696.224 3.88 3.88 0 0 1-.816.08c-.331 0-.64-.045-.928-.136a2.072 2.072 0 0 1-.736-.408 2.029 2.029 0 0 1-.496-.688 2.398 2.398 0 0 1-.176-.96c0-.315.082-.621.248-.92.17-.299.448-.565.832-.8.389-.24.898-.437 1.528-.592.634-.155 1.416-.243 2.344-.264v-.544c0-.587-.126-1.024-.376-1.312-.251-.288-.619-.432-1.104-.432-.331 0-.608.043-.832.128-.224.08-.419.168-.584.264a8.371 8.371 0 0 0-.44.272.757.757 0 0 1-.408.12.519.519 0 0 1-.304-.088.828.828 0 0 1-.2-.232l-.312-.56Zm10.039-1.136V219h-1.72v-8.16h1.72Zm.288-2.464c0 .155-.032.301-.096.44a1.165 1.165 0 0 1-.248.368 1.329 1.329 0 0 1-.376.248 1.133 1.133 0 0 1-.448.088c-.155 0-.302-.029-.44-.088a1.264 1.264 0 0 1-.352-.248 1.338 1.338 0 0 1-.248-.368 1.112 1.112 0 0 1-.088-.44c0-.16.029-.309.088-.448.064-.139.146-.259.248-.36.101-.107.218-.189.352-.248.138-.064.285-.096.44-.096.16 0 .309.032.448.096.144.059.269.141.376.248.106.101.189.221.248.36.064.139.096.288.096.448Zm3.625-1.216V219h-1.72v-11.84h1.72Zm11.875 5.28a.878.878 0 0 1-.152.16.335.335 0 0 1-.208.056.542.542 0 0 1-.288-.096 4.467 4.467 0 0 0-.352-.208 2.461 2.461 0 0 0-.488-.216 2.306 2.306 0 0 0-.72-.096 2.29 2.29 0 0 0-.984.2 1.927 1.927 0 0 0-.704.576 2.576 2.576 0 0 0-.424.904 4.77 4.77 0 0 0-.136 1.192c0 .459.051.867.152 1.224s.245.659.432.904c.192.245.421.432.688.56.272.128.576.192.912.192.331 0 .6-.04.808-.12.208-.08.381-.168.52-.264s.256-.184.352-.264a.508.508 0 0 1 .32-.12c.139 0 .245.053.32.16l.488.632a3.18 3.18 0 0 1-.656.608c-.24.165-.493.301-.76.408a4.022 4.022 0 0 1-.832.216 5.298 5.298 0 0 1-.872.072c-.507 0-.981-.093-1.424-.28a3.45 3.45 0 0 1-1.152-.824 4.088 4.088 0 0 1-.776-1.32c-.187-.523-.28-1.117-.28-1.784 0-.603.085-1.16.256-1.672.171-.517.419-.963.744-1.336a3.406 3.406 0 0 1 1.224-.872c.485-.213 1.045-.32 1.68-.32.592 0 1.112.096 1.56.288.453.192.856.464 1.208.816l-.456.624Zm5.307-1.728c.603 0 1.147.099 1.632.296.491.197.907.477 1.248.84.347.363.613.803.8 1.32.187.517.28 1.099.28 1.744s-.093 1.227-.28 1.744c-.187.517-.453.96-.8 1.328a3.447 3.447 0 0 1-1.248.84 4.302 4.302 0 0 1-1.632.296 4.39 4.39 0 0 1-1.648-.296 3.552 3.552 0 0 1-1.248-.84 3.783 3.783 0 0 1-.8-1.328c-.187-.517-.28-1.099-.28-1.744s.093-1.227.28-1.744c.187-.517.453-.957.8-1.32a3.552 3.552 0 0 1 1.248-.84 4.39 4.39 0 0 1 1.648-.296Zm0 7.064c.736 0 1.283-.245 1.64-.736.363-.496.544-1.203.544-2.12s-.181-1.624-.544-2.12c-.357-.501-.904-.752-1.64-.752-.747 0-1.301.251-1.664.752-.363.496-.544 1.203-.544 2.12s.181 1.624.544 2.12c.363.491.917.736 1.664.736Zm7.221-5.856c.176-.181.357-.344.544-.488.192-.149.394-.277.608-.384.213-.107.44-.189.68-.248.24-.059.501-.088.784-.088.448 0 .84.075 1.176.224.341.149.626.36.856.632.234.272.41.6.528.984.117.379.176.797.176 1.256V219h-1.712v-5.192c0-.549-.128-.976-.384-1.28-.251-.304-.635-.456-1.152-.456-.384 0-.742.088-1.072.264a3.682 3.682 0 0 0-.92.72V219h-1.72v-8.16h1.04c.234 0 .384.109.448.328l.12.752Zm7.78 7.08v-6.792l-.8-.112a.744.744 0 0 1-.328-.144c-.08-.069-.12-.168-.12-.296v-.704h1.248v-.344c0-.501.08-.963.24-1.384a2.92 2.92 0 0 1 .728-1.096c.325-.309.73-.549 1.216-.72.49-.176 1.064-.264 1.72-.264.213 0 .432.013.656.04a3 3 0 0 1 .584.12l-.056.896c-.011.112-.078.176-.2.192a5.768 5.768 0 0 1-.488.016c-.496 0-.918.048-1.264.144-.347.091-.63.232-.848.424a1.625 1.625 0 0 0-.48.704 2.986 2.986 0 0 0-.144.976v.296h5V219h-1.72v-6.808h-3.224V219h-1.72Zm10.47-6.648c.256-.517.565-.923.928-1.216.363-.299.797-.448 1.304-.448.176 0 .341.021.496.064.155.037.293.096.416.176l-.12 1.296c-.021.091-.056.155-.104.192a.287.287 0 0 1-.176.048c-.08 0-.195-.013-.344-.04a2.248 2.248 0 0 0-.472-.048c-.24 0-.453.035-.64.104a1.596 1.596 0 0 0-.496.304 2.095 2.095 0 0 0-.384.488 4.725 4.725 0 0 0-.312.656V219h-1.72v-8.16h1c.181 0 .307.035.376.104.069.064.117.179.144.344l.104 1.064Zm4.282 6.648v-8.16h1.04c.235 0 .384.109.448.328l.112.712c.15-.171.304-.325.464-.464a2.818 2.818 0 0 1 1.104-.616c.214-.059.443-.088.688-.088.262 0 .502.037.72.112.219.075.411.181.576.32.171.139.318.307.44.504.123.197.224.419.304.664a2.512 2.512 0 0 1 1.088-1.224c.23-.128.472-.221.728-.28.262-.064.526-.096.792-.096.438 0 .827.069 1.168.208.347.139.638.341.872.608.24.261.422.584.544.968.123.384.184.821.184 1.312V219h-1.72v-5.192c0-.576-.125-1.008-.376-1.296-.245-.293-.61-.44-1.096-.44a1.68 1.68 0 0 0-.616.112 1.45 1.45 0 0 0-.848.872c-.08.213-.12.464-.12.752V219h-1.72v-5.192c0-.597-.12-1.035-.36-1.312-.24-.283-.592-.424-1.056-.424-.32 0-.616.083-.888.248-.272.16-.522.381-.752.664V219h-1.72Zm17.642-3.568c-.614.021-1.131.072-1.552.152-.422.075-.763.173-1.024.296-.262.117-.451.259-.568.424a.95.95 0 0 0-.168.544c0 .192.029.357.088.496.064.133.149.245.256.336.112.085.24.149.384.192.149.037.312.056.488.056.448 0 .832-.083 1.152-.248.325-.171.64-.416.944-.736v-1.512Zm-4.56-3.456c.922-.859 2.021-1.288 3.296-1.288.469 0 .885.077 1.248.232.368.149.674.363.92.64.25.277.44.608.568.992.133.379.2.8.2 1.264V219h-.768c-.166 0-.291-.024-.376-.072-.086-.053-.158-.157-.216-.312l-.168-.664a8.244 8.244 0 0 1-.616.504 3.996 3.996 0 0 1-.632.368 2.909 2.909 0 0 1-.696.224 3.88 3.88 0 0 1-.816.08c-.331 0-.64-.045-.928-.136a2.072 2.072 0 0 1-.736-.408 2.029 2.029 0 0 1-.496-.688 2.398 2.398 0 0 1-.176-.96c0-.315.082-.621.248-.92.17-.299.448-.565.832-.8.389-.24.898-.437 1.528-.592.634-.155 1.416-.243 2.344-.264v-.544c0-.587-.126-1.024-.376-1.312-.251-.288-.619-.432-1.104-.432-.331 0-.608.043-.832.128-.224.08-.419.168-.584.264a8.371 8.371 0 0 0-.44.272.757.757 0 0 1-.408.12.519.519 0 0 1-.304-.088.828.828 0 0 1-.2-.232l-.312-.56ZM341.218 219h-1.72v-6.808h-3.976v4.632c0 .293.072.517.216.672a.748.748 0 0 0 .576.232c.133 0 .248-.016.344-.048.096-.037.179-.075.248-.112.069-.043.128-.08.176-.112a.27.27 0 0 1 .152-.056c.096 0 .173.053.232.16l.512.84a2.839 2.839 0 0 1-.944.544 3.465 3.465 0 0 1-1.12.184c-.677 0-1.2-.189-1.568-.568-.363-.384-.544-.923-.544-1.616v-4.752h-.896a.37.37 0 0 1-.248-.088c-.069-.064-.104-.157-.104-.28v-.696l1.32-.192.376-2.36a.43.43 0 0 1 .136-.216.362.362 0 0 1 .256-.088h.88v2.68h5.696V219Zm.352-10.664c0 .155-.032.301-.096.44a1.184 1.184 0 0 1-.248.36 1.329 1.329 0 0 1-.376.248 1.112 1.112 0 0 1-.44.088c-.155 0-.301-.029-.44-.088a1.417 1.417 0 0 1-.36-.248 1.417 1.417 0 0 1-.248-.36 1.112 1.112 0 0 1-.088-.44 1.133 1.133 0 0 1 .336-.816c.107-.107.227-.189.36-.248.139-.064.285-.096.44-.096.155 0 .301.032.44.096.144.059.269.141.376.248.107.101.189.224.248.368.064.139.096.288.096.448Zm5.35 2.376a4.31 4.31 0 0 1 1.632.296c.49.197.906.477 1.248.84.346.363.613.803.8 1.32a5.13 5.13 0 0 1 .28 1.744 5.13 5.13 0 0 1-.28 1.744c-.187.517-.454.96-.8 1.328a3.464 3.464 0 0 1-1.248.84 4.31 4.31 0 0 1-1.632.296 4.386 4.386 0 0 1-1.648-.296 3.534 3.534 0 0 1-1.248-.84 3.769 3.769 0 0 1-.8-1.328c-.187-.517-.28-1.099-.28-1.744s.093-1.227.28-1.744a3.69 3.69 0 0 1 .8-1.32 3.534 3.534 0 0 1 1.248-.84 4.386 4.386 0 0 1 1.648-.296Zm0 7.064c.736 0 1.282-.245 1.64-.736.362-.496.544-1.203.544-2.12s-.182-1.624-.544-2.12c-.358-.501-.904-.752-1.64-.752-.747 0-1.302.251-1.664.752-.363.496-.544 1.203-.544 2.12s.181 1.624.544 2.12c.362.491.917.736 1.664.736Zm7.22-5.856c.176-.181.358-.344.544-.488.192-.149.395-.277.608-.384.214-.107.44-.189.68-.248.24-.059.502-.088.784-.088.448 0 .84.075 1.176.224.342.149.627.36.856.632.235.272.411.6.528.984.118.379.176.797.176 1.256V219h-1.712v-5.192c0-.549-.128-.976-.384-1.28-.25-.304-.634-.456-1.152-.456-.384 0-.741.088-1.072.264a3.7 3.7 0 0 0-.92.72V219h-1.72v-8.16h1.04c.235 0 .384.109.448.328l.12.752Zm22.481-1.08-2.616 8.16h-1.368c-.16 0-.272-.104-.336-.312l-1.624-5.08a17.387 17.387 0 0 1-.12-.432 16.11 16.11 0 0 1-.088-.424c-.058.288-.13.576-.216.864l-1.648 5.072c-.058.208-.184.312-.376.312h-1.304l-2.616-8.16h1.36c.134 0 .243.035.328.104.091.064.15.141.176.232l1.36 4.752c.054.219.099.432.136.64.043.203.08.405.112.608a83.69 83.69 0 0 1 .352-1.248l1.528-4.776a.422.422 0 0 1 .16-.232.494.494 0 0 1 .304-.096h.752c.123 0 .227.032.312.096a.402.402 0 0 1 .168.232l1.488 4.776c.064.219.123.432.176.64.059.208.112.416.16.624a44.2 44.2 0 0 1 .12-.616c.043-.208.094-.424.152-.648l1.384-4.752a.49.49 0 0 1 .176-.24.508.508 0 0 1 .312-.096h1.296Zm2.975.968a4.236 4.236 0 0 1 1.104-.792c.4-.203.867-.304 1.4-.304.448 0 .84.075 1.176.224.341.149.627.36.856.632.235.272.411.6.528.984.117.379.176.797.176 1.256V219h-1.712v-5.192c0-.549-.128-.976-.384-1.28-.251-.304-.635-.456-1.152-.456-.384 0-.741.088-1.072.264a3.7 3.7 0 0 0-.92.72V219h-1.72v-11.84h1.72v4.648ZM392.197 214c0-.288-.043-.555-.128-.8-.08-.251-.2-.467-.36-.648a1.585 1.585 0 0 0-.6-.432 1.951 1.951 0 0 0-.816-.16c-.624 0-1.115.179-1.472.536-.357.357-.584.859-.68 1.504h4.056Zm-4.104 1.056c.021.464.093.867.216 1.208.123.336.285.616.488.84.208.224.453.392.736.504.288.107.608.16.96.16.336 0 .627-.037.872-.112a4.65 4.65 0 0 0 .64-.256c.181-.096.336-.181.464-.256a.676.676 0 0 1 .352-.12c.139 0 .245.053.32.16l.488.632c-.203.24-.432.443-.688.608a4.204 4.204 0 0 1-.816.408 4.64 4.64 0 0 1-.888.216 5.69 5.69 0 0 1-.888.072 4.346 4.346 0 0 1-1.576-.28 3.585 3.585 0 0 1-1.256-.84 3.943 3.943 0 0 1-.832-1.368c-.197-.544-.296-1.171-.296-1.88 0-.565.088-1.093.264-1.584.181-.491.437-.917.768-1.28a3.603 3.603 0 0 1 1.216-.856 3.962 3.962 0 0 1 1.624-.32c.501 0 .965.083 1.392.248.427.16.795.397 1.104.712.309.315.549.701.72 1.16.176.453.264.971.264 1.552 0 .267-.029.445-.088.536-.059.091-.165.136-.32.136h-5.24Zm8.86-3.136c.176-.181.357-.344.544-.488.192-.149.395-.277.608-.384.213-.107.44-.189.68-.248.24-.059.501-.088.784-.088.448 0 .84.075 1.176.224.341.149.627.36.856.632.235.272.411.6.528.984.117.379.176.797.176 1.256V219h-1.712v-5.192c0-.549-.128-.976-.384-1.28-.251-.304-.635-.456-1.152-.456-.384 0-.741.088-1.072.264a3.7 3.7 0 0 0-.92.72V219h-1.72v-8.16h1.04c.235 0 .384.109.448.328l.12.752Zm18.179-1.08-4.496 10.48a.82.82 0 0 1-.216.288c-.08.069-.206.104-.376.104h-1.272l1.504-3.264-3.328-7.608h1.496c.144 0 .253.035.328.104.08.064.138.141.176.232l1.944 4.632c.048.133.09.267.128.4.042.128.082.261.12.4.042-.139.085-.275.128-.408.042-.133.09-.267.144-.4l1.864-4.624a.533.533 0 0 1 .184-.24.5.5 0 0 1 .296-.096h1.376Zm4.413-.128a4.31 4.31 0 0 1 1.632.296c.49.197.906.477 1.248.84.346.363.613.803.8 1.32a5.13 5.13 0 0 1 .28 1.744 5.13 5.13 0 0 1-.28 1.744c-.187.517-.454.96-.8 1.328a3.464 3.464 0 0 1-1.248.84 4.31 4.31 0 0 1-1.632.296 4.386 4.386 0 0 1-1.648-.296 3.534 3.534 0 0 1-1.248-.84 3.769 3.769 0 0 1-.8-1.328c-.187-.517-.28-1.099-.28-1.744s.093-1.227.28-1.744a3.69 3.69 0 0 1 .8-1.32 3.534 3.534 0 0 1 1.248-.84 4.386 4.386 0 0 1 1.648-.296Zm0 7.064c.736 0 1.282-.245 1.64-.736.362-.496.544-1.203.544-2.12s-.182-1.624-.544-2.12c-.358-.501-.904-.752-1.64-.752-.747 0-1.302.251-1.664.752-.363.496-.544 1.203-.544 2.12s.181 1.624.544 2.12c.362.491.917.736 1.664.736Zm12.492-6.936V219h-1.04c-.229 0-.376-.109-.44-.328l-.128-.76c-.17.181-.352.347-.544.496a3.361 3.361 0 0 1-.6.384 3.24 3.24 0 0 1-1.464.336c-.448 0-.842-.075-1.184-.224a2.39 2.39 0 0 1-.864-.632 2.775 2.775 0 0 1-.52-.976 4.32 4.32 0 0 1-.176-1.264v-5.192h1.72v5.192c0 .549.126.976.376 1.28.256.304.643.456 1.16.456.379 0 .731-.085 1.056-.256.331-.176.64-.416.928-.72v-5.952h1.72Zm3.713 1.512c.256-.517.565-.923.928-1.216.363-.299.797-.448 1.304-.448.176 0 .341.021.496.064.155.037.293.096.416.176l-.12 1.296c-.021.091-.056.155-.104.192a.287.287 0 0 1-.176.048c-.08 0-.195-.013-.344-.04a2.248 2.248 0 0 0-.472-.048c-.24 0-.453.035-.64.104a1.596 1.596 0 0 0-.496.304 2.095 2.095 0 0 0-.384.488 4.725 4.725 0 0 0-.312.656V219h-1.72v-8.16h1c.181 0 .307.035.376.104.069.064.117.179.144.344l.104 1.064Zm11.451-1.64c.603 0 1.147.099 1.632.296.491.197.907.477 1.248.84.347.363.613.803.8 1.32.187.517.28 1.099.28 1.744s-.093 1.227-.28 1.744c-.187.517-.453.96-.8 1.328a3.447 3.447 0 0 1-1.248.84 4.302 4.302 0 0 1-1.632.296 4.39 4.39 0 0 1-1.648-.296 3.552 3.552 0 0 1-1.248-.84 3.783 3.783 0 0 1-.8-1.328c-.187-.517-.28-1.099-.28-1.744s.093-1.227.28-1.744c.187-.517.453-.957.8-1.32a3.552 3.552 0 0 1 1.248-.84 4.39 4.39 0 0 1 1.648-.296Zm0 7.064c.736 0 1.283-.245 1.64-.736.363-.496.544-1.203.544-2.12s-.181-1.624-.544-2.12c-.357-.501-.904-.752-1.64-.752-.747 0-1.301.251-1.664.752-.363.496-.544 1.203-.544 2.12s.181 1.624.544 2.12c.363.491.917.736 1.664.736Zm7.237-5.424c.256-.517.565-.923.928-1.216.362-.299.797-.448 1.304-.448.176 0 .341.021.496.064.154.037.293.096.416.176l-.12 1.296c-.022.091-.056.155-.104.192a.29.29 0 0 1-.176.048c-.08 0-.195-.013-.344-.04a2.255 2.255 0 0 0-.472-.048c-.24 0-.454.035-.64.104a1.584 1.584 0 0 0-.496.304 2.095 2.095 0 0 0-.384.488 4.725 4.725 0 0 0-.312.656V219h-1.72v-8.16h1c.181 0 .306.035.376.104.069.064.117.179.144.344l.104 1.064Zm9.224.496c-.24-.309-.504-.525-.792-.648a2.358 2.358 0 0 0-.936-.184c-.672 0-1.197.248-1.576.744-.378.491-.568 1.219-.568 2.184 0 .501.043.931.128 1.288.086.352.208.64.368.864.16.224.355.387.584.488.23.101.488.152.776.152.438 0 .814-.093 1.128-.28.32-.192.616-.461.888-.808v-3.8Zm1.72-5.688V219h-1.04c-.229 0-.376-.109-.44-.328l-.152-.888c-.341.4-.73.723-1.168.968-.432.245-.936.368-1.512.368-.458 0-.874-.091-1.248-.272a2.734 2.734 0 0 1-.96-.808c-.266-.352-.474-.787-.624-1.304-.144-.523-.216-1.12-.216-1.792 0-.608.08-1.171.24-1.688.166-.517.4-.965.704-1.344a3.197 3.197 0 0 1 1.104-.896 3.227 3.227 0 0 1 1.464-.328c.48 0 .888.077 1.224.232.336.149.638.36.904.632v-4.392h1.72Zm7.456 6.84c0-.288-.043-.555-.128-.8-.08-.251-.2-.467-.36-.648a1.585 1.585 0 0 0-.6-.432 1.951 1.951 0 0 0-.816-.16c-.624 0-1.115.179-1.472.536-.358.357-.584.859-.68 1.504h4.056Zm-4.104 1.056c.021.464.093.867.216 1.208.122.336.285.616.488.84.208.224.453.392.736.504.288.107.608.16.96.16.336 0 .626-.037.872-.112.245-.08.458-.165.64-.256.181-.096.336-.181.464-.256a.676.676 0 0 1 .352-.12c.138 0 .245.053.32.16l.488.632c-.203.24-.432.443-.688.608a4.204 4.204 0 0 1-.816.408 4.64 4.64 0 0 1-.888.216 5.69 5.69 0 0 1-.888.072 4.342 4.342 0 0 1-1.576-.28 3.585 3.585 0 0 1-1.256-.84 3.928 3.928 0 0 1-.832-1.368c-.198-.544-.296-1.171-.296-1.88 0-.565.088-1.093.264-1.584.181-.491.437-.917.768-1.28a3.603 3.603 0 0 1 1.216-.856 3.962 3.962 0 0 1 1.624-.32c.501 0 .965.083 1.392.248.426.16.794.397 1.104.712.309.315.549.701.72 1.16.176.453.264.971.264 1.552 0 .267-.03.445-.088.536-.059.091-.166.136-.32.136h-5.24Zm8.876-2.704c.256-.517.565-.923.928-1.216.362-.299.797-.448 1.304-.448.176 0 .341.021.496.064.154.037.293.096.416.176l-.12 1.296c-.022.091-.056.155-.104.192a.29.29 0 0 1-.176.048c-.08 0-.195-.013-.344-.04a2.255 2.255 0 0 0-.472-.048c-.24 0-.454.035-.64.104a1.584 1.584 0 0 0-.496.304 2.095 2.095 0 0 0-.384.488 4.725 4.725 0 0 0-.312.656V219h-1.72v-8.16h1c.181 0 .306.035.376.104.069.064.117.179.144.344l.104 1.064Zm9.714-1.512V219h-1.72v-8.16h1.72Zm.288-2.464c0 .155-.032.301-.096.44a1.133 1.133 0 0 1-.248.368 1.315 1.315 0 0 1-.376.248 1.13 1.13 0 0 1-.448.088c-.154 0-.301-.029-.44-.088a1.294 1.294 0 0 1-.352-.248 1.36 1.36 0 0 1-.248-.368 1.151 1.151 0 0 1 0-.888 1.234 1.234 0 0 1 .6-.608 1.04 1.04 0 0 1 .44-.096c.16 0 .31.032.448.096.144.059.27.141.376.248.107.101.19.221.248.36.064.139.096.288.096.448Zm6.746 3.944a.43.43 0 0 1-.144.16.385.385 0 0 1-.2.048.669.669 0 0 1-.296-.08 7.47 7.47 0 0 0-.376-.192 2.987 2.987 0 0 0-.512-.184 2.329 2.329 0 0 0-.68-.088c-.214 0-.408.027-.584.08-.171.048-.318.12-.44.216a.94.94 0 0 0-.272.328.853.853 0 0 0-.096.4.68.68 0 0 0 .176.48c.117.128.272.24.464.336.192.091.41.173.656.248.245.075.496.155.752.24.256.085.506.184.752.296.245.112.464.251.656.416.192.16.346.357.464.592.117.229.176.509.176.84 0 .384-.07.739-.208 1.064a2.405 2.405 0 0 1-.608.848c-.267.24-.6.427-1 .56-.395.133-.848.2-1.36.2a4.21 4.21 0 0 1-.824-.08 4.881 4.881 0 0 1-.752-.2 4.473 4.473 0 0 1-.664-.32 3.59 3.59 0 0 1-.544-.4l.4-.656a.49.49 0 0 1 .448-.256c.112 0 .221.037.328.112.112.069.24.147.384.232.149.085.328.165.536.24.208.069.466.104.776.104.256 0 .477-.029.664-.088.186-.064.341-.149.464-.256a1.04 1.04 0 0 0 .272-.36 1.13 1.13 0 0 0 .088-.44.748.748 0 0 0-.176-.512 1.498 1.498 0 0 0-.472-.344 4.17 4.17 0 0 0-.664-.256 32.019 32.019 0 0 1-.752-.24 8.116 8.116 0 0 1-.76-.296 2.733 2.733 0 0 1-.664-.424 2.042 2.042 0 0 1-.464-.632c-.118-.251-.176-.555-.176-.912 0-.325.064-.635.192-.928.133-.293.325-.552.576-.776a2.8 2.8 0 0 1 .936-.528c.373-.133.802-.2 1.288-.2.549 0 1.048.088 1.496.264.448.176.824.416 1.128.72l-.384.624Zm11.864.12a.878.878 0 0 1-.152.16.335.335 0 0 1-.208.056.547.547 0 0 1-.288-.096 4.467 4.467 0 0 0-.352-.208 2.461 2.461 0 0 0-.488-.216 2.306 2.306 0 0 0-.72-.096 2.29 2.29 0 0 0-.984.2 1.927 1.927 0 0 0-.704.576 2.594 2.594 0 0 0-.424.904c-.09.352-.136.749-.136 1.192 0 .459.051.867.152 1.224.102.357.246.659.432.904.192.245.422.432.688.56.272.128.576.192.912.192.331 0 .6-.04.808-.12.208-.08.382-.168.52-.264.139-.096.256-.184.352-.264a.51.51 0 0 1 .32-.12c.139 0 .246.053.32.16l.488.632a3.18 3.18 0 0 1-.656.608c-.24.165-.493.301-.76.408a4.005 4.005 0 0 1-.832.216 5.29 5.29 0 0 1-.872.072c-.506 0-.981-.093-1.424-.28a3.45 3.45 0 0 1-1.152-.824 4.088 4.088 0 0 1-.776-1.32c-.186-.523-.28-1.117-.28-1.784 0-.603.086-1.16.256-1.672.171-.517.419-.963.744-1.336a3.406 3.406 0 0 1 1.224-.872c.486-.213 1.046-.32 1.68-.32.592 0 1.112.096 1.56.288a3.77 3.77 0 0 1 1.208.816l-.456.624Zm5.307-1.728c.603 0 1.147.099 1.632.296.491.197.907.477 1.248.84.347.363.613.803.8 1.32.187.517.28 1.099.28 1.744s-.093 1.227-.28 1.744c-.187.517-.453.96-.8 1.328a3.447 3.447 0 0 1-1.248.84 4.302 4.302 0 0 1-1.632.296 4.39 4.39 0 0 1-1.648-.296 3.552 3.552 0 0 1-1.248-.84 3.783 3.783 0 0 1-.8-1.328c-.187-.517-.28-1.099-.28-1.744s.093-1.227.28-1.744c.187-.517.453-.957.8-1.32a3.552 3.552 0 0 1 1.248-.84 4.39 4.39 0 0 1 1.648-.296Zm0 7.064c.736 0 1.283-.245 1.64-.736.363-.496.544-1.203.544-2.12s-.181-1.624-.544-2.12c-.357-.501-.904-.752-1.64-.752-.747 0-1.301.251-1.664.752-.363.496-.544 1.203-.544 2.12s.181 1.624.544 2.12c.363.491.917.736 1.664.736Zm5.613 1.224v-8.16h1.04c.234 0 .384.109.448.328l.112.712c.149-.171.304-.325.464-.464a2.784 2.784 0 0 1 1.104-.616c.213-.059.442-.088.688-.088.261 0 .501.037.72.112.218.075.41.181.576.32.17.139.317.307.44.504.122.197.224.419.304.664.122-.283.277-.525.464-.728.186-.203.394-.368.624-.496a2.75 2.75 0 0 1 .728-.28c.261-.064.525-.096.792-.096.437 0 .826.069 1.168.208.346.139.637.341.872.608.24.261.421.584.544.968.122.384.184.821.184 1.312V219h-1.72v-5.192c0-.576-.126-1.008-.376-1.296-.246-.293-.611-.44-1.096-.44-.219 0-.424.037-.616.112a1.45 1.45 0 0 0-.848.872c-.08.213-.12.464-.12.752V219h-1.72v-5.192c0-.597-.12-1.035-.36-1.312-.24-.283-.592-.424-1.056-.424-.32 0-.616.083-.888.248a2.8 2.8 0 0 0-.752.664V219h-1.72Zm15.001-2.048c.24.309.501.528.784.656.288.123.605.184.952.184.672 0 1.195-.245 1.568-.736.379-.491.568-1.221.568-2.192 0-.501-.043-.928-.128-1.28-.085-.357-.208-.648-.368-.872a1.418 1.418 0 0 0-.584-.488 1.905 1.905 0 0 0-.776-.152c-.437 0-.816.096-1.136.288a3.18 3.18 0 0 0-.88.808v3.784Zm-.088-4.928c.341-.4.728-.723 1.16-.968.437-.245.944-.368 1.52-.368.459 0 .875.093 1.248.28.373.181.693.448.96.8.267.352.472.789.616 1.312.149.517.224 1.112.224 1.784 0 .603-.083 1.165-.248 1.688-.16.517-.392.968-.696 1.352a3.327 3.327 0 0 1-1.104.896c-.432.213-.92.32-1.464.32-.48 0-.888-.077-1.224-.232a3.18 3.18 0 0 1-.904-.64v3.464h-1.72V210.84h1.04c.235 0 .384.109.448.328l.144.856Zm9.151-4.864V219h-1.72v-11.84h1.72Zm7.475 6.84c0-.288-.042-.555-.128-.8-.08-.251-.2-.467-.36-.648a1.585 1.585 0 0 0-.6-.432 1.945 1.945 0 0 0-.816-.16c-.624 0-1.114.179-1.472.536-.357.357-.584.859-.68 1.504h4.056Zm-4.104 1.056c.022.464.094.867.216 1.208.123.336.286.616.488.84.208.224.454.392.736.504.288.107.608.16.96.16.336 0 .627-.037.872-.112a4.6 4.6 0 0 0 .64-.256c.182-.096.336-.181.464-.256a.679.679 0 0 1 .352-.12c.139 0 .246.053.32.16l.488.632c-.202.24-.432.443-.688.608a4.204 4.204 0 0 1-.816.408 4.64 4.64 0 0 1-.888.216 5.69 5.69 0 0 1-.888.072 4.35 4.35 0 0 1-1.576-.28 3.594 3.594 0 0 1-1.256-.84 3.943 3.943 0 0 1-.832-1.368c-.197-.544-.296-1.171-.296-1.88 0-.565.088-1.093.264-1.584.182-.491.438-.917.768-1.28a3.613 3.613 0 0 1 1.216-.856 3.966 3.966 0 0 1 1.624-.32c.502 0 .966.083 1.392.248.427.16.795.397 1.104.712.31.315.55.701.72 1.16.176.453.264.971.264 1.552 0 .267-.029.445-.088.536-.058.091-.165.136-.32.136h-5.24Zm9.79 4.072c-.677 0-1.2-.189-1.568-.568-.363-.384-.544-.923-.544-1.616v-4.752h-.896a.37.37 0 0 1-.248-.088c-.069-.064-.104-.157-.104-.28v-.696l1.32-.192.376-2.36a.43.43 0 0 1 .136-.216.362.362 0 0 1 .256-.088h.88v2.68h2.264v1.24h-2.264v4.632c0 .293.072.517.216.672a.748.748 0 0 0 .576.232c.133 0 .248-.016.344-.048.096-.037.179-.075.248-.112.069-.043.128-.08.176-.112a.27.27 0 0 1 .152-.056c.096 0 .173.053.232.16l.512.84a2.839 2.839 0 0 1-.944.544 3.465 3.465 0 0 1-1.12.184Zm8.517-5.128c0-.288-.042-.555-.128-.8-.08-.251-.2-.467-.36-.648a1.585 1.585 0 0 0-.6-.432 1.945 1.945 0 0 0-.816-.16c-.624 0-1.114.179-1.472.536-.357.357-.584.859-.68 1.504h4.056Zm-4.104 1.056c.022.464.094.867.216 1.208.123.336.286.616.488.84.208.224.454.392.736.504.288.107.608.16.96.16.336 0 .627-.037.872-.112a4.6 4.6 0 0 0 .64-.256c.182-.096.336-.181.464-.256a.679.679 0 0 1 .352-.12c.139 0 .246.053.32.16l.488.632c-.202.24-.432.443-.688.608a4.204 4.204 0 0 1-.816.408 4.64 4.64 0 0 1-.888.216 5.69 5.69 0 0 1-.888.072 4.35 4.35 0 0 1-1.576-.28 3.594 3.594 0 0 1-1.256-.84 3.943 3.943 0 0 1-.832-1.368c-.197-.544-.296-1.171-.296-1.88 0-.565.088-1.093.264-1.584.182-.491.438-.917.768-1.28a3.613 3.613 0 0 1 1.216-.856 3.966 3.966 0 0 1 1.624-.32c.502 0 .966.083 1.392.248.427.16.795.397 1.104.712.31.315.55.701.72 1.16.176.453.264.971.264 1.552 0 .267-.029.445-.088.536-.058.091-.165.136-.32.136h-5.24Zm12.46-2.208c-.24-.309-.504-.525-.792-.648a2.358 2.358 0 0 0-.936-.184c-.672 0-1.197.248-1.576.744-.378.491-.568 1.219-.568 2.184 0 .501.043.931.128 1.288.086.352.208.64.368.864.16.224.355.387.584.488.23.101.488.152.776.152.438 0 .814-.093 1.128-.28.32-.192.616-.461.888-.808v-3.8Zm1.72-5.688V219h-1.04c-.229 0-.376-.109-.44-.328l-.152-.888c-.341.4-.73.723-1.168.968-.432.245-.936.368-1.512.368-.458 0-.874-.091-1.248-.272a2.734 2.734 0 0 1-.96-.808c-.266-.352-.474-.787-.624-1.304-.144-.523-.216-1.12-.216-1.792 0-.608.08-1.171.24-1.688.166-.517.4-.965.704-1.344a3.197 3.197 0 0 1 1.104-.896 3.227 3.227 0 0 1 1.464-.328c.48 0 .888.077 1.224.232.336.149.638.36.904.632v-4.392h1.72Zm1.84 10.848a1.137 1.137 0 0 1 .312-.792 1.108 1.108 0 0 1 .792-.328 1.146 1.146 0 0 1 .792.328 1.124 1.124 0 0 1 .328.792 1.09 1.09 0 0 1-.688 1.024 1.06 1.06 0 0 1-.432.088c-.155 0-.302-.029-.44-.088a1.028 1.028 0 0 1-.352-.232 1.21 1.21 0 0 1-.232-.352 1.16 1.16 0 0 1-.08-.44Z"/>
  <path fill="#101750" d="m125.787 122.324-9.648-17.352h4.284l7.74 14.364-1.08.072 7.668-14.436h4.248l-9.72 17.352V131h-3.492v-8.676Zm12.022 1.08c0-1.488.348-2.832 1.044-4.032a7.816 7.816 0 0 1 2.952-2.844c1.248-.696 2.664-1.044 4.248-1.044 1.632 0 3.06.348 4.284 1.044a7.361 7.361 0 0 1 2.844 2.844c.672 1.2 1.008 2.544 1.008 4.032s-.336 2.844-1.008 4.068c-.672 1.2-1.632 2.148-2.88 2.844-1.224.696-2.652 1.044-4.284 1.044-1.584 0-3-.324-4.248-.972a7.706 7.706 0 0 1-2.916-2.772c-.696-1.2-1.044-2.604-1.044-4.212Zm3.348.036c0 .96.216 1.836.648 2.628a5.082 5.082 0 0 0 1.728 1.836c.744.456 1.56.684 2.448.684.936 0 1.764-.228 2.484-.684a4.707 4.707 0 0 0 1.728-1.836c.408-.792.612-1.668.612-2.628 0-.96-.204-1.824-.612-2.592a4.645 4.645 0 0 0-1.728-1.872c-.72-.48-1.548-.72-2.484-.72-.912 0-1.74.24-2.484.72a5.302 5.302 0 0 0-1.728 1.908c-.408.768-.612 1.62-.612 2.556Zm22.282 8.136c-1.344 0-2.46-.408-3.348-1.224-.864-.84-1.32-1.92-1.368-3.24v-11.016h3.348v9.828c.048.816.276 1.476.684 1.98.432.504 1.104.768 2.016.792.84 0 1.584-.24 2.232-.72.672-.504 1.212-1.176 1.62-2.016.408-.864.612-1.836.612-2.916v-6.948h3.348V131h-3.06l-.288-3.672.18.648a5.271 5.271 0 0 1-1.332 1.872 6.558 6.558 0 0 1-2.052 1.26c-.792.312-1.656.468-2.592.468Zm17.924-15.48.324 4.32-.18-.576a6.168 6.168 0 0 1 1.656-2.304c.744-.648 1.512-1.14 2.304-1.476.816-.36 1.524-.54 2.124-.54l-.18 3.312c-1.128-.072-2.124.144-2.988.648a5.791 5.791 0 0 0-2.016 2.016c-.48.84-.72 1.74-.72 2.7V131h-3.312v-14.904h2.988Zm21.146 1.908c0-1.8.336-3.492 1.008-5.076a13.578 13.578 0 0 1 2.88-4.248 13.403 13.403 0 0 1 4.212-2.916c1.608-.72 3.336-1.08 5.184-1.08 1.824 0 3.528.36 5.112 1.08a13.287 13.287 0 0 1 4.248 2.916 13.287 13.287 0 0 1 2.916 4.248c.696 1.584 1.044 3.276 1.044 5.076 0 1.848-.348 3.576-1.044 5.184a13.287 13.287 0 0 1-2.916 4.248 13.892 13.892 0 0 1-4.248 2.844c-1.584.672-3.288 1.008-5.112 1.008-1.848 0-3.576-.336-5.184-1.008a13.487 13.487 0 0 1-4.212-2.808 13.152 13.152 0 0 1-2.88-4.212c-.672-1.608-1.008-3.36-1.008-5.256Zm3.6.036c0 1.368.252 2.652.756 3.852.504 1.176 1.2 2.22 2.088 3.132a9.992 9.992 0 0 0 3.096 2.16c1.176.504 2.448.756 3.816.756a9.494 9.494 0 0 0 3.78-.756 9.565 9.565 0 0 0 3.06-2.16 10.566 10.566 0 0 0 2.052-3.132c.504-1.2.756-2.496.756-3.888a9.845 9.845 0 0 0-.756-3.852 9.999 9.999 0 0 0-2.088-3.204 9.503 9.503 0 0 0-3.096-2.124 9.122 9.122 0 0 0-3.78-.792c-1.368 0-2.64.264-3.816.792a9.992 9.992 0 0 0-3.096 2.16 9.523 9.523 0 0 0-2.052 3.204c-.48 1.2-.72 2.484-.72 3.852Zm31.047-1.944.324 4.32-.18-.576a6.168 6.168 0 0 1 1.656-2.304c.744-.648 1.512-1.14 2.304-1.476.816-.36 1.524-.54 2.124-.54l-.18 3.312c-1.128-.072-2.124.144-2.988.648a5.791 5.791 0 0 0-2.016 2.016c-.48.84-.72 1.74-.72 2.7V131h-3.312v-14.904h2.988Zm15.962 15.264c-1.368 0-2.616-.324-3.744-.972-1.104-.672-1.98-1.608-2.628-2.808-.648-1.224-.972-2.628-.972-4.212 0-1.656.336-3.072 1.008-4.248a7.06 7.06 0 0 1 2.808-2.7c1.176-.624 2.496-.936 3.96-.936 1.176 0 2.292.252 3.348.756 1.08.504 1.92 1.2 2.52 2.088l-.144 1.188v-16.38h3.312V131h-3.348v-3.708l.36.936c-.696.912-1.596 1.668-2.7 2.268-1.104.576-2.364.864-3.78.864Zm1.044-2.844c.888 0 1.68-.156 2.376-.468a4.865 4.865 0 0 0 1.728-1.368c.456-.576.78-1.26.972-2.052v-2.808a4.253 4.253 0 0 0-1.044-1.872 5.03 5.03 0 0 0-1.764-1.296c-.672-.336-1.428-.504-2.268-.504-.912 0-1.752.228-2.52.684a4.978 4.978 0 0 0-1.8 1.8c-.456.768-.684 1.656-.684 2.664 0 .984.228 1.872.684 2.664a5.48 5.48 0 0 0 1.836 1.872 4.781 4.781 0 0 0 2.484.684Zm21.16 2.844c-1.704 0-3.168-.336-4.392-1.008-1.224-.696-2.172-1.632-2.844-2.808-.648-1.2-.972-2.568-.972-4.104 0-1.464.372-2.796 1.116-3.996a8.386 8.386 0 0 1 2.988-2.88c1.248-.72 2.64-1.08 4.176-1.08 1.968 0 3.6.576 4.896 1.728 1.296 1.152 2.172 2.736 2.628 4.752l-12.276 4.32-.792-1.98 10.08-3.672-.72.468a4.86 4.86 0 0 0-1.44-2.052c-.672-.6-1.548-.9-2.628-.9-.912 0-1.728.228-2.448.684a4.532 4.532 0 0 0-1.692 1.8c-.408.768-.612 1.644-.612 2.628 0 1.032.216 1.944.648 2.736a4.981 4.981 0 0 0 1.764 1.836c.768.432 1.632.648 2.592.648.648 0 1.272-.12 1.872-.36.624-.24 1.2-.552 1.728-.936l1.548 2.484c-.744.504-1.584.912-2.52 1.224a8.305 8.305 0 0 1-2.7.468Zm14.779-15.264.324 4.32-.18-.576a6.168 6.168 0 0 1 1.656-2.304c.744-.648 1.512-1.14 2.304-1.476.816-.36 1.524-.54 2.124-.54l-.18 3.312c-1.128-.072-2.124.144-2.988.648a5.791 5.791 0 0 0-2.016 2.016c-.48.84-.72 1.74-.72 2.7V131h-3.312v-14.904h2.988Zm22.766-11.124h3.492V131h-3.492v-26.028Zm14.317 26.316a9.14 9.14 0 0 1-3.096-.54c-.984-.384-1.8-.948-2.448-1.692l1.404-1.944c.624.6 1.26 1.056 1.908 1.368.672.288 1.332.432 1.98.432.48 0 .924-.06 1.332-.18.408-.12.732-.312.972-.576.264-.288.396-.672.396-1.152 0-.528-.18-.948-.54-1.26-.336-.312-.78-.564-1.332-.756a23.487 23.487 0 0 0-1.692-.54c-1.224-.408-2.16-.972-2.808-1.692-.648-.72-.972-1.596-.972-2.628 0-.792.192-1.524.576-2.196.408-.696.996-1.26 1.764-1.692.792-.432 1.764-.648 2.916-.648 1.032 0 1.956.132 2.772.396a6.7 6.7 0 0 1 2.304 1.224l-1.332 2.088a3.94 3.94 0 0 0-1.548-1.008c-.6-.216-1.14-.336-1.62-.36a2.868 2.868 0 0 0-1.188.18c-.36.144-.66.348-.9.612s-.36.576-.36.936c0 .504.168.912.504 1.224.336.312.768.564 1.296.756.552.168 1.092.348 1.62.54a7.84 7.84 0 0 1 1.98.864c.576.36 1.032.804 1.368 1.332.36.528.54 1.188.54 1.98 0 .888-.216 1.716-.648 2.484-.408.744-1.044 1.344-1.908 1.8-.84.432-1.92.648-3.24.648Zm41.819-2.232c-.432.288-1.02.612-1.764.972s-1.62.66-2.628.9c-.984.24-2.064.36-3.24.36-2.016-.024-3.84-.384-5.472-1.08-1.608-.696-2.976-1.644-4.104-2.844a13.076 13.076 0 0 1-2.628-4.14c-.6-1.584-.9-3.264-.9-5.04 0-1.944.312-3.732.936-5.364.648-1.656 1.548-3.084 2.7-4.284a12.097 12.097 0 0 1 4.068-2.844c1.584-.672 3.312-1.008 5.184-1.008 1.56 0 2.976.216 4.248.648 1.272.408 2.364.9 3.276 1.476l-1.404 3.24c-.72-.48-1.596-.936-2.628-1.368-1.008-.432-2.136-.648-3.384-.648a8.725 8.725 0 0 0-3.6.756 9.318 9.318 0 0 0-2.988 2.124 10.322 10.322 0 0 0-2.052 3.204c-.48 1.2-.72 2.496-.72 3.888 0 1.416.216 2.736.648 3.96a9.63 9.63 0 0 0 1.908 3.132 8.974 8.974 0 0 0 3.024 2.088c1.176.504 2.496.756 3.96.756 1.32 0 2.496-.204 3.528-.612 1.032-.408 1.884-.864 2.556-1.368l1.476 3.096Zm3.756-5.652c0-1.488.348-2.832 1.044-4.032a7.816 7.816 0 0 1 2.952-2.844c1.248-.696 2.664-1.044 4.248-1.044 1.632 0 3.06.348 4.284 1.044a7.361 7.361 0 0 1 2.844 2.844c.672 1.2 1.008 2.544 1.008 4.032s-.336 2.844-1.008 4.068c-.672 1.2-1.632 2.148-2.88 2.844-1.224.696-2.652 1.044-4.284 1.044-1.584 0-3-.324-4.248-.972a7.706 7.706 0 0 1-2.916-2.772c-.696-1.2-1.044-2.604-1.044-4.212Zm3.348.036c0 .96.216 1.836.648 2.628a5.082 5.082 0 0 0 1.728 1.836c.744.456 1.56.684 2.448.684.936 0 1.764-.228 2.484-.684a4.707 4.707 0 0 0 1.728-1.836c.408-.792.612-1.668.612-2.628 0-.96-.204-1.824-.612-2.592a4.645 4.645 0 0 0-1.728-1.872c-.72-.48-1.548-.72-2.484-.72-.912 0-1.74.24-2.484.72a5.302 5.302 0 0 0-1.728 1.908c-.408.768-.612 1.62-.612 2.556Zm20.553-7.344.288 3.348-.144-.288c.552-1.128 1.332-2.016 2.34-2.664 1.032-.648 2.208-.972 3.528-.972.84 0 1.584.132 2.232.396a3.875 3.875 0 0 1 1.584 1.152c.432.48.708 1.08.828 1.8l-.18.108c.576-1.08 1.368-1.92 2.376-2.52 1.032-.624 2.112-.936 3.24-.936 1.464 0 2.616.42 3.456 1.26.864.816 1.308 1.884 1.332 3.204V131h-3.348v-9.828c-.024-.768-.216-1.404-.576-1.908-.336-.528-.936-.816-1.8-.864-.864 0-1.644.264-2.34.792-.672.528-1.2 1.212-1.584 2.052a6.571 6.571 0 0 0-.612 2.664V131h-3.348v-9.828c-.024-.768-.228-1.404-.612-1.908-.36-.528-.972-.816-1.836-.864-.888 0-1.668.264-2.34.792-.672.528-1.2 1.212-1.584 2.052-.36.84-.54 1.74-.54 2.7V131h-3.348v-14.904h2.988Zm35.503 15.264a7.24 7.24 0 0 1-3.276-.792c-1.032-.528-1.836-1.236-2.412-2.124l.216-1.044v10.764h-3.312V115.88h2.88l.468 3.816-.36-1.044c.72-.912 1.632-1.668 2.736-2.268 1.104-.6 2.34-.9 3.708-.9 1.392 0 2.64.336 3.744 1.008 1.128.672 2.016 1.608 2.664 2.808.648 1.2.972 2.604.972 4.212 0 1.608-.348 3-1.044 4.176a7.187 7.187 0 0 1-2.88 2.736c-1.2.624-2.568.936-4.104.936Zm-.648-2.664c.96 0 1.836-.216 2.628-.648a5.295 5.295 0 0 0 1.944-1.836c.48-.792.72-1.68.72-2.664 0-1.008-.228-1.896-.684-2.664a5.09 5.09 0 0 0-1.836-1.872c-.744-.456-1.584-.684-2.52-.684-.864 0-1.644.168-2.34.504a4.705 4.705 0 0 0-1.728 1.404 5.257 5.257 0 0 0-.972 2.016v2.484c.12.768.408 1.452.864 2.052.456.6 1.02 1.068 1.692 1.404.696.336 1.44.504 2.232.504Zm13.204-25.56h3.348V131h-3.348v-27.864Zm16.052 28.224c-1.704 0-3.168-.336-4.392-1.008-1.224-.696-2.172-1.632-2.844-2.808-.648-1.2-.972-2.568-.972-4.104 0-1.464.372-2.796 1.116-3.996a8.386 8.386 0 0 1 2.988-2.88c1.248-.72 2.64-1.08 4.176-1.08 1.968 0 3.6.576 4.896 1.728 1.296 1.152 2.172 2.736 2.628 4.752l-12.276 4.32-.792-1.98 10.08-3.672-.72.468a4.86 4.86 0 0 0-1.44-2.052c-.672-.6-1.548-.9-2.628-.9-.912 0-1.728.228-2.448.684a4.532 4.532 0 0 0-1.692 1.8c-.408.768-.612 1.644-.612 2.628 0 1.032.216 1.944.648 2.736a4.981 4.981 0 0 0 1.764 1.836c.768.432 1.632.648 2.592.648.648 0 1.272-.12 1.872-.36.624-.24 1.2-.552 1.728-.936l1.548 2.484c-.744.504-1.584.912-2.52 1.224a8.305 8.305 0 0 1-2.7.468Zm13.231-21.816h3.348v6.624h4.104v2.628h-4.104V131h-3.348v-12.204h-2.736v-2.628h2.736v-6.624Zm18.41 21.816c-1.704 0-3.168-.336-4.392-1.008-1.224-.696-2.172-1.632-2.844-2.808-.648-1.2-.972-2.568-.972-4.104 0-1.464.372-2.796 1.116-3.996a8.386 8.386 0 0 1 2.988-2.88c1.248-.72 2.64-1.08 4.176-1.08 1.968 0 3.6.576 4.896 1.728 1.296 1.152 2.172 2.736 2.628 4.752l-12.276 4.32-.792-1.98 10.08-3.672-.72.468a4.86 4.86 0 0 0-1.44-2.052c-.672-.6-1.548-.9-2.628-.9-.912 0-1.728.228-2.448.684a4.532 4.532 0 0 0-1.692 1.8c-.408.768-.612 1.644-.612 2.628 0 1.032.216 1.944.648 2.736a4.981 4.981 0 0 0 1.764 1.836c.768.432 1.632.648 2.592.648.648 0 1.272-.12 1.872-.36.624-.24 1.2-.552 1.728-.936l1.548 2.484c-.744.504-1.584.912-2.52 1.224a8.305 8.305 0 0 1-2.7.468Zm17.839 0c-1.368 0-2.616-.324-3.744-.972-1.104-.672-1.98-1.608-2.628-2.808-.648-1.224-.972-2.628-.972-4.212 0-1.656.336-3.072 1.008-4.248a7.06 7.06 0 0 1 2.808-2.7c1.176-.624 2.496-.936 3.96-.936 1.176 0 2.292.252 3.348.756 1.08.504 1.92 1.2 2.52 2.088l-.144 1.188v-16.38h3.312V131h-3.348v-3.708l.36.936c-.696.912-1.596 1.668-2.7 2.268-1.104.576-2.364.864-3.78.864Zm1.044-2.844c.888 0 1.68-.156 2.376-.468a4.865 4.865 0 0 0 1.728-1.368c.456-.576.78-1.26.972-2.052v-2.808a4.253 4.253 0 0 0-1.044-1.872 5.03 5.03 0 0 0-1.764-1.296c-.672-.336-1.428-.504-2.268-.504-.912 0-1.752.228-2.52.684a4.978 4.978 0 0 0-1.8 1.8c-.456.768-.684 1.656-.684 2.664 0 .984.228 1.872.684 2.664a5.48 5.48 0 0 0 1.836 1.872 4.781 4.781 0 0 0 2.484.684Zm13.384-24.84h3.024v20.592h-3.024v-20.592Zm1.62 27.18c-.624 0-1.14-.18-1.548-.54a1.745 1.745 0 0 1-.612-1.368c0-.552.204-1.008.612-1.368.408-.384.924-.576 1.548-.576.6 0 1.092.192 1.476.576.408.36.612.816.612 1.368 0 .552-.204 1.008-.612 1.368-.384.36-.876.54-1.476.54Z"/>
  <circle cx="322.5" cy="39.5" r="32.5" fill="#fff"/>
  <path fill="#FF1788" stroke="#FF1788" d="m300.311 46.5 13 11c1.418 1.2 2.924-.5 3.5-1.5l4.5-6c-.5.167.5-1.8 8.5-11 10-11.5 11-10 16-13 1.2-4-1.834-5-3.5-5-.667.333-2.5 1.3-4.5 2.5-5.2 3.2-13.167 11.667-16.5 15.5l-8 10c-.833-.833-3.7-3.5-8.5-7.5-5.2-.8-5.167 3-4.5 5Z"/>
</svg>
