<svg xmlns="http://www.w3.org/2000/svg" width="723" height="692" fill="none" viewBox="0 0 723 692">
  <path fill="#CBD5FC" d="M620.944 463.961C596.909 500.42 555.7 521.85 512.032 521.85H149.591c-72.85 0-113.701-85.176-66.455-133.138 47.245-47.963 5.514-88.927 78.388-127.387 70.6-37.262 94.704 42.163 159.742-9.807 65.04-51.968 159.729-47.066 180.533 5.884 20.803 52.95 15.902 71.584 60.026 83.35 44.125 11.764 87.269 78.442 60.794 120.606a138.04 138.04 0 0 1-1.675 2.603Z"/>
  <path fill="#C8DDF5" d="M604.831 478.742c-38.182 3.238-63.921 74.808-159.37 31.79 0 0 10.481-31.243 57.432-50.719 46.949-19.475 101.938 18.929 101.938 18.929Z"/>
  <path fill="#ACBED3" d="M458.496 505.173c9.965-5.181 20.301-9.648 30.857-13.533 2.626-1.009 5.289-1.917 7.961-2.802 2.66-.921 5.354-1.737 8.044-2.569 2.68-.864 5.409-1.565 8.128-2.303 1.36-.362 2.716-.746 4.083-1.089l4.11-.986 4.121-.945 4.15-.817 4.151-.815c1.384-.265 2.781-.471 4.175-.684 2.792-.411 5.572-.88 8.384-1.148 2.808-.291 5.6-.697 8.425-.802 11.244-.816 22.614-.632 33.701 1.245-11.231-.272-22.366.393-33.409 1.754l-2.073.235-2.062.317-4.129.603c-2.756.353-5.486.906-8.222 1.401-1.365.267-2.742.459-4.105.743l-4.085.847-4.084.85-4.06.973-4.069.93c-1.354.324-2.697.691-4.046 1.033l-4.045 1.046c-1.35.342-2.679.76-4.027 1.114-2.688.737-5.38 1.458-8.043 2.287-2.667.811-5.352 1.571-8.009 2.424-10.659 3.32-21.223 6.976-31.822 10.691Z"/>
  <path fill="#6C83DC" d="M609.504 356.944c-46.588 33.302-25.037 144.904-180.508 162.477 0 0-10.379-48.145 35.084-108.998 45.463-60.854 145.424-53.479 145.424-53.479Z"/>
  <path fill="#C8DDF5" d="M439.34 505.974c6.781-14.69 15.15-28.662 24.566-41.887 9.388-13.253 19.915-25.724 31.38-37.274 11.48-11.527 23.918-22.159 37.378-31.336 13.418-9.174 27.894-17.068 43.335-21.987-14.331 7.515-27.61 16.447-40.223 26.243-12.565 9.85-24.447 20.533-35.703 31.847-11.266 11.312-21.881 23.268-31.985 35.683-10.071 12.449-19.538 25.408-28.748 38.711Zm-332.399-37.18c37.86 5.92 58.494 79.125 156.736 42.934 0 0-8.255-31.904-53.717-54.636-45.463-22.733-103.019 11.702-103.019 11.702Z"/>
  <path fill="#ACBED3" d="M251.053 505.465c-10.311-4.451-20.592-8.842-30.99-12.906-2.591-1.037-5.215-1.984-7.818-2.981-2.598-1.015-5.235-1.923-7.862-2.847-1.32-.448-2.616-.959-3.939-1.395l-3.961-1.328c-1.321-.437-2.636-.897-3.963-1.316l-3.993-1.215-3.982-1.256-4.015-1.135-4.015-1.134c-1.339-.379-2.699-.667-4.041-1.03-2.695-.686-5.379-1.43-8.104-1.976l-4.076-.892-2.036-.462-2.049-.379c-10.921-2.137-21.982-3.584-33.203-4.104 11.191-1.089 22.546-.474 33.705 1.132 2.81.304 5.567.904 8.347 1.394 2.786.466 5.526 1.129 8.282 1.736 1.376.309 2.754.613 4.117.975l4.082 1.106 4.083 1.107 4.044 1.232 4.031 1.274c1.339.437 2.664.917 3.996 1.373 2.661.927 5.332 1.821 7.946 2.87 2.625 1.02 5.255 2.023 7.843 3.13 2.602 1.07 5.195 2.163 7.744 3.355 10.256 4.619 20.252 9.802 29.827 15.672Z"/>
  <path fill="#6C83DC" d="M132.107 351.819c41.952 34.7 14.042 139.093 160.305 166.166 0 0 13.066-44.961-25.974-105.715-39.04-60.754-134.331-60.451-134.331-60.451Z"/>
  <path fill="#C8DDF5" d="M283.504 504.542c-7.905-13.204-16.044-26.103-24.78-38.565-8.77-12.432-18.039-24.469-27.96-35.944-9.912-11.478-20.452-22.404-31.686-32.602-11.283-10.147-23.247-19.531-36.303-27.678 14.345 5.637 27.576 14.068 39.707 23.653 12.175 9.589 23.272 20.503 33.392 32.211 10.104 11.725 19.249 24.27 27.246 37.485 8.027 13.19 14.999 27.023 20.384 41.44Z"/>
  <path fill="#FFA498" d="M378.819 449.003c-5.252 6.237-10.011 16.576-12.965 18.218-2.954 1.641-7.935 2.211-12.643 17.363-4.707 15.15 19.057 13.076 19.057 13.076s10.162-5.836 14.265-19.935l10.175-9.027-17.889-19.695Z"/>
  <path fill="#C57E75" d="M360.437 495.999s7.692-2.505 14.216-9.395c6.549-6.917 7.393-19.224 7.393-19.224l3.136 5.861 6.274-6.705 3.024-.292 2.23 2.454-10.176 9.027c-4.103 14.099-14.264 19.936-14.264 19.936s-6.551.567-12.092-1.083c.142-.358.259-.579.259-.579Z"/>
  <path fill="#DC466F" d="M414.448 394.738c-7.279 5.322-11.622 9.183-15.241 16.421-3.62 7.239-26.302 33.245-27.749 35.565-1.449 2.319 12.747 26.931 24.108 32.963 0 0 17.153-19.787 27.046-27.266 9.893-7.481 6.516-34.023 1.931-42.951-4.585-8.928-10.095-14.732-10.095-14.732Z"/>
  <path fill="#D12050" d="M414.183 442.63v-14.774s1.925-.771 3.428 4.215c.599 1.995.554 4.093.286 5.898l11.044-8.305c.456 9.297-1.036 18.755-6.329 22.757-9.893 7.479-27.045 27.266-27.045 27.266-2.932-1.556-6.051-4.353-9.042-7.681 6.985-6.954 20.236-20.378 27.658-29.376Z"/>
  <path fill="#FFA498" d="M343.618 491.824c-1.889.59-3.284 1.493-3.284 3.872 0 2.38.41 6.155 1.313 7.631.903 1.478 5.563 2.363 5.563 2.363s-.311-9.83-1.296-11.635c-.985-1.806-2.296-2.231-2.296-2.231Z"/>
  <path fill="#C57E75" d="M341.646 503.328c-.253-.415-.465-1.022-.642-1.719 1.011.994 1.351 1.002 2.589 1.132l3.539 1.104c.054 1.106.078 1.846.078 1.846s-4.661-.886-5.564-2.363Z"/>
  <path fill="#FFA498" d="M348.13 488.229c-2.298.246-4.596 1.97-4.596 4.349 0 2.379-.819 9.027 0 10.094.822 1.066 4.843 4.102 6.237 4.349 1.395.246 3.765-.165 3.441-.904-.322-.737-5.082-17.888-5.082-17.888Z"/>
  <path fill="#C57E75" d="M343.186 500.885c1.741 1.967 6.196 1.79 6.196 1.79s1.958 2.091 2.2 2.763c.145.405.947.939 1.056 1.353-.735.28-1.993.385-2.867.231-1.369-.243-5.252-3.161-6.177-4.28l-.408-1.852v-.005Z"/>
  <path fill="#FFA498" d="M356.74 484.303c-7.05.398-8.363 1.054-8.609 3.926-.247 2.872-.082 11.242.819 13.377.904 2.132 1.396 4.02 2.545 5.168 1.149 1.149 2.868 1.154 2.868 1.154s3.861-5.666 4.025-10.426c.164-4.759-1.648-13.199-1.648-13.199Z"/>
  <path fill="#C57E75" d="M352.685 503.212c.358-1.948 1.151-4.026 1.251-10.549.038-2.45 2.31 10.346 1.296 13.858-.506.872-.869 1.407-.869 1.407s-1.718-.005-2.867-1.154-1.641-3.037-2.545-5.169a4.528 4.528 0 0 1-.166-.495c.46 1.197 1.921 1.982 3.9 2.102Z"/>
  <path fill="#FFA498" d="M372.173 498.733c-.443 3.921-5.58 5.333-6.155 7.302-.573 1.97-.164 3.776-1.148 4.267-.985.494-5.088-1.804-4.923-4.429 0 0-1.068 2.214-3.448 2.625-2.379.41-2.954-1.328-2.543-3.947.41-2.618.329-4.014.246-7.131-.082-3.119-.821-5.99.574-9.438 1.395-3.445 3.283-6.482 7.058-5.907 3.774.574 6.072 5.333 8.123 6.975 2.052 1.64 2.708 5.334 2.216 9.683Z"/>
  <path fill="#C57E75" d="M359.947 505.872c.23-4.987.49-9.069.49-9.873 0-.805-.26-6.098 1.622-6.419.285-.049 4.423 2.573 4.503 4.342.081 1.77 0 4.948-1.286 5.852-1.287.906-5.329 6.098-5.329 6.098Z"/>
  <path fill="#DC466F" d="M530.952 405.368c-7.48-9.49-10.054-10.456-17.775-14.959-7.722-4.505-36.999-15.926-43.032-17.374-6.031-1.448-30.361 9.893-38.345 13.512-7.982 3.62-18.141 7.181-19.871 10.709-5.795 11.807 5.681 28.542 5.741 63.611.032 18.366 4.217 59.669 4.217 59.669s91.933.172 93.22-1.76c1.287-1.93 4.505-67.883 6.113-81.396 1.609-13.512 9.732-32.012 9.732-32.012Z"/>
  <path fill="#D12050" d="M412.267 415.744c-.689-2.221-1.098-4.482-1.443-6.751-.314-2.275-.562-4.558-.528-6.883.691 2.22 1.101 4.481 1.442 6.751.314 2.275.561 4.558.529 6.883Zm34.378-13.814c-3.552-1.327-11.967.981-13.506 1.516-1.538.535.905-6.04 1.81-6.854.904-.815 2.353-2.711 5.128-1.853 2.775.858 5.107 4.034 5.509 5.08.402 1.045 1.059 2.111 1.059 2.111Zm29.595 5.489c-1.266-.06-8.657-3.459-10.425-4.303-1.77-.845-9.786-1.239-15.169.265 0 0 10.363-7.001 16.395-6.941 6.032.061 8.325 2.232 8.807 4.163.483 1.93.392 6.816.392 6.816Zm-39.52 98.328c.987-.966 61.027.966 62.234-5.308 1.205-6.273 2.036-17.684 2.036-17.684-7.228 3.862-17.721 2.254-17.721 2.254 6.997-2.285 17.132-13.767 17.614-17.145 1.488-10.407-4.073-39.098-4.073-39.098l4.073-8.196 4.767-2.655s9.037 4.501 16.764 12.78c-.521 2.292-.939 4.55-1.193 6.685-1.516 12.74-4.463 72.083-5.873 80.449-18.596.686-52.307 1.92-74.863 2.695-10.929.026-18.598.012-18.598.012s-.14-5.433-.469-13.224c6.292-.367 14.691-.967 15.302-1.565Z"/>
  <path fill="#DC466F" d="M448.912 403.678c6.478-.78 16.89-6.394 20.993-4.463 4.102 1.93 5.066 6.876 5.911 7.721.844.844 4.464-3.379 4.464-13.753 0-10.377.318-21.001-7.321-22.444-7.639-1.445-27.425 6.035-31.407 9.051-3.98 3.016-5.67 6.072-6.755 9.008-1.087 2.936-3.982 14.759-2.655 14.88 1.327.122 5.067-7.6 7.842-7.842 2.775-.241 7.174 8.054 8.928 7.842Z"/>
  <path fill="#D12050" d="M445.227 394.39c-1.652-3.921-3.461-7.36-3.401-10.074.061-2.716.663-4.585 3.68-5.429 3.015-.845 4.283.783 4.464 4.886.18 4.101-4.743 10.617-4.743 10.617Zm23.652-7.311c6.306-5.719 7.02-12.114 6.428-13.441-.593-1.327-3.197-2.293-3.197-2.293s-1.025 4.163-.422 5.189c.602 1.024-2.809 10.545-2.809 10.545Zm-10.039 13.83c1.536-.691 3.14-1.228 4.775-1.673 1.643-.399 3.33-.718 5.084-.604.865.064 1.794.254 2.568.866.683.644 1.201 1.226 1.781 1.887 1.149 1.305 1.941 2.889 2.669 4.378.16.343.415.747.526.783.014.005.008.026.138-.056.109-.076.236-.208.351-.353.471-.601.856-1.352 1.232-2.084.759-1.443 1.167-3.045 1.49-4.675.314-1.631.496-3.296.613-4.965.143-1.67.191-3.348.213-5.031.332 3.35.338 6.743-.127 10.114-.225 1.68-.646 3.377-1.405 4.943-.374.768-.755 1.527-1.309 2.261a2.75 2.75 0 0 1-.538.534 1.234 1.234 0 0 1-.448.207.945.945 0 0 1-.592-.066c-.346-.173-.492-.405-.632-.602a5.869 5.869 0 0 1-.337-.594c-.73-1.528-1.454-2.988-2.516-4.235a27.52 27.52 0 0 0-1.627-1.825c-.547-.455-1.329-.681-2.12-.78-1.606-.191-3.284.032-4.916.339-1.646.289-3.264.737-4.873 1.231Zm-14.855-2.165c-.7-.619-1.395-1.237-2.153-1.751-.374-.257-.758-.503-1.153-.672a2.574 2.574 0 0 0-.572-.159c-.08.009-.165.001-.228.022-.059.038-.094.023-.208.108-1.556.959-2.766 2.277-3.794 3.785-.523.728-.981 1.561-1.597 2.316-.309.374-.636.737-1.053 1.06-.217.15-.437.325-.826.371-.186.032-.447-.049-.604-.189a1.018 1.018 0 0 1-.283-.447c-.17-.572-.115-1.047-.07-1.532.059-.475.143-.941.251-1.399.231-.914.487-1.811.814-2.688-.125.926-.291 1.841-.367 2.762a14.08 14.08 0 0 0-.094 1.365c-.002.438.007.919.139 1.232a.297.297 0 0 0 .089.132c.023-.002 0 .007.046-.006.078-.008.26-.112.407-.24.307-.261.597-.603.862-.961.544-.701.98-1.51 1.526-2.302.549-.776 1.15-1.526 1.847-2.195a10.553 10.553 0 0 1 2.337-1.68c.077-.053.271-.124.429-.168.159-.031.315-.014.464-.005.28.057.523.157.748.276.438.248.812.548 1.17.863.69.652 1.326 1.342 1.873 2.102Z"/>
  <path fill="#FFA498" d="M444.342 370.822c.014 2.549.116 5.091.38 7.627.651 6.221.014 14.426.506 15.94.549 1.689 3.806 7.721 3.806 7.721s5.791-2.654 8.204-5.549c2.412-2.895 5.549-3.043 9.772-7.313 4.224-4.27 7.094-11.052 6.153-16.697-.12-.723-.861-7.949-1.026-15.429-.163-7.48-8.023-13.164-15.502-13.164-7.48 0-11.959 11.099-12.193 18.58a227.585 227.585 0 0 0-.1 8.284Z"/>
  <path fill="#C57E75" d="M472.137 357.122c.165 7.481.905 14.707 1.026 15.43.291 1.745.216 3.6-.15 5.454-1.655.305-22.957.819-28.477-1.751a85.53 85.53 0 0 1-.194-5.433c-.013-2.331.004-5.214.1-8.283.1-3.171.964-6.99 2.494-10.341l17.524-6.211c4.302 2.295 7.573 6.341 7.677 11.135Z"/>
  <path fill="#524787" d="M431.218 325.975c-11.319 0-15.554 8.695-15.554 15.21 0 5.849 1.874 15.211 15.554 15.211 6.84 0 11.471-6.81 11.471-15.211 0-8.4-4.631-15.21-11.471-15.21Z"/>
  <path fill="#38295C" d="M430.72 329.7c-8.547 0-11.745 6.565-11.745 11.486 0 4.415 1.414 11.486 11.745 11.486 5.166 0 8.662-5.142 8.662-11.486s-3.496-11.486-8.662-11.486Z"/>
  <path fill="#FFA498" d="M416.939 331.109c.668 3.965 2.632 5.482 3.509 10.828.876 5.346-1.462 13.116 2.025 19.883 3.488 6.767 9.127 15.663 12.385 16.039 3.258.376 29.352-4.032 38.157-21.54 2.527-5.026 7.929-24.734 3.307-36.767-4.623-12.033-12.142-23.06-29.518-23.395-17.376-.334-33.409 13.932-29.865 34.952Z"/>
  <path fill="#C57E75" d="M431.472 352.788c.929.021 1.947-.333 2.406-.941a2.457 2.457 0 0 0 .449-1.891c-1.358 1.119-3.024 1.311-4.695 1.02-.207 1.247.755 1.786 1.84 1.812Z"/>
  <path fill="#4375F1" d="M462.21 331.109c-.662-4.125-3.418-6.506-3.418-6.506s-6.642-2.758-11.779-3.258c-5.139-.501-10.402-2.005-10.402-2.005s1.63 4.125 4.387 5.884c0 0-12.281-.621-16.166-4.255 0 0 .752 2.995 1.504 5.006 0 0-6.015-.621-7.894-3.001 0 0-1.504 5.242-1.504 8.135 0 0-7.226-9.89-5.388-17.742 1.837-7.853 4.343-10.861 4.343-10.861s-5.179.501-8.02 0c0 0 6.684-5.848 11.697-9.69 5.012-3.844 20.049-4.01 20.049-4.01s-1.17-4.01.166-10.359c0 0 6.433 9.44 13.242 12.322 6.809 2.882 5.891 2.638 13.111 4.459 7.219 1.822 14.081 6.443 16.963 10.327 2.882 3.885 6.016 7.895 7.895 8.521 0 0-4.512-.626-6.766-2.506 0 0 3.76 8.543-1.211 19.539-4.971 10.995-17.426 7.742-19.842 5.314-2.414-2.427-.967-5.314-.967-5.314Z"/>
  <path fill="#9A4234" d="M463.178 336.424c-2.415-2.427-.968-5.315-.968-5.315-.399-2.495-1.565-4.347-2.424-5.426a73.287 73.287 0 0 0-2.14-32.963c1.876.762 2.99 1.104 5.705 1.802 3.334 5.014 5.827 10.656 7.544 16.371 2.186 7.277 3.244 15.139 1.205 22.46a24.5 24.5 0 0 1-2.249 5.421c-3.091-.259-5.699-1.37-6.673-2.35Z"/>
  <path fill="#524787" d="M466.581 327.025s.859-27.484-13.552-36.255c0 0 11.152-1.253 17.543 9.899 6.391 11.153 5.959 20.718 5.798 26.079-.161 5.36-9.789.277-9.789.277Z"/>
  <path fill="#524787" d="M470.974 325.975c11.319 0 15.555 8.695 15.555 15.21 0 5.849-1.875 15.211-15.555 15.211-6.84 0-11.47-6.81-11.47-15.211 0-8.4 4.63-15.21 11.47-15.21Z"/>
  <path fill="#C22373" d="M464.871 341.186c0-7.457 4.923-13.503 10.996-13.503 6.072 0 10.661 6.046 10.661 13.503 0 7.458-4.589 13.504-10.661 13.504-6.073 0-10.996-6.046-10.996-13.504Z"/>
  <path fill="#D67AA8" d="M469.836 341.185c0-5.075 3.349-9.189 7.482-9.189s7.483 4.114 7.483 9.189c0 5.076-3.35 9.19-7.483 9.19-4.133 0-7.482-4.114-7.482-9.19Z"/>
  <path fill="#C57E75" d="M442.284 356.396c-3.059 1.684-13.05 2.246-13.729 2.152-.68-.093.715 7.493 3.162 7.773 2.447.282 7.341-.374 9.38-2.339 2.038-1.964 1.187-7.586 1.187-7.586Z"/>
  <path fill="#471052" d="M440.936 338.262c0-1.384.682-2.506 1.524-2.506.843 0 1.526 1.122 1.526 2.506 0 1.384-.683 2.506-1.526 2.506-.842 0-1.524-1.122-1.524-2.506Zm-17.446 1.169c0-1.384.587-2.506 1.311-2.506s1.311 1.122 1.311 2.506c0 1.384-.587 2.506-1.311 2.506s-1.311-1.122-1.311-2.506Zm25.982-10.94c-1.041-.573-2.164-.969-3.314-1.3a16.041 16.041 0 0 0-3.572-.536c-1.21-.06-2.49-.094-3.661.359a6.728 6.728 0 0 0-3.025 2.115l.089.15c1.26-.136 2.299-.445 3.397-.591 1.073-.161 2.114-.552 3.235-.643 2.218-.188 4.544-.013 6.781.605l.07-.159Zm-30.391 3.239a6.807 6.807 0 0 1 1.685-.408 13.712 13.712 0 0 1 1.698-.111c.566-.009 1.13.194 1.681.059.279-.063.564-.117.854-.238a3.48 3.48 0 0 0 .912-.453l.018-.173c-.546-.532-1.163-.76-1.789-.873-.633-.12-1.26.135-1.868.301a8.778 8.778 0 0 0-1.773.661c-.552.306-1.094.627-1.524 1.099l.106.136Z"/>
  <path fill="#524787" d="M436.719 511.694c.008.388-.536.949-1.862.949h-41.846c-4.825 0-5.951-1.908-4.503-4.321 1.448-2.414 7.561-7.722 22.681-11.422 15.121-3.7 23.072 4.952 25.53 8.847 1.803 2.858 0 5.947 0 5.947Z"/>
  <path fill="#38295C" d="M388.153 509.046c.832 2.767 32.761 1.325 32.761 1.325s-3.238-4.374-6.816-4.499c-3.58-.125-5.321 1.119-10.12 1.945-4.8.825-1.242-1.953-1.242-1.953s-3.391-.752-4.771-1.822c0 0 7.909-2.336 11.227-2.88 3.316-.542 11.763-.181 12.848 0 .768.128 4.666-2.135 9.374-.999 2.63 1.921 4.369 4.097 5.307 5.584 1.803 2.857 0 5.946 0 5.946.006.388-.537.95-1.863.95h-41.845c-4.33 0-5.674-1.539-4.86-3.597Z"/>
  <path fill="#FFA498" d="M524.72 485.531s-29.757 4.601-45.887 7.488c-15.279 2.734-28.473 3.922-32.212 3.196-3.741-.723-16.53-5.428-20.632-7.117s-12.306-2.655-16.528-1.327c-4.223 1.327-7.682 2.775-9.371 2.775-1.688 0-1.367 2.735.885 3.297 2.253.563 4.263.484 4.263.484s-7.641 4.182-9.009 4.583c-1.366.402.254 2.895 2.103 2.735 0 0-1.619.965-1.057 1.93.564.965 4.584.965 4.584.965s-4.905 2.414-.803 3.379c4.102.964 9.008-3.62 11.019-4.022 2.011-.403 6.675-.16 8.928 1.529 2.252 1.688 11.904 9.491 25.094 4.826 0 0 89.533 3.627 98.46 3.627 8.928 0 14.32-7.89 11.457-23.092-2.862-15.202-8.412-26.542-8.412-26.542l-30.886 2.171 8.004 19.115Z"/>
  <path fill="#C57E75" d="M412.287 491.909c.788-.186 1.417-.294 1.81-.319 0 0-.764.132-1.81.319Zm-7.049 2.417s-2.01.08-4.262-.483a2.68 2.68 0 0 1-1.435-.884c2.505 1.108 5.588.401 7.276-.001 1.066-.254 3.682-.731 5.471-1.048-1.792.42-4.416 1.242-7.05 2.416Zm.395 3.619a4.52 4.52 0 0 1 .462-.189s-.174.07-.462.189Zm-9.387 2.757c.029.026.912.805 2.771-.005 1.549-.673 5.307-2.216 6.616-2.752-1.647.748-6.111 3.268-7.3 3.7-.822.071-1.597-.382-2.087-.943Zm4.621 2.954c1.367-.403 4.223-2.133 5.972-2.959 1.749-.827 3.981-.922 3.981-.922s-.663.06-2.413.922c-1.748.862-6.547 3.843-6.547 3.843s-2.579-.001-3.895-.498c.014 0 1.54.014 2.902-.386Zm25.457 1.97c2.532 1.569 10.013 3.62 14.477 2.776 4.464-.845 5.429-4.585 5.429-4.585l1.248 4.022s62.092 1.77 74.72 1.201c12.483-.561 31.953-.845 34.496-8.343-.698 8.704-5.413 13.182-12.136 13.182-8.928 0-98.461-3.627-98.461-3.627-13.19 4.665-22.841-3.138-25.094-4.826-1.872-1.405-5.407-1.807-7.704-1.671h.001c3.425-1.2 10.49.303 13.024 1.871Zm98.396-20.095s11.633-1.581 13.965-1.822l-1.769-7.239-14.719 2.976 2.523 6.085Z"/>
  <path fill="#DC466F" d="M555.811 465.268a3.016 3.016 0 0 1-.709 3.255c-5.406 5.28-12.505 12.471-19.804 13.577-7.963 1.206-21.235 1.689-21.959 0-.724-1.689-3.377-23.164-8.203-34.022-4.826-10.858-7.963-16.408-9.17-22.682-1.206-6.274 9.652-20.993 14.478-22.2 4.826-1.206 15.926-1.93 20.51 2.173 4.585 4.101 7.963 19.786 13.271 31.61 4.284 9.54 9.667 23.322 11.586 28.289Z"/>
  <path fill="#D12050" d="M525.944 402.986a47.87 47.87 0 0 0-4.435-.326 45.008 45.008 0 0 0-4.424.032c-1.469.089-2.932.237-4.372.496-.724.115-1.434.282-2.146.442-.662.241-1.345.417-1.955.799-.649.291-1.213.749-1.808 1.146-.542.478-1.121.912-1.617 1.448-1.06.997-1.953 2.167-2.859 3.322-.884 1.175-1.686 2.416-2.448 3.683-.785 1.256-1.482 2.563-2.161 3.886.997-2.807 2.375-5.476 4.028-7.979.841-1.242 1.753-2.448 2.82-3.528.5-.569 1.115-1.034 1.681-1.543.632-.434 1.226-.924 1.935-1.253.664-.402 1.431-.605 2.168-.857.739-.155 1.474-.331 2.221-.428 1.491-.213 2.992-.354 4.492-.34 2.994-.008 5.987.283 8.88 1Zm23.843 66.727c-.04-3.856-8.181-39.2-15.373-58.9 3.058 6.731 5.915 17.486 9.811 26.165 4.284 9.54 9.667 23.323 11.587 28.289a3.02 3.02 0 0 1-.71 3.256c-2.07 2.022-4.391 4.324-6.874 6.457.187-.181 1.596-1.667 1.559-5.267Z"/>
  <path fill="#D35E5A" d="M161.657 429.895a5.684 5.684 0 0 0 .679 3.438 24.684 24.684 0 0 1 3.035 12.598c-.091 2.879-.683 5.824.102 8.596 1.352 4.782 6.398 7.739 8.023 12.435 1.439 4.164.101 9.399 3.092 12.632.742.801 1.894 1.415 2.908 1.009.508-.204.89-.629 1.252-1.04 3.431-3.897 7.104-8.632 6.046-13.714-.994-4.775-5.915-8.002-6.848-12.789-.761-3.911 1.238-8.423-1.003-11.718-.618-.91-1.504-1.605-2.179-2.473-2.666-3.422-1.678-8.877-4.749-11.94-1.001-.999-2.254-1.565-3.62-1.857-3.219-.689-6.335 1.555-6.738 4.822v.001Z"/>
  <path fill="#FFA8A5" d="M181.166 490.562c.206-2.546.294-5.094.389-7.648-.116-2.547-.252-5.094-.47-7.64-.218-2.545-.504-5.09-.955-7.62-.457-2.514-1.061-5.083-2.118-7.447-1.848-4.671-3.341-9.556-4.85-14.397l-2.189-7.297a351.228 351.228 0 0 1-2.625-7.179c.372 2.532.951 5.016 1.459 7.52l2.193 7.313c1.518 4.866 2.998 9.721 4.891 14.508 1.023 2.289 1.589 4.711 2.044 7.191.441 2.477.723 4.991.94 7.511.212 2.522.36 5.053.457 7.586l.834 7.599Z"/>
  <path fill="#FFA8A5" d="M167.721 438.939c.42.636.961 1.113 1.542 1.534.298.2.649.331.974.495.33.158.618.371.886.612l.115.106.104-.158c.243-.373.538-.718.77-1.094.225-.38.461-.754.66-1.147a8.936 8.936 0 0 0 .824-2.542l-.072-.036a8.982 8.982 0 0 0-1.526 2.193c-.193.397-.348.811-.516 1.219-.16.414-.256.858-.404 1.275l.22-.052a3.712 3.712 0 0 1-.848-.666c-.252-.261-.479-.557-.758-.782-.573-.431-1.188-.806-1.922-1.02l-.049.063Zm.619 8.708c.438.361.889.75 1.362 1.076.471.334.951.656 1.469.915.524.252 1.08.451 1.584.736.507.28.969.633 1.42 1l.16.13.161-.211c.697-.915 1.295-1.887 1.859-2.877.531-1.011 1.003-2.054 1.342-3.172l-.07-.039c-.782.868-1.431 1.811-2.023 2.785-.558.995-1.083 2.008-1.506 3.078l.32-.081c-.529-.246-1.049-.505-1.526-.834-.479-.325-.908-.732-1.37-1.086-.467-.346-.977-.625-1.498-.884-.527-.253-1.05-.498-1.667-.615l-.017.079Zm3.094 11.492c.479.483 1.014.84 1.566 1.162a5.945 5.945 0 0 0 1.779.707 4.605 4.605 0 0 1 1.723.827c.512.388 1.012.815 1.522 1.151l.387.253.287-.431c.423-.634.808-1.289 1.106-1.993.3-.701.566-1.423.714-2.207l-.088-.049c-.584.546-1.051 1.156-1.483 1.785-.434.628-.782 1.304-1.091 2.002l.674-.178c-.584-.321-1.205-.507-1.819-.722a5.266 5.266 0 0 1-1.68-.936 5.447 5.447 0 0 0-1.657-.985c-.6-.232-1.22-.421-1.898-.477l-.042.091Z"/>
  <path fill="#FF7571" d="M185.218 491.06c1.991-.327 9.453-2.714 8.933-4.663-2.238-8.364-4.475-17.853 3.272-21.944 3.728-1.968 8.407-2.969 10.53-6.611 2.187-3.752.577-8.521-1.385-12.394-1.963-3.874-4.325-8.02-3.484-12.281.881-4.46 5.1-7.752 5.774-12.249.921-6.14-5.041-11.087-10.768-13.484-1.948-.816-4.09-1.513-6.143-1.017-1.466.353-2.738 1.294-3.743 2.418-4.023 4.499-3.859 11.287-2.941 17.252.918 5.965 2.324 12.264.077 17.866-1.596 3.978-5.012 7.72-4.097 11.908.366 1.678 1.412 3.141 1.811 4.811 1.075 4.502-2.664 8.558-4.379 12.857-2.211 5.548-.693 12.327 3.5 16.537a3.5 3.5 0 0 0 3.043.994Z"/>
  <path fill="#FFA8A5" d="M184.514 491.153c.461-3.311.922-6.61 1.512-9.885.14-.819.312-1.634.444-2.453.124-.819.198-1.646.334-2.464.247-1.639.522-3.273.835-4.896.632-3.245 1.388-6.476 2.497-9.547.556-1.53 1.217-3.027 2.087-4.317.433-.643.944-1.214 1.51-1.599a7.882 7.882 0 0 0 2.013-1.872c1.148-1.521 1.494-3.453 1.453-5.193-.039-1.765-.373-3.451-.746-5.096-.767-3.285-1.732-6.457-2.269-9.688-.545-3.215-.652-6.508.198-9.592.26-.753.466-1.519.714-2.285.252-.763.581-1.504.951-2.23.743-1.452 1.713-2.804 2.787-4.09-1.316 1.033-2.538 2.227-3.556 3.608a16.901 16.901 0 0 0-1.398 2.176c-.422.759-.778 1.567-.964 2.42-.929 3.375-.796 6.908-.231 10.243.559 3.352 1.541 6.574 2.288 9.778.364 1.601.674 3.209.707 4.781.033 1.566-.27 3.096-1.155 4.266a6.4 6.4 0 0 1-1.633 1.509c-.815.558-1.419 1.268-1.919 2.001-.994 1.477-1.679 3.061-2.264 4.658-1.155 3.202-1.918 6.486-2.561 9.78a124.887 124.887 0 0 0-.847 4.959c-.113.83-.268 1.653-.368 2.486-.085.833-.122 1.672-.176 2.509-.181 3.346-.305 6.689-.243 10.033Z"/>
  <path fill="#FFA8A5" d="M197.735 425.868c-.573.2-1.054.534-1.499.89-.441.362-.862.747-1.173 1.233-.314.482-.594.991-.997 1.387-.387.411-.854.744-1.303 1.105l.59.037c-.199-.429-.444-.83-.669-1.242a13.066 13.066 0 0 0-.74-1.19c-.259-.388-.555-.753-.835-1.124-.283-.373-.602-.717-.859-1.112l-.1.017c-.021.521.136 1.005.296 1.462.175.454.37.894.605 1.31.22.425.499.811.781 1.194.291.378.568.76.902 1.111l.369.388.221-.352c.302-.478.594-.976.971-1.394.36-.431.851-.743 1.315-1.074.467-.329.835-.749 1.196-1.176.358-.433.692-.878.992-1.391l-.063-.079Zm-7.237 12.664c.237.57.546 1.09.891 1.577.353.481.72.95 1.141 1.369.431.41.924.76 1.386 1.137.453.386.852.82 1.214 1.294l.116.151.162-.13a13.507 13.507 0 0 0 1.556-1.427c.45-.514.929-1.002 1.348-1.536.423-.531.816-1.083 1.19-1.649.378-.566.717-1.156 1.111-1.708l-.057-.084c-.661.313-1.176.796-1.687 1.257-.501.474-.968.977-1.399 1.504-.437.525-.807 1.1-1.212 1.645-.395.533-.729 1.196-1.104 1.663l.278.021a7.28 7.28 0 0 1-1.226-1.273c-.346-.484-.657-1-1.021-1.463-.373-.455-.798-.864-1.221-1.273-.43-.403-.888-.783-1.386-1.136l-.08.061Zm13.309 9.777a30.78 30.78 0 0 1-1.946 2.066c-.669.651-1.386 1.22-2.084 1.845-.712.605-1.519 1.147-2.433 1.414-.906.285-1.868.322-2.796.311l.416.292c-.164-.781-.406-1.518-.662-2.263a12.805 12.805 0 0 0-.962-2.155 10.61 10.61 0 0 0-1.379-1.95c-.548-.58-1.181-1.125-1.938-1.396l-.05.087c.572.519 1.014 1.117 1.398 1.757.39.633.719 1.304 1.045 1.978l.931 2.056c.306.689.576 1.406.844 2.103l.129.337.286-.045c.987-.155 1.924-.489 2.84-.811.905-.353 1.835-.663 2.725-1.119.9-.441 1.657-1.122 2.292-1.882.634-.761 1.152-1.627 1.434-2.58l-.09-.045Zm-17.998 7.482c-.305.732-.409 1.531-.389 2.322.034.789.158 1.585.435 2.33.291.739.718 1.418 1.194 2.034l1.394 1.851.099.132.16-.114c.754-.536 1.611-.942 2.428-1.368a30.339 30.339 0 0 1 2.508-1.173c.845-.365 1.69-.734 2.557-1.06.861-.354 1.747-.635 2.647-.973l-.015-.101a13.342 13.342 0 0 0-5.623 1.143c-.885.387-1.718.883-2.523 1.406-.803.536-1.519 1.181-2.221 1.846l.26.018c-.516-.544-.986-1.145-1.286-1.835-.334-.674-.499-1.408-.728-2.094a16.573 16.573 0 0 1-.798-4.341l-.099-.023Z"/>
  <path fill="#524787" d="M171.687 512.642h21.304c1.977 0 3.658-1.71 3.956-4.023l3.372-26.207c.37-2.866-1.506-5.449-3.955-5.449h-28.049c-2.45 0-4.325 2.583-3.956 5.449l3.373 26.207c.297 2.313 1.978 4.023 3.955 4.023Z"/>
  <path fill="#38295C" d="M168.315 476.965h14.339c-2.45 0-4.325 2.582-3.956 5.448l3.372 26.208c.298 2.313 1.98 4.022 3.956 4.022h-14.339c-1.977 0-3.658-1.709-3.955-4.022l-3.373-26.208c-.369-2.866 1.506-5.448 3.956-5.448Z"/>
  <path fill="#3A4278" d="M362.523 505.445h-89.102c-.897 0-1.624.727-1.624 1.625v3.947c0 .898.727 1.625 1.624 1.625h89.102v-7.197Z"/>
  <path fill="#524787" d="M385.452 510.409v1.604a.628.628 0 0 1-.628.629h-22.445a1.264 1.264 0 0 1-1.264-1.264v-4.677c0-.754.657-1.341 1.407-1.256l22.372 4.341a.628.628 0 0 1 .558.623Z"/>
  <path fill="#636A98" d="M206.809 354.005h166.528a7.99 7.99 0 0 1 7.518 5.284l36.419 101.14c1.523 5.216-2.293 9.124-8.425 9.785-.941.101-5.414-1.91-12.438-5.214H247.533a7.991 7.991 0 0 1-7.518-5.283l-32.899-91.364c-5.562-2.903-8.733-4.562-8.733-4.562s-2.06-9.786 8.426-9.786Z"/>
  <path fill="#838BC0" d="M368.124 359.219H201.595c-2.364 0-4.014 2.346-3.213 4.571l36.42 101.14a7.992 7.992 0 0 0 7.519 5.283h166.527c2.367 0 4.015-2.346 3.214-4.572l-36.419-101.139a7.992 7.992 0 0 0-7.519-5.283Z"/>
  <path fill="#261B41" d="m330.53 470.214-7.392-27.417-28.017 27.417h35.409Zm37.716-16.83-2.141-5.948h2.692l2.141 5.948h-2.692Zm-5.668 0-2.14-5.948h2.691l2.141 5.948h-2.692Zm-5.668 0-2.14-5.948h2.691l2.142 5.948h-2.693Zm-5.668 0-2.14-5.948h2.691l2.141 5.948h-2.692Zm-80.513 0-2.141-5.948h2.691l2.142 5.948h-2.692Zm-5.668 0-2.141-5.948h2.692l2.14 5.948h-2.691Zm-5.669 0-2.142-5.948h2.692l2.141 5.948h-2.691Zm-5.669 0-2.141-5.948h2.692l2.141 5.948h-2.692Z"/>
  <path fill="#636A98" d="M274.296 502.868c1.643-4.725 21.571-69.028 21.571-69.028h25.58l1.69 8.956s-17.151 55.347-18.794 60.072c-.126.36-.245.721-.357 1.083h.002c-1.503 4.62 2.463 4.6 6.928 4.6h45.114v4.091h-75.159c-9.04 0-8.219-5.05-6.575-9.774Z"/>
  <path fill="#838BC0" d="M321.447 433.84s-19.928 64.303-21.571 69.028c-1.644 4.724-2.465 9.774 6.574 9.774h-30.047c-9.039 0-8.217-5.05-6.573-9.774 1.643-4.725 21.57-69.028 21.57-69.028h30.047Z"/>
  <path fill="#8475D5" d="M315.183 433.84c-1.982-.091-3.964-.136-5.946-.201-1.981-.068-3.963-.084-5.945-.126-1.982-.032-3.964-.09-5.946-.091l-5.945-.037-.332-.001-.103.321a432.87 432.87 0 0 0-2.424 7.789l-2.37 7.804c-1.526 5.221-3.054 10.44-4.447 15.701 1.83-5.125 3.527-10.292 5.228-15.458l2.468-7.775c.834-2.588 1.63-5.187 2.414-7.791l-.434.32 5.945-.037c1.982 0 3.964-.058 5.946-.09 1.982-.043 3.964-.058 5.945-.127 1.982-.064 3.964-.109 5.946-.201Z"/>
  <path fill="#A14F58" d="M140.916 528.429h441.066a7.893 7.893 0 0 0 7.893-7.894 7.893 7.893 0 0 0-7.893-7.893H140.916a7.893 7.893 0 0 0 0 15.787Z"/>
  <path fill="#713349" d="M140.916 528.429h441.066a7.893 7.893 0 0 0 7.893-7.894H133.023a7.893 7.893 0 0 0 7.893 7.894Z"/>
  <path fill="#AEBAEA" d="M232.879 273.79c0 36.666-29.723 66.389-66.389 66.389s-66.39-29.723-66.39-66.389 29.724-66.39 66.39-66.39 66.389 29.724 66.389 66.39Z"/>
  <path fill="#E6B851" d="M261.08 260.81c0 21.323 17.285 38.608 38.607 38.608s38.607-17.285 38.607-38.608c0-21.322-17.285-38.607-38.607-38.607s-38.607 17.285-38.607 38.607Z"/>
  <path fill="#6C83DC" d="M280.64 275.924h38.093a3.167 3.167 0 0 0 3.166-3.166v-23.895a3.166 3.166 0 0 0-3.166-3.166H280.64a3.165 3.165 0 0 0-3.165 3.166v23.895a3.166 3.166 0 0 0 3.165 3.166Z"/>
  <path fill="#C8DDF5" d="M280.64 275.924h38.093a3.167 3.167 0 0 0 3.166-3.166l-22.212-13.968-22.212 13.968a3.166 3.166 0 0 0 3.165 3.166Z"/>
  <path fill="#4371D7" d="M280.64 245.697h38.093a3.166 3.166 0 0 1 3.166 3.165l-22.212 13.968-22.212-13.968a3.165 3.165 0 0 1 3.165-3.165Z"/>
  <path fill="#E6B851" d="M534.791 316.366c0 21.322 17.284 38.608 38.607 38.608 21.322 0 38.607-17.286 38.607-38.608 0-21.322-17.285-38.607-38.607-38.607-21.323 0-38.607 17.285-38.607 38.607Z"/>
  <path fill="#6C83DC" d="M566.798 317.892a5.955 5.955 0 0 1-5.956-5.957 5.957 5.957 0 1 1 5.956 5.957Zm17.429-9.075h-3.882a13.8 13.8 0 0 0-1.765-4.254l2.748-2.747a.96.96 0 0 0 0-1.357l-3.054-3.053a.96.96 0 0 0-1.357 0l-2.747 2.747a13.788 13.788 0 0 0-4.254-1.766v-3.881a.96.96 0 0 0-.959-.96h-4.318a.96.96 0 0 0-.959.96v3.881a13.804 13.804 0 0 0-4.255 1.766l-2.746-2.747a.96.96 0 0 0-1.357 0l-3.053 3.053a.96.96 0 0 0 0 1.357l2.747 2.747a13.803 13.803 0 0 0-1.766 4.254h-3.881a.96.96 0 0 0-.959.959v4.318c0 .53.429.959.959.959h3.881a13.813 13.813 0 0 0 1.766 4.254l-2.747 2.747a.96.96 0 0 0 0 1.357l3.053 3.053a.959.959 0 0 0 1.357 0l2.746-2.747a13.826 13.826 0 0 0 4.255 1.765v3.882c0 .53.43.959.959.959h4.318c.53 0 .959-.429.959-.959v-3.882a13.81 13.81 0 0 0 4.254-1.765l2.747 2.747a.959.959 0 0 0 1.357 0l3.054-3.053a.96.96 0 0 0 0-1.357l-2.748-2.747a13.81 13.81 0 0 0 1.765-4.254h3.882a.958.958 0 0 0 .959-.959v-4.318a.959.959 0 0 0-.959-.959Z"/>
  <path fill="#4371D7" d="M566.798 316.998a5.064 5.064 0 1 1 .002-10.128 5.064 5.064 0 0 1-.002 10.128Zm0-13.356a8.293 8.293 0 1 0 .001 16.585 8.293 8.293 0 0 0-.001-16.585Z"/>
  <path fill="#6C83DC" d="M591.902 330.456a3.043 3.043 0 1 1-.001-6.087 3.043 3.043 0 0 1 .001 6.087Zm8.904-4.636h-1.984a7.017 7.017 0 0 0-.901-2.173l1.403-1.404a.49.49 0 0 0 0-.693l-1.559-1.559a.489.489 0 0 0-.693 0l-1.405 1.403a7.052 7.052 0 0 0-2.172-.902v-1.982a.49.49 0 0 0-.491-.49h-2.205a.49.49 0 0 0-.491.49v1.982a7.072 7.072 0 0 0-2.172.902l-1.404-1.403a.49.49 0 0 0-.694 0l-1.558 1.559a.489.489 0 0 0 0 .693l1.402 1.404a7.066 7.066 0 0 0-.901 2.173h-1.983a.49.49 0 0 0-.49.49v2.206c0 .27.219.49.49.49h1.983c.179.782.488 1.513.901 2.173l-1.402 1.404a.489.489 0 0 0 0 .693l1.558 1.56a.492.492 0 0 0 .694 0l1.404-1.404c.66.414 1.391.723 2.172.902v1.983c0 .271.22.491.491.491h2.205c.271 0 .491-.22.491-.491v-1.983a7.028 7.028 0 0 0 2.172-.902l1.405 1.404a.49.49 0 0 0 .693 0l1.559-1.56a.49.49 0 0 0 0-.693l-1.403-1.404c.414-.66.723-1.391.901-2.173h1.984a.49.49 0 0 0 .489-.49v-2.206a.49.49 0 0 0-.489-.49Z"/>
  <path fill="#4371D7" d="M591.903 330a2.587 2.587 0 1 1-.003-5.173 2.587 2.587 0 0 1 .003 5.173Zm0-6.823a4.236 4.236 0 1 0-.001 8.473 4.236 4.236 0 0 0 .001-8.473Z"/>
  <path fill="#E3E4EB" d="M360.619 207.013c0 21.322 17.285 38.607 38.607 38.607s38.607-17.285 38.607-38.607c0-21.323-17.285-38.608-38.607-38.608s-38.607 17.285-38.607 38.608Z"/>
  <path fill="#4371D7" d="M377.016 196.817h44.425v-4.897a3.053 3.053 0 0 0-3.053-3.053h-38.319a3.053 3.053 0 0 0-3.053 3.053v4.897Z"/>
  <path fill="#6C83DC" d="M402.032 205.392h2.383a.733.733 0 0 0 .733-.733v-2.384a.732.732 0 0 0-.733-.732h-2.383a.733.733 0 0 0-.733.732v2.384c0 .405.329.733.733.733Zm-9.159 0h2.383a.732.732 0 0 0 .733-.733v-2.384a.731.731 0 0 0-.733-.732h-2.383a.732.732 0 0 0-.732.732v2.384c0 .405.328.733.732.733Zm-9.158 0h2.384a.733.733 0 0 0 .733-.733v-2.384a.732.732 0 0 0-.733-.732h-2.384a.733.733 0 0 0-.733.732v2.384c0 .405.329.733.733.733Zm27.475 7.885h2.383a.733.733 0 0 0 .733-.732v-2.384a.732.732 0 0 0-.733-.732h-2.383a.732.732 0 0 0-.733.732v2.384c0 .404.328.732.733.732Zm-9.158 0h2.383a.733.733 0 0 0 .733-.732v-2.384a.732.732 0 0 0-.733-.732h-2.383a.733.733 0 0 0-.733.732v2.384c0 .404.329.732.733.732Zm-9.159 0h2.383a.732.732 0 0 0 .733-.732v-2.384a.731.731 0 0 0-.733-.732h-2.383a.732.732 0 0 0-.732.732v2.384c0 .404.328.732.732.732Zm-9.158 0h2.384a.733.733 0 0 0 .733-.732v-2.384a.732.732 0 0 0-.733-.732h-2.384a.733.733 0 0 0-.733.732v2.384c0 .404.329.732.733.732Zm27.475 7.886h2.383a.733.733 0 0 0 .733-.733v-2.384a.733.733 0 0 0-.733-.733h-2.383a.733.733 0 0 0-.733.733v2.384c0 .405.328.733.733.733Zm-9.158 0h2.383a.733.733 0 0 0 .733-.733v-2.384a.733.733 0 0 0-.733-.733h-2.383a.733.733 0 0 0-.733.733v2.384c0 .405.329.733.733.733Zm-9.159 0h2.383a.732.732 0 0 0 .733-.733v-2.384a.732.732 0 0 0-.733-.733h-2.383a.733.733 0 0 0-.732.733v2.384c0 .405.328.733.732.733Z"/>
  <path fill="#FF7571" d="M548.354 226.853c0 21.322-17.285 38.607-38.607 38.607s-38.606-17.285-38.606-38.607 17.284-38.608 38.606-38.608c21.322 0 38.607 17.286 38.607 38.608Z"/>
  <path fill="#CC3834" d="M511.965 249.382v-3.611c0-.672-.544-1.216-1.215-1.216h-2.003c-.672 0-1.216.544-1.216 1.216v3.611c-10.732-1.043-19.268-9.58-20.312-20.311h3.611c.671 0 1.216-.545 1.216-1.216v-2.003c0-.672-.545-1.216-1.216-1.216h-3.611c1.044-10.732 9.58-19.269 20.312-20.313v3.612c0 .671.544 1.215 1.216 1.215h2.003c.671 0 1.215-.544 1.215-1.215v-3.612c10.733 1.044 19.269 9.581 20.313 20.313h-3.611c-.671 0-1.216.544-1.216 1.216v2.003c0 .671.545 1.216 1.216 1.216h3.611c-1.044 10.731-9.58 19.268-20.313 20.311Zm-2.216-48.972c-14.605 0-26.444 11.838-26.444 26.443 0 14.604 11.839 26.443 26.444 26.443 14.603 0 26.443-11.839 26.443-26.443 0-14.605-11.84-26.443-26.443-26.443Z"/>
  <path fill="#D6C9DB" d="M492.633 199.033a6.092 6.092 0 0 1-.082-1.01c0-1.182.2-2.237.6-3.164.419-.946.955-1.8 1.61-2.564a21.218 21.218 0 0 1 2.073-2.155c.746-.673 1.437-1.31 2.073-1.91a11.292 11.292 0 0 0 1.61-1.855c.418-.618.627-1.264.627-1.937 0-.764-.282-1.391-.845-1.882-.564-.509-1.292-.764-2.183-.764-.764 0-1.464.155-2.1.464a6.79 6.79 0 0 0-1.746 1.2l-1.364-1.664a9.447 9.447 0 0 1 2.4-1.582c.892-.4 1.919-.6 3.083-.6 1.073 0 2.01.209 2.81.627.8.4 1.418.955 1.855 1.664.454.709.682 1.501.682 2.374 0 .872-.191 1.682-.573 2.427a9.553 9.553 0 0 1-1.473 2.101c-.6.655-1.246 1.291-1.937 1.909a39.13 39.13 0 0 0-1.991 1.855 12.641 12.641 0 0 0-1.637 1.992 5.555 5.555 0 0 0-.819 2.237h8.402v2.237h-11.075Zm23.859 0v-4.065h-8.157v-1.964l5.702-13.258 2.128.9-5.156 12.085h5.483v-5.428h2.455v5.428h2.264v2.237h-2.264v4.065h-2.455Zm-22.959 33.937-2.018-.682 7.692-22.342 2.019.682-7.693 22.342Zm14.3-1.937c0-2.092.136-3.947.409-5.565.291-1.637.7-3.11 1.228-4.42a18.035 18.035 0 0 1 2.018-3.628 28.16 28.16 0 0 1 2.756-3.246h-9.194v-2.237h12.113v1.964c-1.255 1.219-2.301 2.41-3.138 3.574a16.372 16.372 0 0 0-2.018 3.655c-.509 1.273-.873 2.719-1.091 4.338-.219 1.6-.328 3.455-.328 5.565h-2.755Z"/>
  <path fill="#FFC6C8" d="M269.338 379.771c1.261 6.335-4.604 11.966-6.44 13.022-1.837 1.055-14.159 5.982-21.562 6.158-7.402.176-17.172-15.484-13.174-17.243 3.999-1.76 31.237-3.695 34.228-3.695 2.991 0 6.948 1.758 6.948 1.758Z"/>
  <path fill="#F9CA45" d="M249.926 376.43c-3.231 19.002-10.905 33.783-13.3 34.047-2.394.263-25.398-7.654-31.739-10.558-6.341-2.903 1.947-47.502 5.894-46.716 3.948.785 12.6 9.353 19.745 13.462 7.145 4.109 19.4 9.765 19.4 9.765Z"/>
  <path fill="#C7A237" d="M212.036 384.329c2.218 3.803 20.498 13.443 30.566 16.957-2.488 5.611-4.833 9.064-5.975 9.19-2.05.226-19.208-5.546-28.078-9.033.743-7.062 3.487-17.114 3.487-17.114Z"/>
  <path fill="#FFC6C8" d="M269.366 378.893c.181 7.539-6.609 8.622-14.738 6.687-8.129-1.936-21.401-20.235-27.309-28.505-5.909-8.27-16.934-23.006-19.213-24.324-2.279-1.321-7.508-2.021-11.981-9.456-4.473-7.436 1.411-23.008 3.525-24.855 2.114-1.848 20.228 4.32 22.333 7.439 2.104 3.118-1.491 19.877-.853 21.988.638 2.112 16.054 19.355 22.786 23.578 6.73 4.223 25.319 21.994 25.45 27.448Z"/>
  <path fill="#FF8B8C" d="M208.928 310.881c-2.131-1.055-2.645-5.851-1.306-5.005 1.341.845 3.685.827 6.857.782 3.172-.044 4.473-.317 4.473-.317s.324 2.077.308 3.78c0 0-8.201 1.816-10.332.76Zm-14.107 1.09c1.292-2.402 2.289-4.223 2.289-4.223l12.461 11.994c3.407-2.954 7.576-5.651 7.576-5.651l1.097 1.955c-2.016 3.412-3.772 10.626-3.812 12.385 0 0-1.914 2.112-2.982 2.288 0 0 13.331 21.114 21.901 31.495 8.519 10.32 14.354 19.246 18.372 22.115-8.104-4.673-19.157-19.907-24.407-27.254-5.908-8.27-16.932-23.006-19.212-24.325-2.278-1.32-7.507-2.02-11.979-9.456-1.775-2.949-1.908-7.177-1.304-11.323Z"/>
  <path fill="#050233" d="M220.758 313.175c-.152 1.231-12.534 11.965-13.831 13.196-.097.093-1.064.234-1.33 0-3.294-2.894-17.674-29.006-17.93-29.948-.241-.88 9.306-9.862 12.221-12.265.397-.328 2.033-.129 2.301.268 2.941 4.356 18.764 27.16 18.569 28.749Z"/>
  <path fill="#211E88" d="M219.427 313.175c-.151 1.231-12.534 11.965-13.83 13.196-1.297 1.232-18.984-28.93-19.261-29.948-.24-.88 10.389-9.716 13.303-12.12.397-.327.951-.274 1.22.123 2.941 4.356 18.763 27.16 18.568 28.749Z"/>
  <path fill="#00B1FA" d="M217.343 311.41c-.141 1.151-11.725 11.193-12.938 12.346-1.212 1.152-17.759-27.065-18.018-28.018-.225-.822 9.718-9.089 12.445-11.337.371-.306.89-.258 1.14.114 2.753 4.075 17.554 25.408 17.371 26.895Z"/>
  <path fill="#FFC6C8" d="M209.916 296.693c-1.918-1.156-4.272-5.071-4.485-6.392-.211-1.318-.08-2.507.95-2.771 1.032-.263 4.205 3.872 5.787 5.103 1.582 1.232 3.508 3.783 2.723 5.499-.784 1.715-4.299 1.055-4.676.792-.376-.264-.299-2.231-.299-2.231Z"/>
  <path fill="#FF8B8C" d="M205.789 287.878c-.608 1.501 3.353 7.521 6.827 9.255l-1.291 1.475s-.586-.129-1.339-.307c-.104-.668-.069-1.608-.069-1.608-1.918-1.156-4.272-5.071-4.485-6.39-.16-1.001-.119-1.921.357-2.425Z"/>
  <path fill="#FFC6C8" d="M214.374 302.776c-3.3-1.763-5.887-1.566-7.682-2.291-1.795-.726-2.121-3.497-.9-3.959 1.222-.462 8.657.726 10.574 1.584 1.917.857 2.833 4.809 2.833 4.809l-4.825-.143Z"/>
  <path fill="#FF8B8C" d="M212.93 300.72c1.867.352 2.508 0 2.508 0-.054.729.635 1.092 1.41 2.129l-2.474-.073c-3.298-1.763-5.886-1.565-7.681-2.291-.819-.331-1.315-1.088-1.515-1.857.799 1.52 5.896 1.742 7.752 2.092Z"/>
  <path fill="#FFC6C8" d="M221.981 305.878c-1.76 2.436-10.393 1.381-12.134 1.116-1.74-.264-2.832-1.363-2.654-2.47.358-2.237 11.766-1.84 12.708-1.488.942.352 2.08 2.842 2.08 2.842Z"/>
  <path fill="#FF8B8C" d="M207.256 305.062c1.179 1.172 4.015 1.84 7.109 2.09 2.68.216 4.22.112 4.576.081-3.254.518-7.87-.054-9.092-.238-1.454-.22-2.406-1.029-2.593-1.933Z"/>
  <path fill="#F9CA45" d="M181.58 340.008c18.324 9.325 21.33 8.964 29.202 13.194 7.869 4.23 5.527 48.741 5.028 55.603-.5 6.862-2.396 34.134-1.351 41.524 1.046 7.39 5.119 34.839 6.924 39.06 1.803 4.224 5.243 11.351-.078 15.572-5.322 4.223-16.582 7.127-41.03 5.544-24.448-1.584-50.802-16.628-51.968-18.739-1.166-2.111 11.687-40.909 12.225-48.299.538-7.391 1.997-12.933 2.775-16.364.777-3.431-7.001-19.53-8.243-29.824-1.243-10.292-12.426-38.687-10.305-43.889 2.121-5.201 21.598-10.995 34.862-17.61 13.263-6.614 21.959 4.228 21.959 4.228Z"/>
  <path fill="#C7A237" d="M199.747 351.549c-3.017 9.915-9.158 18.854-17.332 25.226-9.924-2.433-20.014-6.806-28.14-13.001 9.081 6.689 18.986 12.316 29.59 16.157 8.955-7.335 14.27-16.919 15.882-28.382Z"/>
  <path fill="#FFC6C8" d="M196.006 346.83c-3.52-1.502-8.042-3.573-14.427-6.822 0 0-8.695-10.842-21.958-4.227-4.603 2.294-9.952 4.49-15.066 6.597 7.901 13.442 20.703 23.957 35.48 28.958 7.792-6.137 13.396-14.929 15.971-24.506Z"/>
  <path fill="#000" d="M128.309 491.766c-1.166-2.112 11.687-40.909 12.225-48.299.537-7.39 1.996-12.933 2.774-16.363.778-3.432-7-19.532-8.243-29.824-.215-1.789-.736-4.132-1.43-6.797l8.262-6.154c4.846 13.516 7.867 37.269 12.46 43.075 4.592 5.807 16.032 8.181 16.032 8.181s-11.3 2.64-16.226 1.584c0 0-5.261 20.851-5.321 31.144-.059 10.293.897 25.864 1.019 27.976.045.788-.129 3.537-.365 6.669-11.84-4.687-20.529-10.001-21.187-11.192Z" opacity=".2"/>
  <path fill="#FFC6C8" d="M161.702 317.031c-.189 11.013-.916 18.578-3.356 20.691 0 0 4.197 18.275 20.952 16.714 5.67-.528 5.129-10.029 2.283-14.427l1.686-13.508-21.565-9.47Z"/>
  <path fill="#FF8B8C" d="M159.621 335.78c1.434-3.378 1.929-9.96 2.08-18.75l21.566 9.47-1.082 8.662c-3.822 1.715-22.564.618-22.564.618Z"/>
  <path fill="#FFC6C8" d="M102.315 406.103c-3.714 5.103-8.683 17.771-6.818 23.578 1.865 5.807 21.097 31.671 29.893 41.348 8.798 9.677 10.793 11.261 12.323 14.428 1.529 3.168 9.023 16.231 10.991 18.212 1.967 1.978 5.511 2.243 5.511 2.243s2.649 2.902 7.723 2.375c0 0 4.42 3.035 7.925 3.826 0 0 1.157 2.242 2.33 2.44 1.173.2 2.665-2.175.504-6.926s-5.712-6.73-6.283-9.765c-.571-3.035-3.318-9.228-3.318-9.228s6.168 6.324 9.966 6.72c3.799.397 4.309-1.847 2.224-3.695a48.256 48.256 0 0 1-7.298-8.182c-2.512-3.563-5.638-5.937-10.472-6.597-4.835-.66-8.227-1.187-9.48-2.111-1.252-.924-7.574-9.897-11.894-19.575-4.32-9.678-8.19-22.044-19.169-32.903l4.838-8.446-19.496-7.742Z"/>
  <path fill="#FF8B8C" d="M169.701 511.509c-.936-2.676-2.656-4.959-4.549-6.99l-.751-.738c-.221-.231-.612-.521-.698-.656-.379-.483-.706-1.119-1.07-1.691-.697-1.187-1.374-2.396-2.145-3.561.368 1.37.861 2.678 1.413 3.968.272.657.567 1.266.981 1.916.32.425.527.513.774.79l.706.729c.95.973 1.85 1.997 2.758 3.018a55.722 55.722 0 0 1 2.581 3.215Zm-7.968-4.136c-.727-1.421-1.59-2.653-2.36-3.947a54.386 54.386 0 0 1-2.255-3.97c-.079 1.661.533 3.225 1.342 4.568.845 1.334 1.921 2.508 3.273 3.349Zm-3.862.563c-2.394-.691-3.655-2.024-3.655-2.024s-3.545-.265-5.512-2.244c-.804-.809-2.534-3.477-4.399-6.556.04.049 2.251 2.451 3.841 4.434 2.239 2.792 5.452 1.868 5.452 1.868l-.429-2.573s2.137 5.842 4.702 7.095Zm-62.456-84.707c.104 2.407.133 4.322 3.705 10.641 4.021 7.111 28.181 37.081 33.452 42.623 5.27 5.543 5.114 5.896 8.234 14.652-1.409-2.475-2.584-4.634-3.094-5.688-1.528-3.167-3.525-4.751-12.322-14.429-8.797-9.676-28.029-35.541-29.894-41.348-.541-1.687-.494-3.96-.081-6.451Zm18.938-6.927-1.962 3.272s2.655.718 4.582 2.716l3.83-6.499-6.45.511Z"/>
  <path fill="#F9CA45" d="M137.508 398.411c5.045-9.92 7.065-26.029 2.511-34.507-4.554-8.479-13.15-11.532-15.259-10.514-2.109 1.018-7.82 14.244-13.182 20.349S91.574 396.97 91.13 398.411c-.444 1.442 10.583 13.076 31.324 21.62 2.469 1.018 15.054-21.62 15.054-21.62Z"/>
  <path fill="#000" d="m122.124 406.103-3.309 6.785s16.299-16.34 23.066-28.533c-.82 5.087-2.346 10.072-4.374 14.057 0 0-12.584 22.638-15.054 21.62a110.89 110.89 0 0 1-9.762-4.593l9.433-9.336Z" opacity=".2"/>
  <path fill="#A072AE" d="M184.513 318.016c-1.121-4.54-1.097-9.183-1.367-13.826-.203-3.472-.379-6.649-3.53-8.726-2.303-1.517-5.19-1.815-7.899-1.472-7.282.924-8.848 8.02-8.291 14.738.427 5.142 2.436 10.08 4.431 14.81-2.678-.118-6.334-1.522-7.933-3.75.718 2.932 2.079 5.627 4.205 7.701-7.76-.134-14.963-5.211-19.074-12.031-4.109-6.818-5.412-15.145-4.974-23.17.519-9.525 3.489-19.073 9.38-26.406 11.849-14.749 34.678-16.469 48.579-3.794 4.779 4.357 8.246 10.199 9.98 16.534 2.279 8.327 2.232 17.261.456 25.685-.735 3.487-1.072 6.507-1.418 9.999-.107 1.083-1.42 13.655-.661 13.609-4.902.298-10.534-.692-13.854-4.439 1.488 2.574 2.773 5.053 4.262 7.626-6.19-1.029-10.739-6.797-12.292-13.088Z"/>
  <path fill="#FFC6C8" d="M159.078 300.884c-2.19-1.295-4.822-1.997-6.853.063-2.992 3.035 1.259 17.155 7.711 13.724 0 0 9.343 13.064 16.199 16.76 6.858 3.695 11.742 1.848 14.31-.792 2.568-2.639 11.324-13.466 12.9-24.942.562-4.09-.04-12.14.085-13.856.384-5.278 2.384-9.612-1.78-13.754-4.206-4.185-10.032-6.717-15.962-6.926-7.469-.264-14.934 3.093-19.881 8.696-5.464 6.19-6.411 13.181-6.729 21.027Z"/>
  <path fill="#FF8B8C" d="M153.285 304.806c.558-2.587 2.765-3.096 4.406-1.294 1.682 1.848 1.965 7.7 1.533 8.562-.433.862-3.323.801-3.871-.986-.547-1.786 1.136-2.906 2.76-2.376 0 0 .455-2.608-.874-4.287-1.328-1.679-2.711-1.036-3.05-.605-.34.431-.904.986-.904.986Z"/>
  <path fill="#471052" d="M171.145 293.362a22.693 22.693 0 0 1 1.982-1.634c.7-.505 1.446-.958 2.238-1.328.787-.37 1.61-.768 2.481-.835.863-.076 1.73-.007 2.52.332l-.011.119c-.422.17-.824.278-1.22.392l-1.163.322c-.756.223-1.54.29-2.308.546-.762.253-1.515.578-2.255.951-.747.364-1.469.796-2.198 1.229l-.066-.094Zm29.188-2.962a8.495 8.495 0 0 0-2.233-.811 12.136 12.136 0 0 0-2.36-.281c-.799-.017-1.593.147-2.382.141-.795.003-1.594.027-2.468-.061l-.025-.114c.748-.542 1.599-.835 2.458-1.002.866-.175 1.733-.032 2.568.093.841.123 1.659.34 2.426.659.762.329 1.486.737 2.089 1.278l-.073.098Zm-21.352 7.602c-.03-1.116-.592-1.968-1.256-1.903-.664.065-1.179 1.024-1.15 2.14.03 1.116.592 1.968 1.256 1.902.665-.064 1.178-1.023 1.15-2.139Zm17.627-1.41c-.029-1.117-.493-1.979-1.036-1.925-.543.054-.959 1.002-.93 2.118.029 1.116.494 1.978 1.036 1.924.543-.053.96-1.001.93-2.117Z"/>
  <path fill="#FF8B8C" d="M184.5 308.852c1.528 1.063 3.781 1.04 5.444-.055-.189.86-.574 1.698-1.41 2.004-.837.305-1.761.215-2.531-.138-.768-.353-1.017-1.126-1.503-1.811Z"/>
  <path fill="#C47E75" d="M178.383 315.401c3.681.059 12.532-.62 15.418-1.03-1.138 3.729-4.122 7.413-8.29 7.415-3.751.003-6.229-3.081-7.128-6.385Z"/>
  <path fill="#FF8485" d="M181.762 320.568c1.463-.451 2.953-.219 3.552-.034 0 0 1.947-1.362 4.777-.467-1.288 1.039-2.819 1.718-4.578 1.719a6.325 6.325 0 0 1-3.751-1.218Z"/>
  <path fill="#fff" d="M191.303 317.491c-3.727 1.162-7.795.827-11.304-.438-.024-.55-.066-1.105-.108-1.66 3.638-.077 9.528-.518 12.682-.87a10.527 10.527 0 0 1-1.27 2.968Z"/>
  <path fill="#A072AE" d="M162.758 288.737a51.38 51.38 0 0 0 17.51-3.887c1.056-2.443 1.092-4.61 1.25-7.265 1.509 2.767 2.406 5.865 2.562 9.014 3.496-.227 7.009-.415 10.506-.641.979-2.771 1.098-5.625.943-8.559 1.182 2.756 1.775 6.228 2.178 9.199 2.111-.75 4.785.345 6.991.739 2.732-6.087 2.553-17.115-3.228-21.731-5.629-4.497-15.407-5.721-22.288-4.725-14.635 2.119-26.138 14.271-25.229 29.41.518 8.637 4.851 16.804 11.064 22.827-3.695-7.369-4.427-16.429-2.259-24.381Z"/>
  <path fill="#CBD5FC" d="M596 195c-9.39 0-17 7.61-17 17 0 5.067 2.215 9.618 5.736 12.737A16.977 16.977 0 0 0 596 229a16.92 16.92 0 0 0 11.264-4.27A16.94 16.94 0 0 0 613 212c0-9.39-7.61-17-17-17Z"/>
  <path fill="#819FDE" d="M605.932 223.351c-.87-.649-2.45-1.727-4.17-2.523a4.304 4.304 0 0 1-2.456-4.511c0-.027.006-.054.013-.087 0 0 3.915-2.651 3.373-5.234 0 0 .121.007.301-.007 1.727-.16 1.834-2.73.128-3.005-.014 0-.034-.007-.047-.007l-.054-.281c.522-1.827 1.794-7.362-2.054-6.826 0 0-2.765-4.572-8.608-2.37-5.849 2.196-4.323 7.436-4.323 7.436l.723 2.088c-1.573.389-1.426 2.818.247 2.972.181.013.308.007.308.007-.549 2.583 3.367 5.234 3.367 5.234.006.033.006.06.013.087a4.323 4.323 0 0 1-2.456 4.511c-1.727.796-3.3 1.88-4.17 2.523a5.356 5.356 0 0 0-1.338 1.385 17.03 17.03 0 0 0 11.27 4.257c4.324 0 8.266-1.613 11.265-4.27a5.322 5.322 0 0 0-1.332-1.379Z"/>
  <path fill="#CBD5FC" d="M388.5 20C375.519 20 365 30.52 365 43.5c0 7.004 3.062 13.295 7.929 17.606A23.465 23.465 0 0 0 388.5 67c5.977 0 11.426-2.23 15.571-5.903A23.419 23.419 0 0 0 412 43.5c0-12.98-10.519-23.5-23.5-23.5Z"/>
  <path fill="#819FDE" d="M402.23 59.191c-1.203-.897-3.386-2.387-5.764-3.488-2.378-1.091-3.775-3.654-3.395-6.236 0-.036.009-.074.018-.12 0 0 5.413-3.664 4.663-7.235 0 0 .167.01.417-.01 2.387-.221 2.535-3.774.175-4.153-.018 0-.046-.01-.064-.01l-.074-.388c.721-2.526 2.479-10.177-2.841-9.437 0 0-3.821-6.32-11.898-3.275-8.086 3.034-5.977 10.279-5.977 10.279l1 2.886c-2.175.537-1.971 3.895.342 4.108.25.019.426.01.426.01-.759 3.57 4.653 7.234 4.653 7.234.01.047.01.084.019.12a5.975 5.975 0 0 1-3.396 6.236c-2.387 1.101-4.561 2.6-5.764 3.488a7.437 7.437 0 0 0-1.85 1.916C377.083 64.77 382.533 67 388.5 67c5.977 0 11.426-2.23 15.571-5.903-.481-.74-1.119-1.378-1.841-1.906Z"/>
  <path fill="#CBD5FC" d="M71 184c5.524 0 10 4.476 10 10a9.982 9.982 0 0 1-3.374 7.492A9.986 9.986 0 0 1 71 204a9.954 9.954 0 0 1-6.626-2.512A9.967 9.967 0 0 1 61 194c0-5.524 4.476-10 10-10Z"/>
  <path fill="#819FDE" d="M65.158 200.677c.512-.382 1.441-1.016 2.453-1.484a2.533 2.533 0 0 0 1.445-2.654c0-.015-.004-.031-.008-.051 0 0-2.303-1.559-1.984-3.079 0 0-.07.004-.177-.004-1.016-.094-1.079-1.606-.075-1.767.008 0 .02-.004.028-.004l.031-.166c-.307-1.074-1.055-4.33 1.209-4.015 0 0 1.626-2.689 5.063-1.394 3.44 1.291 2.543 4.374 2.543 4.374l-.425 1.228c.925.229.838 1.658-.146 1.748-.106.008-.181.004-.181.004.323 1.52-1.98 3.079-1.98 3.079-.004.02-.004.036-.008.051a2.543 2.543 0 0 0 1.445 2.654c1.015.468 1.94 1.106 2.453 1.484.306.224.578.496.787.815A10.021 10.021 0 0 1 71 204a9.954 9.954 0 0 1-6.626-2.512c.205-.315.476-.586.783-.811Z"/>
  <path fill="#CBD5FC" d="M179.5 531c-11.323 0-20.5 9.177-20.5 20.5 0 6.11 2.671 11.598 6.917 15.359A20.47 20.47 0 0 0 179.5 572c5.214 0 9.968-1.945 13.583-5.149A20.429 20.429 0 0 0 200 551.5c0-11.323-9.177-20.5-20.5-20.5Z"/>
  <path fill="#819FDE" d="M191.477 565.188c-1.05-.783-2.954-2.082-5.028-3.043-2.075-.952-3.293-3.188-2.962-5.439 0-.033.008-.065.016-.105 0 0 4.721-3.196 4.067-6.312 0 0 .146.008.364-.008 2.082-.193 2.211-3.293.153-3.624-.016 0-.04-.008-.057-.008l-.064-.339c.629-2.203 2.163-8.878-2.478-8.232 0 0-3.333-5.512-10.379-2.857-7.054 2.647-5.214 8.967-5.214 8.967l.872 2.518c-1.897.468-1.719 3.398.298 3.583.218.016.372.008.372.008-.662 3.116 4.059 6.312 4.059 6.312.008.04.008.072.017.105a5.213 5.213 0 0 1-2.962 5.439c-2.083.961-3.979 2.268-5.029 3.043a6.493 6.493 0 0 0-1.614 1.671c3.632 3.188 8.386 5.133 13.592 5.133 5.213 0 9.967-1.945 13.583-5.149a6.425 6.425 0 0 0-1.606-1.663Z"/>
  <circle cx="382" cy="341" r="297.5" stroke="#8A8FB9" opacity=".4"/>
  <circle cx="381.5" cy="341.5" r="287" stroke="#8A8FB9" opacity=".4"/>
  <circle cx="674.5" cy="397.5" r="5.5" fill="#819FDE"/>
  <circle cx="486.5" cy="572.5" r="5.5" fill="#819FDE"/>
  <circle cx="382" cy="341" r="252.5" stroke="#CBD5FC" opacity=".75"/>
  <circle cx="388.5" cy="341.5" r="199" stroke="#CBD5FC" opacity=".75"/>
  <circle cx="635" cy="363" r="9" fill="#819FDE"/>
  <circle cx="238" cy="97" r="9" fill="#819FDE"/>
  <circle cx="398" cy="683" r="9" fill="#819FDE"/>
  <circle cx="40" cy="332" r="9" fill="#819FDE"/>
  <path fill="#819FDE" d="M365 567h-61v30.806h43.471L343.966 610 365 597.806V567Zm208-452h-22v12.179h15.678L565.414 132l7.586-4.821V115Z"/>
  <circle cx="381.5" cy="341.5" r="341" stroke="#CBD5FC"/>
  <circle cx="283" cy="172" r="3" fill="#819FDE"/>
</svg>
