<svg xmlns="http://www.w3.org/2000/svg" width="493" height="31" fill="none" viewBox="0 0 493 31">
  <path fill="#152970" d="M1.08 13.936c0-.992.232-1.888.696-2.688a5.21 5.21 0 0 1 1.968-1.896c.832-.464 1.776-.696 2.832-.696 1.088 0 2.04.232 2.856.696a4.907 4.907 0 0 1 1.896 1.896c.448.8.672 1.696.672 2.688 0 .992-.224 1.896-.672 2.712a4.864 4.864 0 0 1-1.92 1.896c-.816.464-1.768.696-2.856.696-1.056 0-2-.216-2.832-.648a5.137 5.137 0 0 1-1.944-1.848c-.464-.8-.696-1.736-.696-2.808Zm2.232.024c0 .64.144 1.224.432 1.752.288.512.672.92 1.152 1.224.496.304 1.04.456 1.632.456.624 0 1.176-.152 1.656-.456.496-.304.88-.712 1.152-1.224a3.769 3.769 0 0 0 .408-1.752c0-.64-.136-1.216-.408-1.728a3.097 3.097 0 0 0-1.152-1.248c-.48-.32-1.032-.48-1.656-.48-.608 0-1.16.16-1.656.48-.48.32-.864.744-1.152 1.272a3.575 3.575 0 0 0-.408 1.704Zm10.846-.024c0-.992.232-1.888.696-2.688a5.21 5.21 0 0 1 1.968-1.896c.832-.464 1.776-.696 2.832-.696 1.088 0 2.04.232 2.856.696a4.907 4.907 0 0 1 1.896 1.896c.448.8.672 1.696.672 2.688 0 .992-.224 1.896-.672 2.712a4.864 4.864 0 0 1-1.92 1.896c-.816.464-1.768.696-2.856.696-1.056 0-2-.216-2.832-.648a5.137 5.137 0 0 1-1.944-1.848c-.464-.8-.696-1.736-.696-2.808Zm2.232.024c0 .64.144 1.224.432 1.752.288.512.672.92 1.152 1.224.496.304 1.04.456 1.632.456.624 0 1.176-.152 1.656-.456.496-.304.88-.712 1.152-1.224a3.769 3.769 0 0 0 .408-1.752c0-.64-.136-1.216-.408-1.728a3.097 3.097 0 0 0-1.152-1.248c-.48-.32-1.032-.48-1.656-.48-.608 0-1.16.16-1.656.48-.48.32-.864.744-1.152 1.272a3.575 3.575 0 0 0-.408 1.704Zm17.738-6.312c1.264 0 2.344.216 3.24.648.896.416 1.584 1.024 2.064 1.824.496.8.744 1.768.744 2.904 0 .688-.104 1.368-.312 2.04a5.153 5.153 0 0 1-1.008 1.8c-.448.528-1.04.952-1.776 1.272-.736.32-1.632.48-2.688.48h-2.568V25h-2.328V7.648h4.632Zm.24 8.736c.688 0 1.256-.112 1.704-.336.448-.224.8-.504 1.056-.84.256-.352.44-.72.552-1.104a3.73 3.73 0 0 0 .168-1.032c0-.352-.056-.712-.168-1.08a2.639 2.639 0 0 0-.576-1.032 2.69 2.69 0 0 0-1.032-.768c-.416-.208-.936-.312-1.56-.312h-2.688v6.504h2.544Zm12.36 2.808c-.704 0-1.392-.12-2.064-.36a4.099 4.099 0 0 1-1.632-1.128l.936-1.296c.416.4.84.704 1.272.912.448.192.888.288 1.32.288.32 0 .616-.04.888-.12.272-.08.488-.208.648-.384.176-.192.264-.448.264-.768 0-.352-.12-.632-.36-.84-.224-.208-.52-.376-.888-.504a15.658 15.658 0 0 0-1.128-.36c-.816-.272-1.44-.648-1.872-1.128-.432-.48-.648-1.064-.648-1.752a2.9 2.9 0 0 1 .384-1.464c.272-.464.664-.84 1.176-1.128.528-.288 1.176-.432 1.944-.432.688 0 1.304.088 1.848.264.544.16 1.056.432 1.536.816l-.888 1.392a2.626 2.626 0 0 0-1.032-.672c-.4-.144-.76-.224-1.08-.24a1.912 1.912 0 0 0-.792.12 1.6 1.6 0 0 0-.6.408.897.897 0 0 0-.24.624c0 .336.112.608.336.816.224.208.512.376.864.504.368.112.728.232 1.08.36.496.144.936.336 1.32.576.384.24.688.536.912.888.24.352.36.792.36 1.32 0 .592-.144 1.144-.432 1.656-.272.496-.696.896-1.272 1.2-.56.288-1.28.432-2.16.432ZM53.141.784h2.016v13.728h-2.016V.784Zm1.08 18.12c-.416 0-.76-.12-1.032-.36a1.163 1.163 0 0 1-.408-.912c0-.368.136-.672.408-.912.272-.256.616-.384 1.032-.384.4 0 .728.128.984.384.272.24.408.544.408.912s-.136.672-.408.912c-.256.24-.584.36-.984.36ZM67.818 1.648h11.52V3.88h-4.656V19h-2.328V3.88h-4.536V1.648ZM82.483 19V.424h2.184v10.944l-.048-.408c.336-.656.848-1.2 1.536-1.632.704-.432 1.528-.648 2.472-.648s1.712.28 2.304.84c.608.544.92 1.256.936 2.136V19h-2.256v-6.552c-.016-.544-.176-.984-.48-1.32-.288-.352-.744-.528-1.368-.528-.576 0-1.096.168-1.56.504-.464.32-.832.76-1.104 1.32-.256.56-.384 1.2-.384 1.92V19h-2.232Zm17.874.24c-1.136 0-2.112-.224-2.928-.672a4.957 4.957 0 0 1-1.896-1.872c-.432-.8-.648-1.712-.648-2.736 0-.976.248-1.864.744-2.664a5.59 5.59 0 0 1 1.992-1.92c.832-.48 1.76-.72 2.784-.72 1.312 0 2.4.384 3.264 1.152.864.768 1.448 1.824 1.752 3.168l-8.184 2.88-.528-1.32 6.72-2.448-.48.312a3.24 3.24 0 0 0-.96-1.368c-.448-.4-1.032-.6-1.752-.6-.608 0-1.152.152-1.632.456-.48.288-.856.688-1.128 1.2-.272.512-.408 1.096-.408 1.752 0 .688.144 1.296.432 1.824.288.512.68.92 1.176 1.224a3.463 3.463 0 0 0 1.728.432c.432 0 .848-.08 1.248-.24.416-.16.8-.368 1.152-.624l1.032 1.656a6.826 6.826 0 0 1-1.68.816 5.537 5.537 0 0 1-1.8.312Zm21.31 0c-.752 0-1.48-.176-2.184-.528-.688-.352-1.224-.824-1.608-1.416l.144-.696v7.176h-2.208V8.92h1.92l.312 2.544-.24-.696a5.842 5.842 0 0 1 1.824-1.512c.736-.4 1.56-.6 2.472-.6.928 0 1.76.224 2.496.672a4.767 4.767 0 0 1 1.776 1.872c.432.8.648 1.736.648 2.808 0 1.072-.232 2-.696 2.784a4.791 4.791 0 0 1-1.92 1.824c-.8.416-1.712.624-2.736.624Zm-.432-1.776c.64 0 1.224-.144 1.752-.432a3.53 3.53 0 0 0 1.296-1.224c.32-.528.48-1.12.48-1.776 0-.672-.152-1.264-.456-1.776a3.393 3.393 0 0 0-1.224-1.248 3.15 3.15 0 0 0-1.68-.456c-.576 0-1.096.112-1.56.336a3.137 3.137 0 0 0-1.152.936c-.304.384-.52.832-.648 1.344v1.656c.08.512.272.968.576 1.368.304.4.68.712 1.128.936.464.224.96.336 1.488.336Zm12.931 1.776c-.928 0-1.776-.2-2.544-.6a4.51 4.51 0 0 1-1.8-1.752c-.432-.784-.648-1.736-.648-2.856 0-1.104.232-2.056.696-2.856.464-.816 1.08-1.44 1.848-1.872a5.234 5.234 0 0 1 2.568-.648c.928 0 1.712.216 2.352.648.64.416 1.128.912 1.464 1.488l-.144.384.216-2.112h2.064V19h-2.232v-2.592l.24.576c-.064.16-.208.368-.432.624-.208.24-.496.488-.864.744a5.21 5.21 0 0 1-1.224.648c-.464.16-.984.24-1.56.24Zm.6-1.848c.56 0 1.064-.104 1.512-.312a2.958 2.958 0 0 0 1.104-.864c.304-.384.512-.84.624-1.368v-1.944a2.958 2.958 0 0 0-.672-1.248 3.154 3.154 0 0 0-1.152-.84 3.49 3.49 0 0 0-1.488-.312c-.592 0-1.136.144-1.632.432a3.318 3.318 0 0 0-1.2 1.2c-.288.512-.432 1.112-.432 1.8 0 .64.152 1.224.456 1.752.304.528.712.944 1.224 1.248a3.188 3.188 0 0 0 1.656.456Zm14.11 6.528c-.736 0-1.384-.088-1.944-.264a5.581 5.581 0 0 1-1.536-.696c-.448-.304-.88-.648-1.296-1.032l1.296-1.512c.528.496 1.064.88 1.608 1.152a4.022 4.022 0 0 0 1.824.408c.752 0 1.384-.128 1.896-.384.528-.24.928-.584 1.2-1.032.272-.432.408-.936.408-1.512l.024-2.688.192.432c-.288.688-.808 1.272-1.56 1.752-.752.464-1.664.696-2.736.696a4.783 4.783 0 0 1-2.52-.696 5.38 5.38 0 0 1-1.824-1.872c-.448-.8-.672-1.696-.672-2.688 0-1.04.24-1.952.72-2.736a5.38 5.38 0 0 1 1.896-1.896 4.951 4.951 0 0 1 2.568-.696c.88 0 1.68.184 2.4.552.736.352 1.272.808 1.608 1.368l-.12.408.24-1.92h2.04v10.008c0 .896-.232 1.712-.696 2.448-.464.736-1.12 1.32-1.968 1.752-.848.432-1.864.648-3.048.648Zm-3.408-9.984c0 .64.152 1.224.456 1.752.304.528.712.944 1.224 1.248a3.448 3.448 0 0 0 1.752.456c.592 0 1.12-.104 1.584-.312.48-.224.88-.52 1.2-.888.32-.384.544-.824.672-1.32v-1.968a3.048 3.048 0 0 0-.72-1.248 3.328 3.328 0 0 0-1.2-.84 3.713 3.713 0 0 0-1.536-.312c-.64 0-1.224.144-1.752.432-.512.288-.92.696-1.224 1.224-.304.512-.456 1.104-.456 1.776Zm17.584 5.304c-1.136 0-2.112-.224-2.928-.672a4.957 4.957 0 0 1-1.896-1.872c-.432-.8-.648-1.712-.648-2.736 0-.976.248-1.864.744-2.664a5.59 5.59 0 0 1 1.992-1.92c.832-.48 1.76-.72 2.784-.72 1.312 0 2.4.384 3.264 1.152.864.768 1.448 1.824 1.752 3.168l-8.184 2.88-.528-1.32 6.72-2.448-.48.312a3.24 3.24 0 0 0-.96-1.368c-.448-.4-1.032-.6-1.752-.6-.608 0-1.152.152-1.632.456-.48.288-.856.688-1.128 1.2-.272.512-.408 1.096-.408 1.752 0 .688.144 1.296.432 1.824.288.512.68.92 1.176 1.224a3.463 3.463 0 0 0 1.728.432c.432 0 .848-.08 1.248-.24.416-.16.8-.368 1.152-.624l1.032 1.656a6.826 6.826 0 0 1-1.68.816 5.537 5.537 0 0 1-1.8.312Zm16.295 4.536 6.552-14.712h2.064l-6.408 14.712h-2.208Zm2.448-4.704-4.776-10.008h2.52l4.008 8.88-1.752 1.128Zm7.402-5.136c0-.992.232-1.888.696-2.688a5.21 5.21 0 0 1 1.968-1.896c.832-.464 1.776-.696 2.832-.696 1.088 0 2.04.232 2.856.696a4.907 4.907 0 0 1 1.896 1.896c.448.8.672 1.696.672 2.688 0 .992-.224 1.896-.672 2.712a4.864 4.864 0 0 1-1.92 1.896c-.816.464-1.768.696-2.856.696-1.056 0-2-.216-2.832-.648a5.137 5.137 0 0 1-1.944-1.848c-.464-.8-.696-1.736-.696-2.808Zm2.232.024c0 .64.144 1.224.432 1.752.288.512.672.92 1.152 1.224.496.304 1.04.456 1.632.456.624 0 1.176-.152 1.656-.456.496-.304.88-.712 1.152-1.224a3.769 3.769 0 0 0 .408-1.752c0-.64-.136-1.216-.408-1.728a3.097 3.097 0 0 0-1.152-1.248c-.48-.32-1.032-.48-1.656-.48-.608 0-1.16.16-1.656.48-.48.32-.864.744-1.152 1.272a3.575 3.575 0 0 0-.408 1.704Zm14.854 5.424c-.896 0-1.64-.272-2.232-.816-.576-.56-.88-1.28-.912-2.16V9.064h2.232v6.552c.032.544.184.984.456 1.32.288.336.736.512 1.344.528.56 0 1.056-.16 1.488-.48a3.62 3.62 0 0 0 1.08-1.344c.272-.576.408-1.224.408-1.944V9.064h2.232V19h-2.04l-.192-2.448.12.432c-.192.464-.488.88-.888 1.248-.384.352-.84.632-1.368.84a4.674 4.674 0 0 1-1.728.312Zm19.544-10.32.216 2.88-.12-.384a4.112 4.112 0 0 1 1.104-1.536 5.794 5.794 0 0 1 1.536-.984c.544-.24 1.016-.36 1.416-.36l-.12 2.208c-.752-.048-1.416.096-1.992.432a3.86 3.86 0 0 0-1.344 1.344 3.57 3.57 0 0 0-.48 1.8V19h-2.208V9.064h1.992Zm11.217 10.176c-1.136 0-2.112-.224-2.928-.672a4.957 4.957 0 0 1-1.896-1.872c-.432-.8-.648-1.712-.648-2.736 0-.976.248-1.864.744-2.664a5.59 5.59 0 0 1 1.992-1.92c.832-.48 1.76-.72 2.784-.72 1.312 0 2.4.384 3.264 1.152.864.768 1.448 1.824 1.752 3.168l-8.184 2.88-.528-1.32 6.72-2.448-.48.312a3.24 3.24 0 0 0-.96-1.368c-.448-.4-1.032-.6-1.752-.6-.608 0-1.152.152-1.632.456-.48.288-.856.688-1.128 1.2-.272.512-.408 1.096-.408 1.752 0 .688.144 1.296.432 1.824.288.512.68.92 1.176 1.224a3.463 3.463 0 0 0 1.728.432c.432 0 .848-.08 1.248-.24.416-.16.8-.368 1.152-.624l1.032 1.656a6.826 6.826 0 0 1-1.68.816 5.537 5.537 0 0 1-1.8.312Zm11.845 0c-.88 0-1.688-.216-2.424-.648a4.915 4.915 0 0 1-1.776-1.8c-.432-.784-.648-1.704-.648-2.76 0-1.088.232-2.032.696-2.832a5.186 5.186 0 0 1 1.896-1.872 5.264 5.264 0 0 1 2.616-.672c.896 0 1.688.2 2.376.6.688.384 1.24.888 1.656 1.512l-.264.696V8.92h2.232v14.856h-2.208v-7.32l.096.936c-.384.544-.952.992-1.704 1.344-.752.336-1.6.504-2.544.504Zm.744-1.776a3.7 3.7 0 0 0 1.584-.336c.48-.224.872-.528 1.176-.912.32-.4.528-.856.624-1.368v-1.68a3.504 3.504 0 0 0-.648-1.344 3.137 3.137 0 0 0-1.152-.936c-.464-.224-.992-.336-1.584-.336-.592 0-1.144.152-1.656.456-.512.304-.92.72-1.224 1.248a3.495 3.495 0 0 0-.456 1.776c0 .656.152 1.24.456 1.752.304.512.712.92 1.224 1.224a3.188 3.188 0 0 0 1.656.456Zm12.643 1.92c-.896 0-1.64-.272-2.232-.816-.576-.56-.88-1.28-.912-2.16V9.064h2.232v6.552c.032.544.184.984.456 1.32.288.336.736.512 1.344.528.56 0 1.056-.16 1.488-.48a3.62 3.62 0 0 0 1.08-1.344c.272-.576.408-1.224.408-1.944V9.064h2.232V19h-2.04l-.192-2.448.12.432c-.192.464-.488.88-.888 1.248-.384.352-.84.632-1.368.84a4.674 4.674 0 0 1-1.728.312Zm14.565-.144c-1.136 0-2.112-.224-2.928-.672a4.957 4.957 0 0 1-1.896-1.872c-.432-.8-.648-1.712-.648-2.736 0-.976.248-1.864.744-2.664a5.59 5.59 0 0 1 1.992-1.92c.832-.48 1.76-.72 2.784-.72 1.312 0 2.4.384 3.264 1.152.864.768 1.448 1.824 1.752 3.168l-8.184 2.88-.528-1.32 6.72-2.448-.48.312a3.24 3.24 0 0 0-.96-1.368c-.448-.4-1.032-.6-1.752-.6-.608 0-1.152.152-1.632.456-.48.288-.856.688-1.128 1.2-.272.512-.408 1.096-.408 1.752 0 .688.144 1.296.432 1.824.288.512.68.92 1.176 1.224a3.463 3.463 0 0 0 1.728.432c.432 0 .848-.08 1.248-.24.416-.16.8-.368 1.152-.624l1.032 1.656a6.826 6.826 0 0 1-1.68.816 5.537 5.537 0 0 1-1.8.312Zm10.645-.048c-.704 0-1.392-.12-2.064-.36a4.099 4.099 0 0 1-1.632-1.128l.936-1.296c.416.4.84.704 1.272.912.448.192.888.288 1.32.288.32 0 .616-.04.888-.12.272-.08.488-.208.648-.384.176-.192.264-.448.264-.768 0-.352-.12-.632-.36-.84-.224-.208-.52-.376-.888-.504a15.658 15.658 0 0 0-1.128-.36c-.816-.272-1.44-.648-1.872-1.128-.432-.48-.648-1.064-.648-1.752a2.9 2.9 0 0 1 .384-1.464c.272-.464.664-.84 1.176-1.128.528-.288 1.176-.432 1.944-.432.688 0 1.304.088 1.848.264.544.16 1.056.432 1.536.816l-.888 1.392a2.626 2.626 0 0 0-1.032-.672c-.4-.144-.76-.224-1.08-.24a1.912 1.912 0 0 0-.792.12 1.6 1.6 0 0 0-.6.408.897.897 0 0 0-.24.624c0 .336.112.608.336.816.224.208.512.376.864.504.368.112.728.232 1.08.36.496.144.936.336 1.32.576.384.24.688.536.912.888.24.352.36.792.36 1.32 0 .592-.144 1.144-.432 1.656-.272.496-.696.896-1.272 1.2-.56.288-1.28.432-2.16.432Zm7.949-14.496h2.232v4.416h2.736v1.752h-2.736V19h-2.232v-8.136h-1.824V9.112h1.824V4.696Zm12.273 14.544c-1.136 0-2.112-.224-2.928-.672a4.957 4.957 0 0 1-1.896-1.872c-.432-.8-.648-1.712-.648-2.736 0-.976.248-1.864.744-2.664a5.59 5.59 0 0 1 1.992-1.92c.832-.48 1.76-.72 2.784-.72 1.312 0 2.4.384 3.264 1.152.864.768 1.448 1.824 1.752 3.168l-8.184 2.88-.528-1.32 6.72-2.448-.48.312a3.24 3.24 0 0 0-.96-1.368c-.448-.4-1.032-.6-1.752-.6-.608 0-1.152.152-1.632.456-.48.288-.856.688-1.128 1.2-.272.512-.408 1.096-.408 1.752 0 .688.144 1.296.432 1.824.288.512.68.92 1.176 1.224a3.463 3.463 0 0 0 1.728.432c.432 0 .848-.08 1.248-.24.416-.16.8-.368 1.152-.624l1.032 1.656a6.826 6.826 0 0 1-1.68.816 5.537 5.537 0 0 1-1.8.312Zm11.893 0a4.921 4.921 0 0 1-2.496-.648 4.824 4.824 0 0 1-1.752-1.872c-.432-.816-.648-1.752-.648-2.808 0-1.104.224-2.048.672-2.832a4.707 4.707 0 0 1 1.872-1.8c.784-.416 1.664-.624 2.64-.624.784 0 1.528.168 2.232.504.72.336 1.28.8 1.68 1.392l-.096.792V.424h2.208V19h-2.232v-2.472l.24.624a5.571 5.571 0 0 1-1.8 1.512c-.736.384-1.576.576-2.52.576Zm.696-1.896c.592 0 1.12-.104 1.584-.312a3.243 3.243 0 0 0 1.152-.912 3.5 3.5 0 0 0 .648-1.368V12.88a2.835 2.835 0 0 0-.696-1.248 3.354 3.354 0 0 0-1.176-.864 3.334 3.334 0 0 0-1.512-.336 3.23 3.23 0 0 0-1.68.456 3.318 3.318 0 0 0-1.2 1.2c-.304.512-.456 1.104-.456 1.776 0 .656.152 1.248.456 1.776.304.512.712.928 1.224 1.248a3.188 3.188 0 0 0 1.656.456Zm23.452-8.28 2.928 6.696-.432.048 2.736-6.744h2.184l-4.56 10.536-3.192-6.816-2.904 6.816-4.608-10.536h2.184l3.096 7.008-.768-.144 2.208-5.136-.792-1.728h1.92Zm13.612 10.176c-.928 0-1.776-.2-2.544-.6a4.51 4.51 0 0 1-1.8-1.752c-.432-.784-.648-1.736-.648-2.856 0-1.104.232-2.056.696-2.856.464-.816 1.08-1.44 1.848-1.872a5.234 5.234 0 0 1 2.568-.648c.928 0 1.712.216 2.352.648.64.416 1.128.912 1.464 1.488l-.144.384.216-2.112h2.064V19h-2.232v-2.592l.24.576c-.064.16-.208.368-.432.624-.208.24-.496.488-.864.744a5.21 5.21 0 0 1-1.224.648c-.464.16-.984.24-1.56.24Zm.6-1.848c.56 0 1.064-.104 1.512-.312a2.958 2.958 0 0 0 1.104-.864c.304-.384.512-.84.624-1.368v-1.944a2.958 2.958 0 0 0-.672-1.248 3.154 3.154 0 0 0-1.152-.84 3.49 3.49 0 0 0-1.488-.312c-.592 0-1.136.144-1.632.432a3.318 3.318 0 0 0-1.2 1.2c-.288.512-.432 1.112-.432 1.8 0 .64.152 1.224.456 1.752.304.528.712.944 1.224 1.248a3.188 3.188 0 0 0 1.656.456Zm12.119 1.8c-.704 0-1.392-.12-2.064-.36a4.099 4.099 0 0 1-1.632-1.128l.936-1.296c.416.4.84.704 1.272.912.448.192.888.288 1.32.288.32 0 .616-.04.888-.12.272-.08.488-.208.648-.384.176-.192.264-.448.264-.768 0-.352-.12-.632-.36-.84-.224-.208-.52-.376-.888-.504a15.658 15.658 0 0 0-1.128-.36c-.816-.272-1.44-.648-1.872-1.128-.432-.48-.648-1.064-.648-1.752a2.9 2.9 0 0 1 .384-1.464c.272-.464.664-.84 1.176-1.128.528-.288 1.176-.432 1.944-.432.688 0 1.304.088 1.848.264.544.16 1.056.432 1.536.816l-.888 1.392a2.626 2.626 0 0 0-1.032-.672c-.4-.144-.76-.224-1.08-.24a1.912 1.912 0 0 0-.792.12 1.6 1.6 0 0 0-.6.408.897.897 0 0 0-.24.624c0 .336.112.608.336.816.224.208.512.376.864.504.368.112.728.232 1.08.36.496.144.936.336 1.32.576.384.24.688.536.912.888.24.352.36.792.36 1.32 0 .592-.144 1.144-.432 1.656-.272.496-.696.896-1.272 1.2-.56.288-1.28.432-2.16.432Zm16.575-10.128.192 2.424-.096-.384c.32-.736.84-1.32 1.56-1.752.72-.448 1.552-.672 2.496-.672s1.712.28 2.304.84c.608.544.92 1.256.936 2.136V19h-2.256v-6.552c-.016-.544-.176-.984-.48-1.32-.288-.352-.744-.528-1.368-.528-.576 0-1.096.16-1.56.48-.464.32-.832.76-1.104 1.32-.256.56-.384 1.208-.384 1.944V19h-2.232V9.064h1.992Zm10.409 4.872c0-.992.232-1.888.696-2.688a5.21 5.21 0 0 1 1.968-1.896c.832-.464 1.776-.696 2.832-.696 1.088 0 2.04.232 2.856.696a4.907 4.907 0 0 1 1.896 1.896c.448.8.672 1.696.672 2.688 0 .992-.224 1.896-.672 2.712a4.864 4.864 0 0 1-1.92 1.896c-.816.464-1.768.696-2.856.696-1.056 0-2-.216-2.832-.648a5.137 5.137 0 0 1-1.944-1.848c-.464-.8-.696-1.736-.696-2.808Zm2.232.024c0 .64.144 1.224.432 1.752.288.512.672.92 1.152 1.224.496.304 1.04.456 1.632.456.624 0 1.176-.152 1.656-.456.496-.304.88-.712 1.152-1.224a3.769 3.769 0 0 0 .408-1.752c0-.64-.136-1.216-.408-1.728a3.097 3.097 0 0 0-1.152-1.248c-.48-.32-1.032-.48-1.656-.48-.608 0-1.16.16-1.656.48-.48.32-.864.744-1.152 1.272a3.575 3.575 0 0 0-.408 1.704Zm12.671-9.264h2.232v4.416h2.736v1.752h-2.736V19h-2.232v-8.136h-1.824V9.112h1.824V4.696ZM428.041 19v-7.944h-1.704V9.064h1.704v-4.2c0-1.44.32-2.544.96-3.312.656-.768 1.616-1.152 2.88-1.152.336 0 .704.048 1.104.144.416.096.776.256 1.08.48l-.936 1.608a1.075 1.075 0 0 0-.48-.288 1.536 1.536 0 0 0-.528-.096c-.592 0-1.048.2-1.368.6-.32.4-.48 1.08-.48 2.04v4.176h3.144v1.992h-3.144V19h-2.232Zm6.875-5.064c0-.992.232-1.888.696-2.688a5.21 5.21 0 0 1 1.968-1.896c.832-.464 1.776-.696 2.832-.696 1.088 0 2.04.232 2.856.696a4.907 4.907 0 0 1 1.896 1.896c.448.8.672 1.696.672 2.688 0 .992-.224 1.896-.672 2.712a4.864 4.864 0 0 1-1.92 1.896c-.816.464-1.768.696-2.856.696-1.056 0-2-.216-2.832-.648a5.137 5.137 0 0 1-1.944-1.848c-.464-.8-.696-1.736-.696-2.808Zm2.232.024c0 .64.144 1.224.432 1.752.288.512.672.92 1.152 1.224.496.304 1.04.456 1.632.456.624 0 1.176-.152 1.656-.456.496-.304.88-.712 1.152-1.224a3.769 3.769 0 0 0 .408-1.752c0-.64-.136-1.216-.408-1.728a3.097 3.097 0 0 0-1.152-1.248c-.48-.32-1.032-.48-1.656-.48-.608 0-1.16.16-1.656.48-.48.32-.864.744-1.152 1.272a3.575 3.575 0 0 0-.408 1.704Zm14.854 5.424c-.896 0-1.64-.272-2.232-.816-.576-.56-.88-1.28-.912-2.16V9.064h2.232v6.552c.032.544.184.984.456 1.32.288.336.736.512 1.344.528.56 0 1.056-.16 1.488-.48a3.62 3.62 0 0 0 1.08-1.344c.272-.576.408-1.224.408-1.944V9.064h2.232V19h-2.04l-.192-2.448.12.432c-.192.464-.488.88-.888 1.248-.384.352-.84.632-1.368.84a4.674 4.674 0 0 1-1.728.312Zm11.95-10.32.192 2.424-.096-.384c.32-.736.84-1.32 1.56-1.752.72-.448 1.552-.672 2.496-.672s1.712.28 2.304.84c.608.544.92 1.256.936 2.136V19h-2.256v-6.552c-.016-.544-.176-.984-.48-1.32-.288-.352-.744-.528-1.368-.528-.576 0-1.096.16-1.56.48-.464.32-.832.76-1.104 1.32-.256.56-.384 1.208-.384 1.944V19h-2.232V9.064h1.992Zm15.305 10.176a4.921 4.921 0 0 1-2.496-.648 4.824 4.824 0 0 1-1.752-1.872c-.432-.816-.648-1.752-.648-2.808 0-1.104.224-2.048.672-2.832a4.707 4.707 0 0 1 1.872-1.8c.784-.416 1.664-.624 2.64-.624.784 0 1.528.168 2.232.504.72.336 1.28.8 1.68 1.392l-.096.792V.424h2.208V19h-2.232v-2.472l.24.624a5.571 5.571 0 0 1-1.8 1.512c-.736.384-1.576.576-2.52.576Zm.696-1.896c.592 0 1.12-.104 1.584-.312a3.243 3.243 0 0 0 1.152-.912 3.5 3.5 0 0 0 .648-1.368V12.88a2.835 2.835 0 0 0-.696-1.248 3.354 3.354 0 0 0-1.176-.864 3.334 3.334 0 0 0-1.512-.336 3.23 3.23 0 0 0-1.68.456 3.318 3.318 0 0 0-1.2 1.2c-.304.512-.456 1.104-.456 1.776 0 .656.152 1.248.456 1.776.304.512.712.928 1.224 1.248a3.188 3.188 0 0 0 1.656.456Zm8.923-16.56h2.016v13.728h-2.016V.784Zm1.08 18.12c-.416 0-.76-.12-1.032-.36a1.163 1.163 0 0 1-.408-.912c0-.368.136-.672.408-.912.272-.256.616-.384 1.032-.384.4 0 .728.128.984.384.272.24.408.544.408.912s-.136.672-.408.912c-.256.24-.584.36-.984.36Z"/>
</svg>
